<?xml version="1.0" encoding="UTF-8"?>
<svg version="1.1" xmlns="http://www.w3.org/2000/svg" width="900" height="280">
<path d="M0 0 C7.54106325 7.81266935 7.54106325 7.81266935 9 13 C9.66 13 10.32 13 11 13 C23.16068232 33.93960186 24.93585716 57.39154116 19.203125 80.72265625 C17.67732761 86.40687684 15.46794423 91.66802172 13 97 C12.2694145 98.89528702 11.54029268 100.79113878 10.8125 102.6875 C-0.50255901 129.63982999 -20.99221324 152.4080072 -44 170 C-45.68877548 171.37343315 -47.37627501 172.7484367 -49.0625 174.125 C-53.89503594 177.97580816 -58.88831851 181.5310861 -64 185 C-64.91394531 185.62648437 -65.82789063 186.25296875 -66.76953125 186.8984375 C-78.04637047 194.53709968 -89.41977773 201.71316595 -102 207 C-103.71896484 207.75603516 -103.71896484 207.75603516 -105.47265625 208.52734375 C-120.32633354 215.02483467 -136.84769545 220.59872873 -153.18359375 216.12890625 C-158.70624977 213.56511617 -162.62983652 210.03939805 -166 205 C-166.40089844 204.41605469 -166.80179688 203.83210937 -167.21484375 203.23046875 C-172.0077937 195.12850709 -171.96040175 184.02816597 -170 175 C-169.16454626 172.25125406 -168.13804459 169.63598361 -167 167 C-166.54625 165.89527344 -166.0925 164.79054687 -165.625 163.65234375 C-161.20194507 153.71110249 -155.02274809 144.40561362 -147 137 C-146.01 136.67 -145.02 136.34 -144 136 C-144 135.34 -144 134.68 -144 134 C-135.48337978 127.13687254 -125.78684053 124.82793997 -115 125 C-108.17125459 125.87548018 -104.55944762 128.88096442 -100.3125 134.16015625 C-97.9938113 137.41046094 -97.75580493 139.65054263 -97.625 143.625 C-97.57601562 144.62789062 -97.52703125 145.63078125 -97.4765625 146.6640625 C-98.7023946 154.47645515 -104.54871401 160.02854643 -110 165.375 C-110.60328125 165.98988281 -111.2065625 166.60476562 -111.828125 167.23828125 C-115.05782871 170.44692167 -117.59905321 172.55189435 -122 174 C-123.05021103 175.84971696 -123.05021103 175.84971696 -124 178 C-126.15388414 180.26433973 -128.24700463 182.43525348 -130.75 184.3125 C-132.88354554 187.19278647 -132.71186428 190.48474427 -133 194 C-126.64336619 193.62908978 -121.75698027 192.70225605 -116 190 C-115.01 190 -114.02 190 -113 190 C-113 189.34 -113 188.68 -113 188 C-112.33097656 187.70609375 -111.66195312 187.4121875 -110.97265625 187.109375 C-97.43970177 180.78794123 -85.55869762 171.76311196 -74.46533203 161.83349609 C-71.78476596 159.44399543 -69.34146835 157.37542281 -66 156 C-66 155.34 -66 154.68 -66 154 C-65.34 154 -64.68 154 -64 154 C-64 153.34 -64 152.68 -64 152 C-63.34 152 -62.68 152 -62 152 C-62 151.34 -62 150.68 -62 150 C-61.34 150 -60.68 150 -60 150 C-59.74863281 149.4225 -59.49726563 148.845 -59.23828125 148.25 C-57.8412998 145.71163623 -56.22678681 144.05820412 -54.1875 142 C-43.55570329 130.38918486 -35.57091431 116.2336113 -29 102 C-28.63261719 101.34 -28.26523438 100.68 -27.88671875 100 C-24.38867731 92.11014441 -24.71950829 79.05980867 -27.1875 70.875 C-29.08658817 66.21198069 -31.64175007 62.20999211 -36.23828125 59.8515625 C-43.92893821 57.48018595 -53.13433602 58.74149376 -61 60 C-61 60.66 -61 61.32 -61 62 C-64.50776784 63.60355101 -67.14354879 64.22036864 -71 64 C-71 64.66 -71 65.32 -71 66 C-71.99257812 66.4846875 -72.98515625 66.969375 -74.0078125 67.46875 C-82.28984287 71.54517396 -90.3614115 75.82680407 -98.3046875 80.53125 C-101 82 -101 82 -103 82 C-103 82.66 -103 83.32 -103 84 C-106 86 -106 86 -109 86 C-109 86.66 -109 87.32 -109 88 C-110.32 88.33 -111.64 88.66 -113 89 C-113 89.66 -113 90.32 -113 91 C-114.98 91.66 -116.96 92.32 -119 93 C-119 93.66 -119 94.32 -119 95 C-120.52539062 96.17333984 -120.52539062 96.17333984 -122.65625 97.4609375 C-123.43226562 97.93273437 -124.20828125 98.40453125 -125.0078125 98.890625 C-125.83023438 99.38046875 -126.65265625 99.8703125 -127.5 100.375 C-128.29148437 100.85710937 -129.08296875 101.33921875 -129.8984375 101.8359375 C-145.68770147 111.36126396 -167.0484555 121.6165445 -185.89453125 117.34375 C-194.71571772 114.76951697 -202.05797645 110.73865881 -207.0625 102.8125 C-211.21763568 93.4526615 -210.6851405 78.92624189 -207.10546875 69.4140625 C-206.74066406 68.61742188 -206.37585938 67.82078125 -206 67 C-205.25169922 65.34097656 -205.25169922 65.34097656 -204.48828125 63.6484375 C-201.08397283 56.38539053 -197.30253385 49.07203084 -192 43 C-191.34 43 -190.68 43 -190 43 C-189.72671875 42.41347656 -189.4534375 41.82695313 -189.171875 41.22265625 C-184.34605816 32.06969031 -175.10318315 26.03855612 -167 20 C-166.17628906 19.38253906 -165.35257813 18.76507813 -164.50390625 18.12890625 C-119.40397926 -14.46497513 -47.78397786 -44.52597937 0 0 Z " fill="#FEFEFE" transform="translate(223,56)"/>
<path d="M0 0 C6.81342714 -0.10190419 13.62665577 -0.17167623 20.44067383 -0.21972656 C22.75585271 -0.23977 25.07098142 -0.26701225 27.38598633 -0.30175781 C30.72489851 -0.35059542 34.06313799 -0.37304225 37.40234375 -0.390625 C38.42770737 -0.41127014 39.45307098 -0.43191528 40.50950623 -0.45318604 C49.77982914 -0.456043 58.17223937 2.52692823 65 9 C70.63053645 16.75268393 70.69699517 24.79777993 70 34 C68.64530483 38.88897414 66.33864547 43.16055771 63 47 C63.68835938 47.61875 63.68835938 47.61875 64.390625 48.25 C71.31269216 54.76488674 74.50102498 60.6154016 75.03125 70.19921875 C74.93197945 79.09634215 72.53345144 86.22851531 66.36328125 92.72265625 C57.45820208 100.86730169 46.39635824 102.32444046 34.78515625 102.23046875 C33.84820419 102.23001053 32.91125214 102.22955231 31.94590759 102.2290802 C29.98370075 102.2260804 28.0214958 102.21826312 26.05932617 102.20581055 C23.04662733 102.18740302 20.03423394 102.18530223 17.02148438 102.18554688 C15.10937233 102.18063641 13.19726236 102.17481016 11.28515625 102.16796875 C10.3831398 102.16685593 9.48112335 102.1657431 8.55177307 102.16459656 C7.304235 102.15502678 7.304235 102.15502678 6.03149414 102.14526367 C5.29919083 102.14145187 4.56688751 102.13764008 3.81239319 102.13371277 C2 102 2 102 0 101 C-1.34395108 96.96814675 -1.13902365 93.08256503 -1.12939453 88.87866211 C-1.13114685 87.94509384 -1.13289917 87.01152557 -1.13470459 86.04966736 C-1.13911167 82.958874 -1.13618935 79.8681377 -1.1328125 76.77734375 C-1.13348581 74.63407887 -1.13445606 72.49081406 -1.13571167 70.34754944 C-1.13718705 65.85433221 -1.13503899 61.36113485 -1.13037109 56.86791992 C-1.12467048 51.09838501 -1.12795594 45.32889658 -1.13394356 39.55936337 C-1.13755055 35.13370918 -1.13641 30.70806609 -1.13381577 26.28241158 C-1.13314706 24.1544653 -1.13397297 22.02651803 -1.13629532 19.89857292 C-1.13882445 16.92966911 -1.13497767 13.96084147 -1.12939453 10.99194336 C-1.13141876 10.10617615 -1.13344299 9.22040894 -1.13552856 8.30780029 C-1.11426454 2.22852908 -1.11426454 2.22852908 0 0 Z M22 20 C22 25.94 22 31.88 22 38 C25.06345144 38.10822792 28.1230601 38.18741479 31.1875 38.25 C32.05181641 38.28351563 32.91613281 38.31703125 33.80664062 38.3515625 C38.0611794 38.41676616 40.35727716 38.39830711 44.05078125 36.109375 C46.36114598 33.6091807 46.92486585 32.5635061 47.375 29.1875 C46.87287557 24.91944236 45.30889102 23.6320724 42 21 C37.97853021 19.68513209 33.93421698 19.88981782 29.75 19.9375 C25.91375 19.9684375 25.91375 19.9684375 22 20 Z M22 60 C21.91314397 61.56172745 21.89297781 63.12729344 21.90234375 64.69140625 C21.90556641 65.63564453 21.90878906 66.57988281 21.91210938 67.55273438 C21.92048828 68.54595703 21.92886719 69.53917969 21.9375 70.5625 C21.94201172 71.55958984 21.94652344 72.55667969 21.95117188 73.58398438 C21.96299993 76.05604849 21.97948151 78.52799518 22 81 C24.85442753 81.05437005 27.70780076 81.09384974 30.5625 81.125 C31.36236328 81.14175781 32.16222656 81.15851563 32.98632812 81.17578125 C39.02377514 81.22506653 44.22659364 80.77782459 49.4375 77.4375 C51.44914963 74.29932658 51.48028626 71.97942522 51.53125 68.31640625 C50.77266199 65.0087394 49.415294 63.3630497 47 61 C42.02105297 59.38132998 26.12062181 55.87937819 22 60 Z " fill="#FEFEFE" transform="translate(302,160)"/>
<path d="M0 0 C0.51949219 -0.33773437 1.03898438 -0.67546875 1.57421875 -1.0234375 C2.27160156 -1.46945313 2.96898437 -1.91546875 3.6875 -2.375 C4.71423828 -3.03628906 4.71423828 -3.03628906 5.76171875 -3.7109375 C13.26863267 -8.03429107 21.55361929 -7.98892365 30 -7 C36.88469233 -5.07228615 42.27840379 -1.12461364 46 5 C50.25798929 14.00212697 50.15629313 24.14227172 50.1328125 33.91015625 C50.13376923 34.80367294 50.13472595 35.69718964 50.13571167 36.61778259 C50.13638616 38.48404003 50.13458349 40.35029993 50.13037109 42.21655273 C50.12495475 45.08647807 50.13036991 47.95625096 50.13671875 50.82617188 C50.13605896 52.64583368 50.13477985 54.46549539 50.1328125 56.28515625 C50.13483673 57.14544937 50.13686096 58.00574249 50.13894653 58.8921051 C50.11498884 64.88501116 50.11498884 64.88501116 49 66 C47.43827255 66.08685603 45.87270656 66.10702219 44.30859375 66.09765625 C43.36435547 66.09443359 42.42011719 66.09121094 41.44726562 66.08789062 C40.45404297 66.07951172 39.46082031 66.07113281 38.4375 66.0625 C37.44041016 66.05798828 36.44332031 66.05347656 35.41601562 66.04882812 C32.94395151 66.03700007 30.47200482 66.02051849 28 66 C27.970271 64.17009521 27.970271 64.17009521 27.93994141 62.30322266 C27.8633354 57.73694718 27.77470686 53.17096774 27.68261719 48.60498047 C27.64455305 46.63629033 27.60966268 44.66753597 27.578125 42.69873047 C27.5319801 39.85360909 27.47407219 37.00892133 27.4140625 34.1640625 C27.40251129 33.29697662 27.39096008 32.42989075 27.37905884 31.53652954 C27.23592173 25.48450711 26.31906891 19.91035439 25 14 C21.04 14 17.08 14 13 14 C9.24860148 21.50279704 7.55199911 27.21830334 7.48828125 35.53125 C7.46135445 36.84603333 7.46135445 36.84603333 7.43388367 38.18737793 C7.38015491 40.95820453 7.34600627 43.72886265 7.3125 46.5 C7.27929379 48.39064826 7.24480112 50.28127439 7.20898438 52.171875 C7.12205282 56.78126921 7.06166616 61.38992327 7 66 C0.07 66 -6.86 66 -14 66 C-14.05607422 61.71708984 -14.05607422 61.71708984 -14.11328125 57.34765625 C-14.15959977 54.55746148 -14.21079575 51.7673954 -14.26245117 48.97729492 C-14.295539 47.05029231 -14.32362028 45.12319654 -14.34643555 43.19604492 C-14.38028037 40.41284791 -14.4326086 37.63049229 -14.48828125 34.84765625 C-14.49467117 33.99728287 -14.5010611 33.14690948 -14.50764465 32.27076721 C-14.64286422 26.66794399 -15.19116185 20.96271534 -18 16 C-21.29467957 13.79322022 -24.09600861 13.64890807 -28.03125 14.265625 C-31.0520432 15.39242881 -32.34240009 17.29384149 -34.08984375 19.91796875 C-36.41330059 25.23300092 -36.19728606 31.19466561 -36.31640625 36.8984375 C-36.33718735 37.73339752 -36.35796844 38.56835754 -36.37937927 39.42861938 C-36.44439469 42.0773349 -36.50353491 44.72614359 -36.5625 47.375 C-36.60573096 49.17839478 -36.64934666 50.98178038 -36.69335938 52.78515625 C-36.80002639 57.19001039 -36.90142695 61.5949576 -37 66 C-40.47914941 66.02887814 -43.95826831 66.04675687 -47.4375 66.0625 C-48.92733398 66.07506836 -48.92733398 66.07506836 -50.44726562 66.08789062 C-51.39150391 66.09111328 -52.33574219 66.09433594 -53.30859375 66.09765625 C-54.18314209 66.10289307 -55.05769043 66.10812988 -55.95874023 66.11352539 C-58 66 -58 66 -59 65 C-59.10483132 62.83280414 -59.13856845 60.66215113 -59.14526367 58.49243164 C-59.14862228 57.81274826 -59.1519809 57.13306488 -59.15544128 56.43278503 C-59.16497745 54.17522376 -59.16689573 51.91773644 -59.16796875 49.66015625 C-59.17117951 48.09695911 -59.17454344 46.53376229 -59.17805481 44.9705658 C-59.18405278 41.68943586 -59.18589403 38.4083323 -59.18530273 35.12719727 C-59.18520108 30.91574556 -59.19885364 26.70446233 -59.21607494 22.49305058 C-59.2271751 19.26321125 -59.22922256 16.0334129 -59.22869301 12.80355644 C-59.22987612 11.2505682 -59.2343163 9.69757901 -59.24202538 8.14460945 C-59.25178539 5.97527277 -59.24896328 3.80630508 -59.24291992 1.63696289 C-59.24434494 0.40087784 -59.24576996 -0.83520721 -59.24723816 -2.10874939 C-59 -5 -59 -5 -57 -7 C-54.04147891 -7.44360072 -51.05051549 -7.32412652 -48.0625 -7.3125 C-47.23814453 -7.32861328 -46.41378906 -7.34472656 -45.56445312 -7.36132812 C-44.77103516 -7.36197266 -43.97761719 -7.36261719 -43.16015625 -7.36328125 C-42.43449463 -7.36626221 -41.70883301 -7.36924316 -40.96118164 -7.37231445 C-38.48703125 -6.90261704 -37.591962 -5.89662572 -36 -4 C-34.989375 -4.474375 -33.97875 -4.94875 -32.9375 -5.4375 C-21.08084371 -10.39745582 -10.11708645 -7.11777321 0 0 Z " fill="#FEFEFE" transform="translate(577,71)"/>
<path d="M0 0 C6.93 0 13.86 0 21 0 C21 15.18 21 30.36 21 46 C36.23833725 46.53907978 36.23833725 46.53907978 41 43 C40.31292969 42.96261719 39.62585938 42.92523438 38.91796875 42.88671875 C38.01691406 42.82097656 37.11585938 42.75523437 36.1875 42.6875 C34.84751953 42.60048828 34.84751953 42.60048828 33.48046875 42.51171875 C30.65098798 41.92799909 29.67862629 41.32255834 28 39 C27.74734595 35.90498792 27.60064987 33.79870027 29 31 C32.776086 29.91820239 36.40497142 29.89456013 40.3125 29.9375 C41.91544922 29.95103516 41.91544922 29.95103516 43.55078125 29.96484375 C44.35902344 29.97644531 45.16726563 29.98804688 46 30 C45.505 29.01 45.505 29.01 45 28 C41.83760318 27.70187429 38.72027544 27.58411728 35.546875 27.52148438 C30.45945717 27.31858152 30.45945717 27.31858152 28.05078125 25.6484375 C26.35938425 22.99501916 26.56269299 21.06114907 27 18 C29.08570631 15.30092356 30.27386758 14.13667959 33.66273499 13.49879456 C34.67516769 13.49862839 35.6876004 13.49846222 36.73071289 13.49829102 C37.8819313 13.48891006 39.03314972 13.47952911 40.21925354 13.46986389 C41.45787643 13.48109787 42.69649933 13.49233185 43.97265625 13.50390625 C45.88454994 13.5017234 45.88454994 13.5017234 47.83506775 13.49949646 C50.52967238 13.50115671 53.22286593 13.51064763 55.91723633 13.53344727 C59.36978744 13.56186123 62.82145488 13.55908569 66.27407169 13.54635715 C69.56949027 13.53773005 72.86476539 13.55284358 76.16015625 13.56640625 C77.40080338 13.56347061 78.6414505 13.56053497 79.91969299 13.55751038 C81.06775925 13.57019455 82.2158255 13.58287872 83.39868164 13.59594727 C84.41031876 13.60135025 85.42195587 13.60675323 86.46424866 13.61231995 C89 14 89 14 90.86180115 15.3299408 C92 17 92 17 91.8125 20.125 C91.544375 21.07375 91.27625 22.0225 91 23 C88.65061112 24.17469444 87.04926795 24.20034889 84.4296875 24.31640625 C83.53378906 24.35830078 82.63789062 24.40019531 81.71484375 24.44335938 C80.30912109 24.50233398 80.30912109 24.50233398 78.875 24.5625 C77.93011719 24.60568359 76.98523438 24.64886719 76.01171875 24.69335938 C73.67462908 24.79959072 71.3374317 24.90163176 69 25 C69 26.32 69 27.64 69 29 C70.22976563 28.96519531 70.22976563 28.96519531 71.484375 28.9296875 C73.10085938 28.90261719 73.10085938 28.90261719 74.75 28.875 C75.81734375 28.85179687 76.8846875 28.82859375 77.984375 28.8046875 C80.92470106 28.99512313 82.52361878 29.47329896 85 31 C85.1875 33.875 85.1875 33.875 85 37 C81.72267016 39.18488656 80.27732012 39.32219168 76.4375 39.5625 C72.57339351 39.73929053 72.57339351 39.73929053 69 41 C68.38319319 42.49962983 67.83089715 44.02607406 67.3125 45.5625 C64.32728066 53.3196313 59.23917821 58.95952844 52 63 C51.34 63 50.68 63 50 63 C52.41819966 68.28824285 55.55174399 72.80695452 58.9375 77.5 C59.98900288 78.96823346 61.03979782 80.43697421 62.08984375 81.90625 C62.58822754 82.60242432 63.08661133 83.29859863 63.60009766 84.01586914 C64.85405612 85.7931486 66.07149627 87.58709747 67.26953125 89.40234375 C68.9133711 91.9785205 68.9133711 91.9785205 70.75 94.0625 C72.32665022 96.50630784 72.23769395 98.1476726 72 101 C68.25636763 102.87181618 63.80807994 102.31428147 59.6875 102.375 C58.26147461 102.43107422 58.26147461 102.43107422 56.80664062 102.48828125 C49.77378227 102.57674488 49.77378227 102.57674488 46.0546875 99.8046875 C44.11024905 97.15049206 42.20845927 94.52331429 40.4375 91.75 C36.927587 86.38465589 33.34789494 81.07656502 29.6875 75.8125 C28.91394165 74.67989746 28.91394165 74.67989746 28.12475586 73.52441406 C27.63370361 72.82155273 27.14265137 72.11869141 26.63671875 71.39453125 C26.20061279 70.76393799 25.76450684 70.13334473 25.31518555 69.48364258 C23.96387038 67.71009976 23.96387038 67.71009976 21 67 C21 78.22 21 89.44 21 101 C17.71855481 102.64072259 14.10210004 102.14274434 10.5 102.125 C9.71496094 102.12886719 8.92992187 102.13273437 8.12109375 102.13671875 C2.25330787 102.12665394 2.25330787 102.12665394 0 101 C0 67.67 0 34.34 0 0 Z " fill="#FEFEFE" transform="translate(530,160)"/>
<path d="M0 0 C0.87400452 -0.00807175 1.74800903 -0.01614349 2.64849854 -0.02445984 C4.50799574 -0.03831586 6.36751854 -0.0490312 8.22705078 -0.05688477 C10.10635972 -0.0683106 11.98563868 -0.08860985 13.86474609 -0.1184082 C41.95919155 -0.56383829 41.95919155 -0.56383829 52.71875 8.609375 C59.96987538 15.94849947 62.9197341 24.27618488 62.890625 34.48828125 C62.8896582 35.31513428 62.88869141 36.1419873 62.88769531 36.99389648 C62.67853436 44.34676351 60.98659334 50.35108846 56.328125 56.23828125 C55.00755815 56.92989199 53.67585625 57.60122341 52.328125 58.23828125 C51.998125 59.22828125 51.668125 60.21828125 51.328125 61.23828125 C49.2890625 62.5546875 49.2890625 62.5546875 46.703125 63.80078125 C45.86523438 64.21457031 45.02734375 64.62835938 44.1640625 65.0546875 C36.68533874 68.17597304 30.44461216 68.49225461 22.390625 68.36328125 C18.74 68.32203125 15.089375 68.28078125 11.328125 68.23828125 C11.328125 79.45828125 11.328125 90.67828125 11.328125 102.23828125 C4.068125 102.23828125 -3.191875 102.23828125 -10.671875 102.23828125 C-10.671875 68.90828125 -10.671875 35.57828125 -10.671875 1.23828125 C-7.35557699 -0.41986776 -3.64784558 0.03198067 0 0 Z M11.328125 22.23828125 C11.24074855 24.09197736 11.22114347 25.94895666 11.23046875 27.8046875 C11.23369141 28.92939453 11.23691406 30.05410156 11.24023438 31.21289062 C11.24861328 32.39689453 11.25699219 33.58089844 11.265625 34.80078125 C11.27013672 35.98865234 11.27464844 37.17652344 11.27929688 38.40039062 C11.29112825 41.34640351 11.30761213 44.29231806 11.328125 47.23828125 C14.20370203 47.31966551 17.07694762 47.37895976 19.953125 47.42578125 C21.16548828 47.46348633 21.16548828 47.46348633 22.40234375 47.50195312 C27.4861448 47.5639507 30.93075095 47.08048643 35.328125 44.23828125 C38.7584947 40.35654712 39.98520242 37.27511139 39.72265625 32.19921875 C38.78739813 27.5507081 36.14486164 24.78277234 32.328125 22.23828125 C27.87436067 21.23156485 23.57110112 21.10366039 19.015625 21.11328125 C17.78199219 21.11070313 16.54835938 21.108125 15.27734375 21.10546875 C12.44058239 20.90096389 12.44058239 20.90096389 11.328125 22.23828125 Z " fill="#FEFEFE" transform="translate(312.671875,34.76171875)"/>
<path d="M0 0 C2.01953125 1.1171875 2.01953125 1.1171875 4 2.4375 C5.15048828 3.18386719 5.15048828 3.18386719 6.32421875 3.9453125 C13.71578366 9.19882144 19.18154885 15.79471073 20.7578125 24.8984375 C22.08479139 38.81031292 22.08479139 38.81031292 19 43.4375 C17.01315308 43.79826355 17.01315308 43.79826355 14.55029297 43.77807617 C13.62948944 43.77784958 12.70868591 43.77762299 11.75997925 43.77738953 C10.76410797 43.76190567 9.76823669 43.74642181 8.7421875 43.73046875 C7.72399933 43.72622391 6.70581116 43.72197906 5.6567688 43.71760559 C2.39591327 43.70077579 -0.86433041 43.66311546 -4.125 43.625 C-6.33202234 43.60995874 -8.53905434 43.59626937 -10.74609375 43.58398438 C-16.16427223 43.5508583 -21.58209242 43.50061653 -27 43.4375 C-26.34 44.4275 -25.68 45.4175 -25 46.4375 C-25 47.4275 -25 48.4175 -25 49.4375 C-24.4225 49.72625 -23.845 50.015 -23.25 50.3125 C-21.87711999 50.99894001 -20.5178896 51.71492128 -19.1875 52.48046875 C-14.9655545 54.32756991 -10.49862696 54.0730401 -6 53.4375 C-3.09263337 52.07681326 -0.60983516 50.29138291 2 48.4375 C4.5625 47.1875 4.5625 47.1875 7 47.4375 C8.96591625 49.04597693 10.64537651 50.7788813 12.3515625 52.66015625 C14.00382068 54.56980499 14.00382068 54.56980499 16.4375 56.125 C16.953125 56.558125 17.46875 56.99125 18 57.4375 C18 61.4375 18 61.4375 16.3125 63.25390625 C4.30969787 72.31683286 -7.69677711 73.56947073 -22.58984375 72.19921875 C-31.29415133 70.68476102 -37.97326682 65.26592921 -43.49609375 58.58984375 C-50.12602898 49.1012871 -50.98871859 38.67795991 -50 27.4375 C-48.14343578 18.33362486 -43.18889504 11.51616096 -36.625 5.125 C-26.29559688 -1.51533057 -11.79679745 -4.91183381 0 0 Z M-25 22.4375 C-25.33 23.4275 -25.66 24.4175 -26 25.4375 C-18.08 25.4375 -10.16 25.4375 -2 25.4375 C-5.04656931 20.08303684 -5.04656931 20.08303684 -10 17.4375 C-16.74267561 16.3033346 -20.36384794 17.45363653 -25 22.4375 Z " fill="#FEFEFE" transform="translate(684,65.5625)"/>
<path d="M0 0 C1.47906892 -0.02689216 2.95827483 -0.04634621 4.4375 -0.0625 C5.26121094 -0.07410156 6.08492188 -0.08570313 6.93359375 -0.09765625 C9 0 9 0 10 1 C11.7634375 1.0928125 11.7634375 1.0928125 13.5625 1.1875 C18.85239169 1.81318611 22.27428205 4.298216 26 8 C33.11419933 17.22144318 34.15763767 26.31493427 34.09765625 37.6484375 C34.0962413 38.66096588 34.09482635 39.67349426 34.09336853 40.71670532 C34.08779143 43.93616751 34.07524312 47.15555899 34.0625 50.375 C34.05748204 52.56380108 34.05291965 54.75260325 34.04882812 56.94140625 C34.0378295 62.29429477 34.0211142 67.64714233 34 73 C29.99806173 75.22674649 26.43531367 75.33274219 21.9375 75.3125 C20.85758789 75.33666992 20.85758789 75.33666992 19.75585938 75.36132812 C14.49742664 75.36621061 14.49742664 75.36621061 12.29676819 73.74606323 C10.68236501 71.5723131 10.61731715 70.39007038 10.59936523 67.69970703 C10.57935707 66.40288498 10.57935707 66.40288498 10.5589447 65.0798645 C10.55882889 64.14858734 10.55871307 63.21731018 10.55859375 62.2578125 C10.54538589 61.29728973 10.53217804 60.33676697 10.51856995 59.34713745 C10.47762616 56.27306243 10.45599664 53.1992862 10.4375 50.125 C10.4136927 47.05794703 10.38551277 43.99117481 10.34571838 40.92428589 C10.32142259 39.01563272 10.30651428 37.10683127 10.30210876 35.19802856 C10.27185095 28.85003146 10.27185095 28.85003146 8 23 C4.27420911 20.51613941 2.41288598 20.6195788 -2 21 C-4.76441969 22.40759341 -4.76441969 22.40759341 -7 24 C-7.66 24 -8.32 24 -9 24 C-10.93870914 29.70801916 -11.29393336 34.79771438 -11.30859375 40.80078125 C-11.33372344 42.68294621 -11.35912183 44.5651076 -11.38476562 46.44726562 C-11.41364417 49.39460544 -11.43768556 52.34188381 -11.45629883 55.28930664 C-11.4778467 58.14759653 -11.51723883 61.00521967 -11.55859375 63.86328125 C-11.55870956 64.74969803 -11.55882538 65.63611481 -11.5589447 66.5493927 C-11.59407888 68.70432901 -11.78368102 70.8556607 -12 73 C-15.84942509 75.56628339 -19.04297887 75.29464462 -23.5 75.25 C-24.27214844 75.25773437 -25.04429687 75.26546875 -25.83984375 75.2734375 C-29.73631468 75.25993153 -31.68987247 75.20675169 -35 73 C-35.36076355 70.0640564 -35.36076355 70.0640564 -35.34057617 66.25537109 C-35.34101425 65.56257553 -35.34145233 64.86977997 -35.34190369 64.1559906 C-35.33981032 61.86152149 -35.31645468 59.56777926 -35.29296875 57.2734375 C-35.28737471 55.68446248 -35.28310371 54.09548229 -35.28010559 52.50650024 C-35.26864158 48.32077797 -35.23916131 44.13536714 -35.20599365 39.94976807 C-35.17532611 35.68009657 -35.16160737 31.41037484 -35.14648438 27.140625 C-35.11429278 18.76025769 -35.06151245 10.38020345 -35 2 C-27.41 2 -19.82 2 -12 2 C-12 2.66 -12 3.32 -12 4 C-11.505 3.67 -11.01 3.34 -10.5 3 C-6.90909106 1.56363642 -3.85543873 1.87148538 0 2 C0 1.34 0 0.68 0 0 Z " fill="#FEFEFE" transform="translate(487,187)"/>
<path d="M0 0 C0.76376953 -0.01611328 1.52753906 -0.03222656 2.31445312 -0.04882812 C5.88402208 -0.0519348 7.98231088 -0.03525588 11.09765625 1.83203125 C11.82275391 2.56486328 11.82275391 2.56486328 12.5625 3.3125 C13.54347656 2.82652344 14.52445313 2.34054688 15.53515625 1.83984375 C19.72684823 0.05123392 23.48385078 -0.1881382 28 -0.125 C29.12595581 -0.11472778 29.12595581 -0.11472778 30.2746582 -0.10424805 C35.85202536 0.05798717 40.04157898 0.87660002 44.5625 4.3125 C45.614375 5.034375 46.66625 5.75625 47.75 6.5 C52.70864862 11.45864862 56.32863755 17.61174911 56.68275452 24.72967529 C56.68053391 25.62680237 56.67831329 26.52392944 56.67602539 27.44824219 C56.67591209 28.97937653 56.67591209 28.97937653 56.67579651 30.54144287 C56.67063522 31.63636047 56.66547394 32.73127808 56.66015625 33.859375 C56.6587413 34.9857135 56.65732635 36.112052 56.65586853 37.27252197 C56.65027199 40.86920835 56.6377201 44.46583244 56.625 48.0625 C56.61998455 50.50130118 56.61542172 52.94010334 56.61132812 55.37890625 C56.60030369 61.35679483 56.5830414 67.33463685 56.5625 73.3125 C49.6325 73.3125 42.7025 73.3125 35.5625 73.3125 C35.52511719 70.13367188 35.48773437 66.95484375 35.44921875 63.6796875 C35.40297158 60.59172796 35.35174945 57.5038881 35.30004883 54.41601562 C35.26685062 52.2744884 35.23880286 50.13287476 35.21606445 47.99121094 C35.18242496 44.90782946 35.13010346 41.82523631 35.07421875 38.7421875 C35.06782883 37.78883514 35.0614389 36.83548279 35.05485535 35.85324097 C34.93952522 30.60661503 34.49733578 26.84852695 31.5625 22.3125 C28.92021749 20.14205366 27.58502313 20.31127147 24.125 20.5 C19.37021769 21.58442404 16.64509567 22.63759027 13.95385742 26.80126953 C12.13312699 31.39606601 12.08519592 35.40576326 12.05078125 40.3046875 C12.03283005 41.25062775 12.01487885 42.19656799 11.99638367 43.1711731 C11.94243363 46.17657079 11.90843396 49.18181104 11.875 52.1875 C11.84181343 54.23179267 11.80732253 56.2760646 11.77148438 58.3203125 C11.68427297 63.31772908 11.62407339 68.31443935 11.5625 73.3125 C3.9725 73.3125 -3.6175 73.3125 -11.4375 73.3125 C-11.50519655 64.08980022 -11.56027002 54.86726464 -11.59293652 45.64437294 C-11.60861243 41.36210548 -11.62988549 37.08001636 -11.66381836 32.79785156 C-11.69634364 28.6676088 -11.7143385 24.53753789 -11.72213173 20.40717697 C-11.72768758 18.82904732 -11.73853646 17.25092739 -11.75469017 15.67287064 C-11.77637438 13.46741439 -11.77947082 11.26267408 -11.77807617 9.05712891 C-11.78473801 7.80026276 -11.79139984 6.54339661 -11.79826355 5.2484436 C-11.67921158 4.27958221 -11.56015961 3.31072083 -11.4375 2.3125 C-7.60791112 -0.24055926 -4.43695272 -0.01862701 0 0 Z " fill="#FEFEFE" transform="translate(724.4375,63.6875)"/>
<path d="M0 0 C0.84175781 -0.00128906 1.68351562 -0.00257812 2.55078125 -0.00390625 C3.87142578 0.00189453 3.87142578 0.00189453 5.21875 0.0078125 C6.09917969 0.00394531 6.97960937 0.00007813 7.88671875 -0.00390625 C9.14935547 -0.00197266 9.14935547 -0.00197266 10.4375 0 C11.21029297 0.00112793 11.98308594 0.00225586 12.77929688 0.00341797 C14.71875 0.1328125 14.71875 0.1328125 16.71875 1.1328125 C17.61328125 2.99609375 17.61328125 2.99609375 18.53125 5.4453125 C18.88058594 6.3528125 19.22992188 7.2603125 19.58984375 8.1953125 C19.96238281 9.1646875 20.33492188 10.1340625 20.71875 11.1328125 C24.13185957 19.59088875 27.84400848 27.87734947 31.71875 36.1328125 C33.95343819 33.36522801 35.38939618 30.83155796 36.62109375 27.5 C37.12092773 26.16582031 37.12092773 26.16582031 37.63085938 24.8046875 C37.96923828 23.88171875 38.30761719 22.95875 38.65625 22.0078125 C39.66669705 19.28992409 40.67963123 16.57305527 41.69873047 13.85839844 C42.39579665 11.99577354 43.08183667 10.12899469 43.75830078 8.25878906 C44.09716309 7.35354492 44.43602539 6.44830078 44.78515625 5.515625 C45.08494385 4.69723145 45.38473145 3.87883789 45.69360352 3.03564453 C46.71875 1.1328125 46.71875 1.1328125 49.71875 0.1328125 C51.10316528 0.04147177 52.49148269 0.00215654 53.87890625 0 C55.0690332 -0.00193359 55.0690332 -0.00193359 56.28320312 -0.00390625 C57.51973633 0.00189453 57.51973633 0.00189453 58.78125 0.0078125 C59.60947266 0.00394531 60.43769531 0.00007813 61.29101562 -0.00390625 C62.47920898 -0.00197266 62.47920898 -0.00197266 63.69140625 0 C64.77820679 0.00169189 64.77820679 0.00169189 65.88696289 0.00341797 C67.71875 0.1328125 67.71875 0.1328125 69.71875 1.1328125 C69.16996716 6.15481361 68.04631779 10.29360689 66.09375 14.9453125 C65.54971166 16.25997456 65.00679232 17.57510009 64.46484375 18.890625 C64.1797998 19.57801758 63.89475586 20.26541016 63.60107422 20.97363281 C61.77831014 25.43420988 60.06968066 29.94018102 58.34326172 34.4387207 C55.91715411 40.71886939 53.31896752 46.92312233 50.71875 53.1328125 C48.9941722 57.28011684 47.27362562 61.42908525 45.55462646 65.57870483 C45.03181559 66.84055186 44.50873718 68.10228806 43.9854126 69.36392212 C40.50066615 77.76656975 37.06696598 86.18397151 33.8046875 94.67578125 C32.71875 97.1328125 32.71875 97.1328125 30.71875 99.1328125 C28.67163086 99.37573242 28.67163086 99.37573242 26.18359375 99.36328125 C25.29220703 99.36134766 24.40082031 99.35941406 23.48242188 99.35742188 C22.54978516 99.34517578 21.61714844 99.33292969 20.65625 99.3203125 C19.25149414 99.3193457 19.25149414 99.3193457 17.81835938 99.31835938 C10.85894224 99.27300474 10.85894224 99.27300474 9.71875 98.1328125 C9.44940578 94.48100598 9.97376368 91.91655525 11.40625 88.5703125 C11.76847656 87.71050781 12.13070313 86.85070312 12.50390625 85.96484375 C12.90480469 85.03027344 13.30570312 84.09570312 13.71875 83.1328125 C14.59427577 81.00802907 15.46927208 78.8830274 16.34375 76.7578125 C18.60161409 71.30729981 18.60161409 71.30729981 20.03515625 69.171875 C21.00029249 66.97861092 21.00029249 66.97861092 19.70703125 64.1796875 C19.15402344 63.09171875 18.60101563 62.00375 18.03125 60.8828125 C11.71875 48.02669122 11.71875 48.02669122 11.71875 43.1328125 C11.05875 43.1328125 10.39875 43.1328125 9.71875 43.1328125 C9.3165625 42.16408203 9.3165625 42.16408203 8.90625 41.17578125 C7.79804378 38.51098274 6.68744845 35.84719379 5.57519531 33.18408203 C4.96463819 31.72173855 4.35467677 30.25914629 3.74511719 28.79638672 C2.69684437 26.28261069 1.64553759 23.77011971 0.59375 21.2578125 C0.25730469 20.44981201 -0.07914062 19.64181152 -0.42578125 18.80932617 C-1.86136649 15.38668953 -3.32316786 12.05067999 -5.01171875 8.7421875 C-6.37121897 5.94789167 -6.55165423 4.19739375 -6.28125 1.1328125 C-3.95781444 -0.02890528 -2.58491684 0.00377281 0 0 Z " fill="#FDFDFD" transform="translate(443.28125,63.8671875)"/>
<path d="M0 0 C1.39456452 0.00667256 2.78911118 0.01863093 4.18359375 0.03515625 C5.2499707 0.04192383 5.2499707 0.04192383 6.33789062 0.04882812 C8.09899388 0.06064761 9.86005411 0.07858362 11.62109375 0.09765625 C11.62109375 0.75765625 11.62109375 1.41765625 11.62109375 2.09765625 C12.67296875 2.03578125 13.72484375 1.97390625 14.80859375 1.91015625 C19.73204975 2.15229343 21.82950119 3.2406771 25.2265625 6.76171875 C31.75117324 14.5416584 30.7612648 23.77891347 30.5 33.4765625 C30.46458351 35.05557594 30.46458351 35.05557594 30.42845154 36.66648865 C30.35245025 39.99787058 30.268156 43.32898175 30.18359375 46.66015625 C30.13030932 48.93162779 30.07756947 51.20311217 30.02539062 53.47460938 C29.89692217 59.0157891 29.76166153 64.55677095 29.62109375 70.09765625 C16.14090661 75.95608441 -0.79839803 77.78417204 -15.03515625 73.1484375 C-18.91998172 71.40674075 -22.49081208 69.25602661 -25.37890625 66.09765625 C-26.08984375 63.90625 -26.08984375 63.90625 -26.37890625 62.09765625 C-27.03890625 62.09765625 -27.69890625 62.09765625 -28.37890625 62.09765625 C-30.40426904 55.51522718 -30.72225408 46.49811229 -28.19140625 40.03515625 C-25.79564948 36.15237804 -23.48811504 32.83872961 -19.06640625 31.28515625 C-18.50953125 31.22328125 -17.95265625 31.16140625 -17.37890625 31.09765625 C-17.37890625 30.43765625 -17.37890625 29.77765625 -17.37890625 29.09765625 C-7.88277327 26.07615939 0.78366359 25.76058694 10.62109375 26.09765625 C9.70786304 22.94285925 9.23177125 21.45257992 6.3359375 19.76953125 C-0.12033783 18.17171923 -7.29852913 19.6326385 -13.37890625 22.09765625 C-16.96019397 18.71532896 -19.98494928 15.42519384 -22.37890625 11.09765625 C-22.37890625 8.91015625 -22.37890625 8.91015625 -21.37890625 7.09765625 C-17.50333259 3.49890928 -13.29082966 2.13430807 -8.12890625 1.53515625 C-4.17941877 1.07438271 -3.85741297 0.11148592 0 0 Z M-7.37890625 47.09765625 C-8.53656475 48.97722869 -8.53656475 48.97722869 -8.37890625 51.09765625 C-7.57048802 53.59640351 -6.89183643 54.76123091 -4.6875 56.20703125 C-1.72445635 57.35013439 0.70464523 57.29149209 3.87109375 57.22265625 C6.71734375 57.16078125 6.71734375 57.16078125 9.62109375 57.09765625 C9.62109375 52.80765625 9.62109375 48.51765625 9.62109375 44.09765625 C0.61900467 43.52015439 0.61900467 43.52015439 -7.37890625 47.09765625 Z " fill="#FEFEFE" transform="translate(412.37890625,186.90234375)"/>
<path d="M0 0 C3.44555487 3.68791544 4.49804495 5.84934175 4.45410156 10.8918457 C4.45379944 12.05267166 4.45349731 13.21349762 4.45318604 14.40950012 C4.43254089 15.65237289 4.41189575 16.89524567 4.390625 18.17578125 C4.38496521 19.45607712 4.37930542 20.73637299 4.37347412 22.0554657 C4.35825452 25.44727213 4.31900634 28.83838548 4.2746582 32.22991943 C4.23362496 35.69550197 4.21544605 39.1611973 4.1953125 42.62695312 C4.15122837 49.41826836 4.08430178 56.20907136 4 63 C1.97337389 63.49863617 -0.05538168 63.9886211 -2.08496094 64.47509766 C-3.21448181 64.74891266 -4.34400269 65.02272766 -5.50775146 65.30484009 C-11.09275134 66.41657884 -16.574368 66.43537906 -22.25 66.375 C-23.90902344 66.39240234 -23.90902344 66.39240234 -25.6015625 66.41015625 C-33.53758351 66.38188064 -40.89210767 65.62107759 -47.375 60.6875 C-52.76397424 55.17021685 -54 49.52077442 -54 42 C-53.40002677 36.15963559 -51.90003284 31.50003789 -48 27 C-42.21791097 22.46377546 -37.65216029 19.85479384 -30.234375 19.90234375 C-29.34492188 19.90556641 -28.45546875 19.90878906 -27.5390625 19.91210938 C-26.61867188 19.92048828 -25.69828125 19.92886719 -24.75 19.9375 C-23.81414062 19.94201172 -22.87828125 19.94652344 -21.9140625 19.95117188 C-19.60930959 19.96293082 -17.30468773 19.97936574 -15 20 C-15 18.02 -15 16.04 -15 14 C-19.73739985 11.47338675 -24.75760586 11.42035317 -30 12 C-31.35475614 12.62197912 -32.69120764 13.28635808 -34 14 C-37.3125 14.8125 -37.3125 14.8125 -41 14 C-44.2419062 10.32418666 -47.92801234 5.8846484 -48.0546875 0.80859375 C-46.40057007 -2.02791132 -44.13845542 -2.54209788 -41.125 -3.6875 C-39.52011719 -4.31205078 -39.52011719 -4.31205078 -37.8828125 -4.94921875 C-25.01082839 -9.64103952 -10.6300317 -9.49416137 0 0 Z M-32.0078125 39.85546875 C-33.24820464 42.00501275 -33.24820464 42.00501275 -32.5625 44.5625 C-30.44160435 47.87109721 -28.69903401 48.69848803 -25 50 C-21.5172435 50.35604388 -18.20244278 50.60122139 -15 49 C-15 45.37 -15 41.74 -15 38 C-17.43868168 37.8920141 -19.87259133 37.81273411 -22.3125 37.75 C-23.34793945 37.69972656 -23.34793945 37.69972656 -24.40429688 37.6484375 C-28.62043548 37.56363567 -28.62043548 37.56363567 -32.0078125 39.85546875 Z " fill="#FEFEFE" transform="translate(429,71)"/>
<path d="M0 0 C1.8125 1.46875 1.8125 1.46875 3 3 C3.26713018 10.61321026 -0.43003134 15.17716786 -5 21 C-8.3693933 20.05970419 -10.64517379 19.32525736 -13.25 16.9375 C-17.66931024 13.82389506 -22.71005861 14 -28 14 C-25.33370316 17.33533074 -21.81619372 18.39569137 -17.9375 19.8125 C-1.3043011 26.18548085 -1.3043011 26.18548085 3 33 C3.38818359 35.39428711 3.38818359 35.39428711 3.3984375 38.02734375 C3.40423828 39.46303711 3.40423828 39.46303711 3.41015625 40.92773438 C3.39855469 41.92095703 3.38695312 42.91417969 3.375 43.9375 C3.38660156 44.92685547 3.39820313 45.91621094 3.41015625 46.93554688 C3.37373782 55.96124655 3.37373782 55.96124655 0 60 C-7.63421254 67.03151155 -16.36657239 67.322466 -26.3359375 67.20703125 C-36.30888078 66.64352806 -44.57470795 63.87800957 -52 57 C-53.47265625 55.125 -53.47265625 55.125 -54 53 C-52.76953125 50.30859375 -52.76953125 50.30859375 -50.8125 47.4375 C-50.17957031 46.48746094 -49.54664063 45.53742188 -48.89453125 44.55859375 C-45.68404437 40.22278157 -45.68404437 40.22278157 -44 39 C-40.50431447 39.23353223 -37.84996493 41.17257102 -34.9375 43 C-30.57695648 45.72779865 -27.49297746 47.13757938 -22.3125 47.0625 C-21.50425781 47.05347656 -20.69601562 47.04445312 -19.86328125 47.03515625 C-19.24839844 47.02355469 -18.63351562 47.01195312 -18 47 C-17.67 46.01 -17.34 45.02 -17 44 C-20.84589156 41.86339358 -24.59962308 40.47342284 -28.8125 39.1875 C-37.7794714 36.25042748 -44.15368889 32.17815 -49 24 C-50.73899485 18.45974077 -50.58589273 12.96446387 -48.9375 7.4375 C-44.75792518 0.02212531 -40.01589333 -5.21149117 -31.6875 -7.6875 C-19.64282878 -9.08804316 -10.21266267 -6.57963349 0 0 Z " fill="#FEFEFE" transform="translate(886,71)"/>
<path d="M0 0 C1.78402396 1.78402396 1.13232529 4.15878397 1.13671875 6.53125 C1.13285156 7.2634375 1.12898437 7.995625 1.125 8.75 C1.13080078 9.82507813 1.13080078 9.82507813 1.13671875 10.921875 C1.12969993 14.740112 0.92035258 18.28937214 0 22 C0.97582031 21.97679688 1.95164062 21.95359375 2.95703125 21.9296875 C4.22933594 21.91164063 5.50164063 21.89359375 6.8125 21.875 C8.07707031 21.85179688 9.34164062 21.82859375 10.64453125 21.8046875 C14 22 14 22 17 24 C17.2208564 26.95064148 17.28060989 29.68368231 17.1875 32.625 C17.16719727 33.82769531 17.16719727 33.82769531 17.14648438 35.0546875 C17.11109051 37.03674378 17.05728234 39.01845551 17 41 C14.0384304 42.4807848 11.16493705 42.35314037 7.875 42.5625 C6.59367188 42.64628906 5.31234375 42.73007813 3.9921875 42.81640625 C2.51105469 42.90728516 2.51105469 42.90728516 1 43 C0.95054614 47.35992871 0.91425512 51.71970862 0.89013672 56.07983398 C0.88008179 57.56293583 0.86643596 59.04601788 0.84912109 60.52905273 C0.82484994 62.66134531 0.81351201 64.79337569 0.8046875 66.92578125 C0.79421387 68.20880127 0.78374023 69.49182129 0.77294922 70.8137207 C0.7473944 74.15642744 0.7473944 74.15642744 3 77 C6.08371679 77.54844864 6.08371679 77.54844864 9.5625 77.625 C15.91733639 77.91733639 15.91733639 77.91733639 17 79 C17.07319621 81.69654854 17.09242537 84.36691458 17.0625 87.0625 C17.05798828 87.82111328 17.05347656 88.57972656 17.04882812 89.36132812 C17.0370068 91.24091871 17.01907078 93.12046899 17 95 C12.3889532 96.14583127 7.90914296 96.2188083 3.1875 96.25 C2.41857422 96.270625 1.64964844 96.29125 0.85742188 96.3125 C-4.53871738 96.34892963 -9.24096166 95.68202685 -14 93 C-16.05859375 90.80859375 -16.05859375 90.80859375 -17.4375 88.4375 C-17.91058594 87.65246094 -18.38367188 86.86742187 -18.87109375 86.05859375 C-21.05099722 82.08347565 -21.141826 79.02593091 -21.12939453 74.55273438 C-21.13114685 73.78512283 -21.13289917 73.01751129 -21.13470459 72.22663879 C-21.13911572 69.68231972 -21.1361877 67.13806982 -21.1328125 64.59375 C-21.13348575 62.83020006 -21.13445595 61.06665021 -21.13571167 59.30310059 C-21.13718764 55.60423907 -21.13503731 51.90540168 -21.13037109 48.20654297 C-21.12467387 43.45820953 -21.12795341 38.70993262 -21.13394356 33.96160126 C-21.13755188 30.31914848 -21.13640933 26.67670916 -21.13381577 23.03425598 C-21.13314725 21.28310642 -21.13397231 19.53195564 -21.13629532 17.7808075 C-21.13882626 15.33626045 -21.13497498 12.89180577 -21.12939453 10.44726562 C-21.13141876 9.71888992 -21.13344299 8.99051422 -21.13552856 8.24006653 C-21.11426443 3.22852887 -21.11426443 3.22852887 -20 1 C-17.05078125 0.33203125 -17.05078125 0.33203125 -13.3125 -0.1875 C-12.09175781 -0.36667969 -10.87101563 -0.54585937 -9.61328125 -0.73046875 C-6.14716079 -0.9890226 -3.37197345 -0.7937029 0 0 Z " fill="#FEFEFE" transform="translate(810,42)"/>
</svg>
