<?xml version="1.0" encoding="UTF-8"?>
<svg version="1.1" xmlns="http://www.w3.org/2000/svg" width="512" height="512">
<path d="M0 0 C0.77267166 -0.00205263 1.54534331 -0.00410527 2.34142926 -0.0062201 C4.93986139 -0.01189072 7.53824052 -0.01043277 10.13667774 -0.00901413 C12.01477568 -0.01159773 13.89287307 -0.01461087 15.77096969 -0.01801753 C20.93948721 -0.02609138 26.10799085 -0.02787732 31.27651393 -0.028615 C36.84790697 -0.03046488 42.41929278 -0.03801187 47.99068165 -0.04475021 C60.17661781 -0.05833668 72.36255068 -0.06435871 84.54849315 -0.06876087 C92.15605251 -0.0715227 99.76361059 -0.07575994 107.37116909 -0.08026505 C128.43036505 -0.092458 149.48956017 -0.10279272 170.54875946 -0.10614014 C171.91041553 -0.10636177 173.27207159 -0.10658355 174.63372766 -0.10680549 C175.99865815 -0.10702613 177.36358865 -0.10724661 178.72851914 -0.10746694 C181.46677029 -0.10790949 184.20502144 -0.1083566 186.94327259 -0.10880661 C187.62219884 -0.108916 188.30112508 -0.10902539 189.00062485 -0.1091381 C211.01415209 -0.11276862 233.0276464 -0.12868881 255.04116103 -0.15199697 C278.31897999 -0.17659871 301.59677758 -0.19030641 324.87461215 -0.19150805 C337.5622124 -0.19242512 350.24976953 -0.19818542 362.9373579 -0.21632767 C373.74063779 -0.23172097 384.54386122 -0.23685364 395.34714999 -0.22858956 C400.85921643 -0.22468039 406.37116915 -0.22562584 411.88322163 -0.23964691 C416.93094885 -0.25236947 421.97847673 -0.25120267 427.02620361 -0.2390562 C428.8505826 -0.23709637 430.67497564 -0.24019084 432.49933489 -0.24890056 C446.72958619 -0.31252682 457.28705367 0.62753731 467.97867298 10.72517776 C476.10529845 19.33940076 476.87616651 29.09485767 476.79910755 40.47810745 C476.8037234 41.91504802 476.8100809 43.35198385 476.81801653 44.78890991 C476.83463925 48.71488805 476.82649594 52.64047481 476.81407166 56.56645393 C476.80499439 60.80920752 476.81900412 65.05189539 476.82999134 69.29463577 C476.84775266 77.59722678 476.84394724 85.89967293 476.83234078 94.20226955 C476.82329732 100.95157622 476.8220864 107.70084236 476.82643604 114.45015335 C476.82704897 115.41173693 476.82766191 116.37332052 476.82829341 117.364043 C476.82957235 119.31764636 476.8308692 121.2712497 476.83218378 123.22485304 C476.84358258 141.53219998 476.83048685 159.83946673 476.80898231 178.14680052 C476.79111197 193.8461435 476.79421628 209.54536817 476.81265736 225.24470901 C476.83407642 243.48775174 476.84248401 261.73072423 476.8302083 279.97377777 C476.82893414 281.9200859 476.82767666 283.86639403 476.82643604 285.81270218 C476.82581894 286.77025555 476.82520184 287.72780893 476.82456604 288.71437907 C476.82111625 295.45346946 476.82693348 302.19251519 476.83635426 308.93159866 C476.84758712 317.14733363 476.84450712 325.36291579 476.82323128 333.57863331 C476.81273818 337.76827845 476.8085692 341.95766905 476.82182789 346.14731216 C476.83379391 349.98662493 476.82712059 353.82544848 476.80591768 357.6647172 C476.79937076 359.70280934 476.81234997 361.74093574 476.8261466 363.7789917 C476.7353932 374.44533452 474.57263492 382.56552708 467.13492298 390.38142776 C456.28301905 400.68153997 444.08891885 400.56936543 429.84439564 400.51237869 C427.96198029 400.51583811 426.07956697 400.52060459 424.19715786 400.52656043 C419.0398844 400.53906092 413.88277791 400.53290431 408.72550392 400.52360177 C403.1575995 400.51680776 397.58972358 400.52729427 392.02182484 400.53554153 C381.12040585 400.54887727 370.21904884 400.54600182 359.31762743 400.53730361 C350.45734333 400.53052686 341.5970766 400.52961031 332.73679066 400.53287506 C331.47546806 400.53333476 330.21414546 400.53379446 328.91460097 400.53426809 C326.35220162 400.53522727 323.78980227 400.53619991 321.22740293 400.53718586 C297.88785614 400.54549549 274.54834909 400.53687992 251.20881 400.52115807 C229.91267852 400.50692176 208.61660087 400.50819567 187.32046986 400.52254105 C163.38176521 400.53861269 139.44309418 400.54491532 115.50438213 400.53570426 C112.95143986 400.53474861 110.39849759 400.5338055 107.84555531 400.53287506 C106.58947802 400.53241223 105.33340074 400.53194941 104.03926051 400.53147256 C95.19022023 400.52888292 86.34119906 400.53325311 77.49216175 400.54031372 C66.7072935 400.54872982 55.92249074 400.54644621 45.13762999 400.53047149 C39.63566101 400.52259032 34.13380123 400.51949466 28.63183308 400.52941895 C23.59354762 400.53836937 18.55547239 400.53342708 13.51720595 400.51748629 C11.69634513 400.51413999 9.87546649 400.51582915 8.05461717 400.52311365 C-6.16235517 400.57561949 -16.71537073 399.62524759 -27.39632702 389.53767776 C-35.51675898 380.93001989 -36.29827998 371.11938946 -36.23021984 359.76024246 C-36.2362701 358.32060086 -36.24405269 356.88096569 -36.25340497 355.44134176 C-36.27388995 351.50784121 -36.26962091 347.57470676 -36.26104379 343.6411767 C-36.25609557 339.39019159 -36.27415455 335.13929307 -36.28911877 330.88834 C-36.3145787 322.56904968 -36.31820446 314.24988857 -36.31351824 305.93056585 C-36.30994788 299.16649504 -36.31345976 292.40246335 -36.32196712 285.63839722 C-36.3231575 284.67461572 -36.32434788 283.71083422 -36.32557433 282.71784722 C-36.32799791 280.75973833 -36.33042618 278.80162945 -36.33285908 276.84352057 C-36.35459691 258.49272373 -36.35029126 240.14200046 -36.33808939 221.79119949 C-36.32775148 205.01597986 -36.35026297 188.24099252 -36.38828583 171.46581884 C-36.42706134 154.22595314 -36.44355141 136.98619728 -36.43603933 119.7462877 C-36.43221815 110.07341832 -36.43716238 100.40074664 -36.46546841 90.7279129 C-36.48932196 82.49352202 -36.49207714 74.25945056 -36.46788807 66.02505518 C-36.45612851 61.826939 -36.45385992 57.62940667 -36.47789288 53.43132973 C-36.49967343 49.58184831 -36.49333328 45.73343596 -36.46536951 41.88400392 C-36.45760868 39.84538075 -36.47912031 37.80670953 -36.50196326 35.76819956 C-36.38005361 25.3355207 -33.43200045 17.0639706 -26.45882702 9.19392776 C-18.73766739 2.17625157 -10.17526235 -0.02516089 0 0 Z " fill="#AF5A35" transform="translate(35.70882701873779,55.86857223510742)"/>
<path d="M0 0 C1.36010579 -0.00128164 1.36010579 -0.00128164 2.74768847 -0.00258917 C5.78629544 -0.00423641 8.82484721 0.00126508 11.8634491 0.00672913 C14.04149881 0.00701119 16.21954861 0.00685289 18.39759827 0.00628662 C24.31241112 0.00599938 30.22720374 0.01188428 36.14201188 0.01886058 C42.32265003 0.02510631 48.50328863 0.02569888 54.68392944 0.02688599 C66.3887446 0.02999569 78.09355043 0.03820425 89.79836148 0.04823548 C99.15290188 0.05613498 108.50744128 0.06159279 117.86198425 0.06532288 C118.52751243 0.06559087 119.19304062 0.06585887 119.87873632 0.06613499 C125.66803439 0.06844789 131.45733253 0.07060066 137.24663067 0.07273769 C162.16733169 0.08214436 187.08801303 0.1020657 212.00871277 0.12025452 C212.00871277 40.71025452 212.00871277 81.30025452 212.00871277 123.12025452 C152.00871277 123.12025452 152.00871277 123.12025452 135.71965027 112.65541077 C132.17337948 108.75171872 128.92421778 105.07417079 125.75444031 100.92756653 C123.4012855 97.93221359 120.85161743 95.11263154 118.31730652 92.27064514 C113.93844472 87.3199525 109.74845914 82.26376564 105.66773987 77.06277466 C104.147492 75.02727028 104.147492 75.02727028 102.00871277 74.12025452 C100.18448296 74.01491243 98.35642202 73.97364287 96.52919006 73.96203613 C95.36528748 73.95224731 94.20138489 73.9424585 93.00221252 73.93237305 C91.71900116 73.92661758 90.43578979 73.92086212 89.11369324 73.91493225 C87.75380656 73.90535587 86.39392289 73.89534594 85.03404236 73.88493347 C81.33595073 73.85785225 77.6378463 73.83686014 73.93971014 73.81693149 C70.07728067 73.79509174 66.21489082 73.76769323 62.35249329 73.74087524 C55.0356427 73.6909211 47.71877016 73.64599239 40.40187657 73.60285288 C32.07306291 73.55350374 23.74428899 73.49857701 15.41551375 73.44317329 C-1.7200501 73.32931147 -18.85565134 73.22267945 -35.99128723 73.12025452 C-35.99128723 77.41025452 -35.99128723 81.70025452 -35.99128723 86.12025452 C-34.42498062 86.020327 -32.85867401 85.92039948 -31.24490356 85.81744385 C-16.26674313 84.89332982 -1.2993626 84.22274374 13.70030499 83.78870678 C21.40886899 83.55956256 29.09555015 83.24851099 36.79020691 82.72547913 C65.82421653 80.79607873 94.58791511 79.29877931 117.83728027 99.39181519 C119.3632225 100.77043878 120.87205327 102.16474941 122.37249017 103.57106996 C123.79337825 104.87748596 125.26999861 106.12247048 126.74751854 107.36447716 C135.28851633 114.84047025 136.64104151 119.67067327 142.00871277 131.12025452 C142.00871277 151.58025452 142.00871277 172.04025452 142.00871277 193.12025452 C82.93871277 193.12025452 23.86871277 193.12025452 -36.99128723 193.12025452 C-37.11503723 165.64775452 -37.23878723 138.17525452 -37.36628723 109.87025452 C-37.42091125 101.20872131 -37.47553528 92.54718811 -37.53181458 83.6231842 C-37.55891418 73.01332092 -37.55891418 73.01332092 -37.56394958 68.03999329 C-37.56952005 64.58028383 -37.59192512 61.12113164 -37.6247406 57.66157532 C-37.66614506 53.23736671 -37.6781891 48.8139589 -37.66972089 44.38957453 C-37.67148945 42.77294117 -37.68324084 41.15627748 -37.70657802 39.53981161 C-37.86940167 27.70406766 -35.81649642 18.34243221 -27.74128723 9.18275452 C-19.55645376 1.74365032 -10.65367657 -0.03671025 0 0 Z " fill="#FEC638" transform="translate(36.99128723144531,55.87974548339844)"/>
<path d="M0 0 C61 0 61 0 72.82421875 10.68359375 C74.81971577 14.05823183 76.81402777 17.43618757 78.66653442 20.89138794 C85.56769289 33.38531539 96.30633793 44.34137589 110 49 C133.24503005 54.3233118 158.38162996 53.0142873 182.0625 52.5625 C182.86859066 52.54768632 183.67468131 52.53287265 184.50519896 52.51761007 C205.69301286 52.11884327 226.84650859 51.2708385 248 50 C248 48.35 248 46.7 248 45 C248.33 45 248.66 45 249 45 C249.10194982 52.22236996 249.17169539 59.4445523 249.21972656 66.66748047 C249.23976324 69.12132706 249.26700032 71.57512637 249.30175781 74.02880859 C249.35062498 77.56880403 249.3730492 81.10816468 249.390625 84.6484375 C249.41127014 85.73426117 249.43191528 86.82008484 249.45318604 87.93881226 C249.4561171 98.03152949 246.8418403 105.8960746 239.84375 113.25 C231.62445482 121.05136491 222.62629083 123.47876981 211.40744019 123.36076355 C210.04092621 123.36460846 210.04092621 123.36460846 208.64680588 123.36853105 C205.62356384 123.37343451 202.600832 123.35703316 199.57763672 123.34057617 C197.39884961 123.33972916 195.22006164 123.3402065 193.04127502 123.34190369 C187.14735142 123.34276215 181.25361209 123.32516037 175.3597312 123.30418181 C169.19247727 123.28539024 163.02521882 123.28366261 156.85794067 123.28010559 C145.18867187 123.27079243 133.51948768 123.24618845 121.85025609 123.21605712 C106.07502218 123.1762104 90.29976999 123.16005236 74.52449799 123.14255047 C49.68293531 123.1143669 24.84155118 123.05459237 0 123 C0 82.41 0 41.82 0 0 Z " fill="#FEB32E" transform="translate(263,333)"/>
<path d="M0 0 C55.01811982 -0.1209091 55.01811982 -0.1209091 78.0703125 -0.14648438 C93.98831453 -0.1642864 109.90625752 -0.18521632 125.82421875 -0.22631836 C137.41709019 -0.25623822 149.00992298 -0.27557919 160.60283196 -0.28226548 C166.74007013 -0.28617332 172.87719777 -0.29534553 179.01440048 -0.31719017 C184.7943761 -0.33759606 190.57419595 -0.34382544 196.35420418 -0.33932304 C198.4721378 -0.3401464 200.5900768 -0.34608746 202.7079792 -0.35761642 C205.60798868 -0.37262466 208.50741619 -0.36892324 211.40744019 -0.36076355 C212.23821134 -0.36950207 213.0689825 -0.3782406 213.92492855 -0.38724393 C224.82581072 -0.30479593 232.83085976 3.17358978 240.6875 10.59375 C248.18618727 18.54235851 249.59578321 27.55995891 249.390625 38.1328125 C249.38496521 39.25066132 249.37930542 40.36851013 249.37347412 41.52023315 C249.3512622 45.05560961 249.30109311 48.58993504 249.25 52.125 C249.22991543 54.53644359 249.21166811 56.94790323 249.1953125 59.359375 C249.15144736 65.23993588 249.08468875 71.11989282 249 77 C248.67 75.68 248.34 74.36 248 73 C226.03179018 71.68021565 204.06613575 70.84186485 182.0625 70.4375 C181.25884144 70.42216768 180.45518289 70.40683536 179.62717104 70.39103842 C131.75644222 67.49757474 131.75644222 67.49757474 90.37892723 86.59293556 C84.71386247 92.31011665 80.57136944 98.55581153 76.78344727 105.62084961 C72.82421875 112.31640625 72.82421875 112.31640625 61 123 C40.87 123 20.74 123 0 123 C0 82.41 0 41.82 0 0 Z " fill="#FEB32E" transform="translate(263,56)"/>
<path d="M0 0 C0 40.59 0 81.18 0 123 C-55.01811982 123.1209091 -55.01811982 123.1209091 -78.0703125 123.14648438 C-93.98831453 123.1642864 -109.90625752 123.18521632 -125.82421875 123.22631836 C-137.41709019 123.25623822 -149.00992298 123.27557919 -160.60283196 123.28226548 C-166.74007013 123.28617332 -172.87719777 123.29534553 -179.01440048 123.31719017 C-184.7943761 123.33759606 -190.57419595 123.34382544 -196.35420418 123.33932304 C-198.4721378 123.3401464 -200.5900768 123.34608746 -202.7079792 123.35761642 C-205.60798868 123.37262466 -208.50741619 123.36892324 -211.40744019 123.36076355 C-212.23821134 123.36950207 -213.0689825 123.3782406 -213.92492855 123.38724393 C-224.82581072 123.30479593 -232.83085976 119.82641022 -240.6875 112.40625 C-248.318832 104.31703808 -249.59086433 95.17335807 -249.390625 84.4296875 C-249.38496521 83.26744659 -249.37930542 82.10520569 -249.37347412 80.90774536 C-249.3512512 77.22972789 -249.30107942 73.55271838 -249.25 69.875 C-249.22991688 67.36720166 -249.21166931 64.85938791 -249.1953125 62.3515625 C-249.15143262 56.23403653 -249.08466229 50.11709031 -249 44 C-248.67 44 -248.34 44 -248 44 C-248 45.98 -248 47.96 -248 50 C-230.14502155 50.03294833 -212.29052504 50.02590046 -194.43560028 49.97153378 C-186.14477814 49.94721648 -177.85432109 49.93587555 -169.56347656 49.95532227 C-162.33521032 49.97224345 -155.10745485 49.96457327 -147.87925577 49.92765242 C-144.05350728 49.90896231 -140.22862214 49.90239772 -136.40287781 49.92530632 C-132.79743409 49.94650658 -129.19356721 49.93468029 -125.58826065 49.89815521 C-123.6431761 49.88686358 -121.69798574 49.91001996 -119.75302124 49.93440247 C-113.90816308 49.84446303 -109.94511127 49.60910085 -105.38970947 45.73522949 C-104.22341701 44.52417271 -103.08801452 43.28184283 -102 42 C-101.28958557 41.19603287 -100.57917114 40.39206573 -99.847229 39.56373596 C-99.2998407 38.83315475 -98.75245239 38.10257355 -98.18847656 37.34985352 C-94.53117055 32.59673987 -90.68589258 28.05045263 -86.74804688 23.52758789 C-85.11435654 21.58845877 -83.538101 19.59907067 -82.03125 17.55981445 C-60.99344414 -10.61945609 -35.9661384 0 0 0 Z " fill="#FEC638" transform="translate(249,333)"/>
<path d="M0 0 C59.07 0 118.14 0 179 0 C179 61 179 61 164.4375 79.3125 C156.24609375 85.80078125 156.24609375 85.80078125 152.35888672 88.54150391 C147.49980003 91.9846537 143.99370771 96.3709295 140.41797638 101.08618927 C137.61849689 104.37347583 135.39604047 106.64782824 131.13314819 107.72320557 C127.66135939 107.98375869 124.27175752 107.98997964 120.79101562 107.90820312 C119.48286896 107.90937134 118.17472229 107.91053955 116.82693481 107.91174316 C113.26051303 107.91402738 109.69626828 107.8671854 106.13035011 107.8111515 C102.3962182 107.76094866 98.66202962 107.75642673 94.9276123 107.74694824 C87.86545634 107.72213884 80.80429779 107.65656752 73.74257994 107.57615232 C64.19355155 107.46978659 54.64424804 107.42678514 45.09477615 107.38013458 C30.06243782 107.30503721 15.0322037 107.14562953 0 107 C0 71.69 0 36.38 0 0 Z " fill="#FEC638" transform="translate(0,263)"/>
<path d="M0 0 C59.07 0 118.14 0 179 0 C179 34.98 179 69.96 179 106 C147.20986223 107.81363654 147.20986223 107.81363654 133.56445312 108.19726562 C124.24641169 108.46138923 114.94734525 108.76754737 105.64575195 109.39477539 C76.47130851 111.31819289 47.48694181 112.90509586 24.13737488 92.67961121 C22.61173742 91.29805468 21.1035052 89.90064538 19.60389876 88.49089599 C18.18343063 87.17983286 16.7084042 85.92865707 15.23249245 84.68033791 C6.75592575 77.21436944 5.34848149 72.36510348 0 61 C0 40.87 0 20.74 0 0 Z " fill="#FEB32E" transform="translate(333,263)"/>
<path d="M0 0 C9.23830844 0.61196512 18.4873234 0.8428409 27.74094498 1.10299861 C42.21225132 1.51927395 56.61049266 2.41590306 71.07759869 3.24125564 C71.07759869 38.22125564 71.07759869 73.20125564 71.07759869 109.24125564 C12.00759869 109.24125564 -47.06240131 109.24125564 -107.92240131 109.24125564 C-107.92240131 40.61194192 -107.92240131 40.61194192 -95.47615802 27.01498306 C-93.59603329 25.35901166 -91.69862112 23.72249126 -89.78568256 22.10453689 C-88.79733017 21.19230779 -87.81327394 20.27540456 -86.83331478 19.35416496 C-61.97531464 -3.68466807 -31.94037272 -2.15381346 0 0 Z " fill="#FEB32E" transform="translate(440.92240130901337,139.75874435901642)"/>
<path d="M0 0 C41.58 0 83.16 0 126 0 C126 41.58 126 83.16 126 126 C84.42 126 42.84 126 0 126 C0 84.42 0 42.84 0 0 Z " fill="#FFB42E" transform="translate(193,193)"/>
<path d="M0 0 C4.62 0 9.24 0 14 0 C14 0.33 14 0.66 14 1 C11.69 1 9.38 1 7 1 C7 45.55 7 90.1 7 136 C27.79 136 48.58 136 70 136 C70 136.33 70 136.66 70 137 C28.42 137 -13.16 137 -56 137 C-56 178.58 -56 220.16 -56 263 C-35.21 263 -14.42 263 7 263 C7 307.88 7 352.76 7 399 C9.31 399 11.62 399 14 399 C14 399.33 14 399.66 14 400 C9.38 400 4.76 400 0 400 C0 359.41 0 318.82 0 277 C-54.84363011 272.61247829 -54.84363011 272.61247829 -76.2890625 288.5625 C-79.83079527 292.4553829 -83.08262499 296.12845863 -86.25427246 300.26135254 C-88.60937762 303.24859652 -91.15804322 306.06248032 -93.69140625 308.8984375 C-98.06747872 313.83661185 -102.25824819 318.87911595 -106.3409729 324.06420898 C-108 326 -108 326 -110 327 C-111.82455351 327.09349437 -113.65257609 327.12191236 -115.47952271 327.12025452 C-116.64342529 327.12162918 -117.80732788 327.12300385 -119.00650024 327.12442017 C-120.28971161 327.12082489 -121.57292297 327.11722961 -122.89501953 327.11352539 C-124.25490314 327.11324343 -125.61478689 327.11340143 -126.97467041 327.1139679 C-130.6727944 327.11425552 -134.37088615 327.10836435 -138.06900263 327.10139394 C-141.9314066 327.09515468 -145.79381125 327.09455615 -149.65621948 327.09336853 C-156.97309887 327.09025691 -164.28996337 327.08204579 -171.6068362 327.07201904 C-179.9356217 327.06085267 -188.2644079 327.05534613 -196.59319901 327.05032361 C-213.72880821 327.03986304 -230.86440196 327.02206609 -248 327 C-248.495 320.565 -248.495 320.565 -249 314 C-247.35010574 314.01633987 -245.70021149 314.03267975 -244.00032043 314.04951477 C-228.41979185 314.19528392 -212.84045947 314.27296622 -197.25926685 314.28240681 C-189.24943333 314.28898661 -181.24107257 314.31957117 -173.23168945 314.40795898 C-166.24527121 314.48499552 -159.26039561 314.51567646 -152.27356642 314.49218339 C-148.5780327 314.48133699 -144.8857546 314.49268521 -141.1907444 314.55968666 C-123.6519036 315.58666192 -123.6519036 315.58666192 -108.45465374 308.45378399 C-105.98832355 305.78485523 -104.00225423 303.03847502 -102 300 C-100.8365527 298.56351611 -99.66146719 297.13610884 -98.4609375 295.73046875 C-97.93854492 295.1070459 -97.41615234 294.48362305 -96.87792969 293.84130859 C-94.50704728 291.51666024 -91.89631902 289.90382165 -89.1015625 288.11328125 C-80.86331829 282.47458209 -80.86331829 282.47458209 -71 268 C-70.505 237.805 -70.505 237.805 -70 207 C-129.07 207 -188.14 207 -249 207 C-249 202.38 -249 197.76 -249 193 C-189.93 193 -130.86 193 -70 193 C-66.01325078 146.9957273 -66.01325078 146.9957273 -83.20709229 110.06390381 C-85.03312356 108.46637296 -86.87613799 106.888077 -88.734375 105.328125 C-89.68324333 104.44719429 -90.63211166 103.56626358 -91.60973358 102.658638 C-112.56610139 83.29225768 -136.48915956 81.76916808 -163.90505695 82.68788242 C-168.40789226 82.86775929 -172.9063252 83.12291749 -177.40499353 83.3853879 C-185.12418534 83.82681068 -192.84365984 84.00021342 -200.57300234 84.15900373 C-216.3991483 84.48975231 -232.19315686 85.14160976 -248 86 C-248 81.71 -248 77.42 -248 73 C-230.1453083 72.83780212 -212.29087025 72.71295953 -194.43560028 72.6373148 C-186.14463689 72.60125442 -177.85414029 72.55211148 -169.56347656 72.47192383 C-162.33539972 72.40204702 -155.10766101 72.35696746 -147.87925577 72.34138054 C-144.05337052 72.33227208 -140.22845237 72.31094153 -136.40287781 72.2598896 C-132.79764739 72.21217055 -129.1937769 72.19775911 -125.58826065 72.20824623 C-123.64300381 72.20541939 -121.69789323 72.16785475 -119.75302124 72.12905884 C-113.90178597 72.17709395 -109.95160151 72.37999904 -105.38970947 76.26002502 C-104.22339159 77.47268356 -103.08798939 78.71659936 -102 80 C-101.28958557 80.80174652 -100.57917114 81.60349304 -99.847229 82.42953491 C-99.2998407 83.15709991 -98.75245239 83.88466492 -98.18847656 84.63427734 C-94.52874242 89.37227817 -90.68368139 93.90657984 -86.74804688 98.41748047 C-85.11537362 100.35045582 -83.53911572 102.33291031 -82.03125 104.36474609 C-75.27196494 113.38059705 -70.69282125 115.45418297 -60 122 C-30.3 122.495 -30.3 122.495 0 123 C0 82.41 0 41.82 0 0 Z " fill="#C76E4D" transform="translate(249,56)"/>
<path d="M0 0 C20.79 0 41.58 0 63 0 C63 41.58 63 83.16 63 126 C42.21 126 21.42 126 0 126 C0 84.42 0 42.84 0 0 Z " fill="#FFC637" transform="translate(193,193)"/>
</svg>
