<?xml version="1.0" encoding="UTF-8"?>
<svg version="1.1" xmlns="http://www.w3.org/2000/svg" width="1024" height="1024">
<path d="M0 0 C8.91309685 6.78170412 13.95121076 15.75362277 18 26 C18 27.32 18 28.64 18 30 C19.485 30.495 19.485 30.495 21 31 C21.495 34.465 21.495 34.465 22 38 C22.66 38 23.32 38 24 38 C24.34611328 38.90878906 24.34611328 38.90878906 24.69921875 39.8359375 C26.42178551 44.26150428 28.2294417 48.54350919 30.4375 52.75 C33.0418689 57.83130691 34.88098689 63.08219787 36.7421875 68.47265625 C37.93156244 71.80807729 39.23888112 75.05470564 40.625 78.3125 C42.67673819 83.14276765 44.42240742 87.99763367 46 93 C46.350625 94.051875 46.70125 95.10375 47.0625 96.1875 C47.371875 97.115625 47.68125 98.04375 48 99 C48.556875 100.5159375 48.556875 100.5159375 49.125 102.0625 C49.96844334 104.89405977 50.17237553 107.06961603 50 110 C50.66 110 51.32 110 52 110 C52.19335938 110.83144531 52.38671875 111.66289062 52.5859375 112.51953125 C52.84632813 113.60621094 53.10671875 114.69289063 53.375 115.8125 C53.63023437 116.89144531 53.88546875 117.97039062 54.1484375 119.08203125 C54.88732881 122.15533343 54.88732881 122.15533343 57 125 C59.7060654 132.51563103 61.56559421 140.2342862 63.28515625 148.0234375 C63.89369155 150.5573386 64.61574919 152.92842004 65.5 155.375 C67.11150668 159.94093558 67.977402 164.60184244 68.87280273 169.35327148 C69.59175099 173.11916854 70.46072573 176.76676462 71.5625 180.4375 C73.10502444 185.7640297 73.73461185 191.10263795 74.26586914 196.60717773 C74.63425582 200.14621245 74.98293041 201.97439562 77 205 C77.37890625 207.14477539 77.37890625 207.14477539 77.5625 209.59765625 C77.67464844 210.92313477 77.67464844 210.92313477 77.7890625 212.27539062 C77.92998146 214.13734757 78.07060524 215.99932687 78.2109375 217.86132812 C78.28570313 218.74369141 78.36046875 219.62605469 78.4375 220.53515625 C78.49808594 221.343479 78.55867187 222.15180176 78.62109375 222.98461914 C78.84542532 225.22161162 78.84542532 225.22161162 81 227 C81.37890625 229.45849609 81.37890625 229.45849609 81.5625 232.5234375 C81.63726563 233.626875 81.71203125 234.7303125 81.7890625 235.8671875 C81.89347656 237.60355469 81.89347656 237.60355469 82 239.375 C82.13797455 241.65413519 82.28350198 243.9328289 82.4375 246.2109375 C82.49808594 247.22462402 82.55867187 248.23831055 82.62109375 249.28271484 C82.99734135 251.98093376 83.73046504 253.62742133 85 256 C85.26560549 258.34663816 85.44592701 260.70375718 85.5625 263.0625 C85.80469755 268.12041668 85.80469755 268.12041668 87 273 C87.13440466 274.4564546 87.2235691 275.91740102 87.28125 277.37890625 C87.31863281 278.21744141 87.35601563 279.05597656 87.39453125 279.91992188 C87.46499941 281.68554067 87.53531122 283.45116571 87.60546875 285.21679688 C87.64285156 286.05404297 87.68023438 286.89128906 87.71875 287.75390625 C87.74904297 288.52033447 87.77933594 289.2867627 87.81054688 290.07641602 C87.892459 292.08274513 87.892459 292.08274513 89 294 C89.14350996 296.3490509 89.22662165 298.70189108 89.28125 301.0546875 C89.29965942 301.75264435 89.31806885 302.4506012 89.33703613 303.16970825 C89.39582675 305.40471922 89.4485997 307.63980759 89.5 309.875 C89.56781484 312.81005151 89.6415524 315.74486955 89.71875 318.6796875 C89.74904297 319.98663574 89.77933594 321.29358398 89.81054688 322.64013672 C89.87220321 325.78056862 89.87220321 325.78056862 90.50375366 327.86903381 C91.10473371 330.44974436 91.12719614 332.80502599 91.12939453 335.45532227 C91.13254669 336.54647842 91.13569885 337.63763458 91.13894653 338.76185608 C91.13591019 340.52135841 91.13591019 340.52135841 91.1328125 342.31640625 C91.13376923 343.52441391 91.13472595 344.73242157 91.13571167 345.97703552 C91.13639201 348.52985689 91.13454788 351.08268 91.13037109 353.63549805 C91.1250162 357.55065783 91.13032345 361.46570314 91.13671875 365.38085938 C91.13605803 367.85937525 91.13477701 370.33789106 91.1328125 372.81640625 C91.13483673 373.99143204 91.13686096 375.16645782 91.13894653 376.37709045 C91.13421829 378.00909645 91.13421829 378.00909645 91.12939453 379.67407227 C91.12859894 380.6324147 91.12780334 381.59075714 91.12698364 382.57814026 C91 385 91 385 90 388 C89.85962831 390.39355431 89.77435712 392.79047804 89.71875 395.1875 C89.69113586 396.23587036 89.69113586 396.23587036 89.66296387 397.30541992 C89.60429415 399.53686229 89.55143976 401.76837996 89.5 404 C89.43228574 406.93765983 89.3586218 409.87508043 89.28125 412.8125 C89.25095703 414.11832031 89.22066406 415.42414063 89.18945312 416.76953125 C89 420 89 420 88 423 C87.86559534 424.4564546 87.7764309 425.91740102 87.71875 427.37890625 C87.66267578 428.63670898 87.66267578 428.63670898 87.60546875 429.91992188 C87.53500059 431.68554067 87.46468878 433.45116571 87.39453125 435.21679688 C87.35714844 436.05404297 87.31976562 436.89128906 87.28125 437.75390625 C87.25095703 438.52033447 87.22066406 439.2867627 87.18945312 440.07641602 C87 442 87 442 86 444 C85.76874318 447.16785131 85.60551721 450.32849544 85.48242188 453.50195312 C85.29284358 457.15401807 85.07639343 458.88540985 83 462 C82.55669453 464.6756748 82.55669453 464.6756748 82.40234375 467.69140625 C82.32306641 468.80064453 82.24378906 469.90988281 82.16210938 471.05273438 C82.08798828 472.21095703 82.01386719 473.36917969 81.9375 474.5625 C81.78360136 476.85571686 81.62622652 479.14870393 81.46484375 481.44140625 C81.36610962 482.96809937 81.36610962 482.96809937 81.26538086 484.52563477 C81 487 81 487 80 489 C79.34 489 78.68 489 78 489 C78.01740234 489.92619141 78.01740234 489.92619141 78.03515625 490.87109375 C78.19850187 506.20224719 78.19850187 506.20224719 75 511 C74.63494148 513.34390751 74.35659327 515.70166653 74.125 518.0625 C73.11598326 527.21707181 71.15513056 536.05591401 69 545 C68.82678223 545.72848145 68.65356445 546.45696289 68.47509766 547.20751953 C66.81559268 554.16305074 65.10554022 561.05078992 62.7109375 567.796875 C61.83834464 570.50095397 61.20896172 573.2334219 60.5625 576 C59.66173714 579.75001803 58.61405871 583.09140252 56.9375 586.5625 C54.56330783 591.51100781 53.76719055 596.59938228 53 602 C52.01 602.33 51.02 602.66 50 603 C49.92652344 603.92232422 49.92652344 603.92232422 49.8515625 604.86328125 C49.77679687 605.67152344 49.70203125 606.47976563 49.625 607.3125 C49.52058594 608.51326172 49.52058594 608.51326172 49.4140625 609.73828125 C49 612 49 612 47 615 C46.4851786 616.89704367 46.4851786 616.89704367 46.14453125 618.984375 C44.96454943 624.66942858 42.86113445 629.88099808 40.6875 635.25 C39.87335342 637.29152932 39.05954884 639.33319506 38.24609375 641.375 C37.85663574 642.34695313 37.46717773 643.31890625 37.06591797 644.3203125 C35.75482745 647.61635682 34.49899925 650.92997644 33.25 654.25 C30.71707525 660.85307279 28.12125006 667.5379104 24.41796875 673.58203125 C22.65471353 676.58879429 21.94580639 679.65815074 21 683 C20.34 683.66 19.68 684.32 19 685 C18.369954 686.64957497 17.79405781 688.32010219 17.25 690 C13.05602835 701.83907125 6.07787339 712.45686769 -5.05859375 718.6796875 C-18.40053068 724.6684985 -31.14994897 725.72252883 -45.03173828 720.83544922 C-48.50714361 719.36027717 -51.55382014 717.36683517 -54.625 715.1875 C-55.1924292 714.78547363 -55.7598584 714.38344727 -56.34448242 713.96923828 C-61.39576985 710.13524689 -65.72834781 704.98890123 -68 699 C-68 697.68 -68 696.36 -68 695 C-68.66 695 -69.32 695 -70 695 C-75.27971117 679.09647976 -72.15476566 664.26655151 -65.18945312 649.51904297 C-63.96955787 646.93552917 -62.79989162 644.33388989 -61.640625 641.72265625 C-60.12277395 638.31018487 -58.58955911 634.90557253 -57.0390625 631.5078125 C-54.56084909 626.05846881 -52.24186166 620.55048277 -50 615 C-49.46439453 613.68128906 -49.46439453 613.68128906 -48.91796875 612.3359375 C-46.86743947 607.25185367 -44.89334185 602.14453492 -43 597 C-42.70351563 596.20335937 -42.40703125 595.40671875 -42.1015625 594.5859375 C-37.9405185 583.30118618 -34.19108852 571.96279499 -31.0246582 560.36328125 C-29.16035344 553.53694583 -27.21927648 546.73427393 -25.25 539.9375 C-24.94400879 538.87152588 -24.63801758 537.80555176 -24.32275391 536.70727539 C-24.03577637 535.71977295 -23.74879883 534.73227051 -23.453125 533.71484375 C-23.06882324 532.38634399 -23.06882324 532.38634399 -22.67675781 531.03100586 C-22 529 -22 529 -21 528 C-20.4605275 524.70876442 -20.0338661 521.40795985 -19.59765625 518.1015625 C-19 515 -19 515 -17 512 C-16.59778203 509.90790794 -16.27294016 507.80034929 -16 505.6875 C-15.56716042 502.36004571 -15.11838399 499.34469234 -14.02734375 496.16796875 C-12.68569106 492.03078119 -12.13753244 487.92682496 -11.5625 483.625 C-11.43762207 482.72539551 -11.31274414 481.82579102 -11.18408203 480.89892578 C-10.03528519 472.52174431 -8.99843672 464.12950596 -8.00219727 455.73291016 C-7.88545654 454.76659668 -7.76871582 453.8002832 -7.6484375 452.8046875 C-7.49640869 451.52053955 -7.49640869 451.52053955 -7.34130859 450.21044922 C-7 448 -7 448 -6 445 C-5.79637014 442.3301863 -5.62843332 439.67331581 -5.5 437 C-5.13513514 429.40540541 -5.13513514 429.40540541 -4 426 C-3.79389641 423.08019909 -3.62689177 420.17321043 -3.5 417.25 C-3.43014244 415.67173663 -3.35726559 414.09360377 -3.28125 412.515625 C-3.25095703 411.81727539 -3.22066406 411.11892578 -3.18945312 410.39941406 C-3 408 -3 408 -2.49624634 404.89190674 C-1.95702042 400.66292446 -1.85952408 396.58557981 -1.87060547 392.33007812 C-1.86885315 391.49173935 -1.86710083 390.65340057 -1.86529541 389.78965759 C-1.86091813 387.03683359 -1.86380032 384.28407458 -1.8671875 381.53125 C-1.86651328 379.60746244 -1.86554226 377.68367496 -1.86428833 375.7598877 C-1.86281694 371.7352619 -1.86494795 367.71065836 -1.86962891 363.68603516 C-1.87532584 358.53814167 -1.87204385 353.39030033 -1.86605644 348.24240875 C-1.86243575 344.27207042 -1.86359635 340.30174436 -1.86618423 336.33140564 C-1.86684933 334.43366998 -1.86603973 332.53593319 -1.86370468 330.63819885 C-1.86115339 327.98207667 -1.86505358 325.32603788 -1.87060547 322.66992188 C-1.86756912 321.50389687 -1.86756912 321.50389687 -1.86447144 320.3143158 C-1.88192393 315.78667247 -2.27356323 311.4820185 -3 307 C-3.11870919 305.49655419 -3.2158921 303.99108318 -3.28125 302.484375 C-3.33732422 301.32035156 -3.33732422 301.32035156 -3.39453125 300.1328125 C-3.465534 298.52867624 -3.53583322 296.9245087 -3.60546875 295.3203125 C-3.76594142 292.01125538 -3.94680461 289.15958618 -5 286 C-5.25921695 282.60137773 -5.44193183 279.20867827 -5.60546875 275.8046875 C-5.77370125 272.66048016 -5.99885537 270.00343388 -7 267 C-7.32124048 264.50016501 -7.61006725 262.00579859 -7.875 259.5 C-8.58879722 252.99979925 -9.53618516 246.5722519 -10.625 240.125 C-11.75254998 233.36857845 -12.4167056 226.86792559 -12 220 C-12.66 220 -13.32 220 -14 220 C-15.51233701 213.53205867 -16.21432579 207.64409958 -16 201 C-16.66 201 -17.32 201 -18 201 C-18.19335938 199.87980469 -18.38671875 198.75960937 -18.5859375 197.60546875 C-18.8485886 196.13274651 -19.11162983 194.66009381 -19.375 193.1875 C-19.50132812 192.44951172 -19.62765625 191.71152344 -19.7578125 190.95117188 C-20.40163482 187.39405354 -20.96996056 185.04505916 -23 182 C-23.63842773 179.96630859 -23.63842773 179.96630859 -24.18359375 177.6484375 C-24.38919922 176.79636719 -24.59480469 175.94429687 -24.80664062 175.06640625 C-25.01482422 174.17824219 -25.22300781 173.29007813 -25.4375 172.375 C-26.78747811 166.6599507 -28.23211915 161.05918738 -30.14526367 155.50537109 C-31.17839298 152.47710118 -32.15013363 149.43158006 -33.12109375 146.3828125 C-33.49943359 145.19816406 -33.87777344 144.01351562 -34.26757812 142.79296875 C-35.0449037 140.35587789 -35.82095427 137.91837997 -36.59570312 135.48046875 C-38.65426253 129.04266496 -40.80136139 122.68535085 -43.28540039 116.39794922 C-44.05446367 113.81723876 -44.13094457 111.67795073 -44 109 C-44.66 109 -45.32 109 -46 109 C-47.60355101 105.49223216 -48.22036864 102.85645121 -48 99 C-48.66 99 -49.32 99 -50 99 C-50.60473145 97.6087793 -50.60473145 97.6087793 -51.22167969 96.18945312 C-52.73283409 92.71453792 -54.24686361 89.24088144 -55.76171875 85.76757812 C-56.41418392 84.27051872 -57.06589208 82.77312913 -57.71679688 81.27539062 C-58.65811498 79.10978148 -59.60224317 76.94541542 -60.546875 74.78125 C-60.83246277 74.12257935 -61.11805054 73.46390869 -61.41229248 72.78527832 C-63.82598584 67.26752079 -66.5013694 61.90012774 -69.265625 56.55078125 C-72.07597191 50.16058768 -72.36311181 44.12791138 -72.375 37.25 C-72.37661133 36.35063721 -72.37822266 35.45127441 -72.37988281 34.5246582 C-72.29312805 29.32467426 -71.68175201 24.92416989 -70 20 C-69.34 20 -68.68 20 -68 20 C-67.8453125 18.9171875 -67.8453125 18.9171875 -67.6875 17.8125 C-66.92271316 14.68382656 -65.76816714 12.68499454 -64 10 C-63.443125 9.030625 -62.88625 8.06125 -62.3125 7.0625 C-47.42002269 -12.65996995 -19.22354102 -12.21658637 0 0 Z " fill="#FEFEFE" transform="translate(723,155)"/>
<path d="M0 0 C0.81984375 0.17273438 1.6396875 0.34546875 2.484375 0.5234375 C4.66316081 0.99032017 6.83260077 1.48323583 9 2 C9 2.66 9 3.32 9 4 C10.051875 4.103125 11.10375 4.20625 12.1875 4.3125 C15.88628113 4.97949332 18.02986811 5.74990008 21 8 C21 8.66 21 9.32 21 10 C22.32 10.66 23.64 11.32 25 12 C25 12.66 25 13.32 25 14 C26.32 14.66 27.64 15.32 29 16 C29 16.66 29 17.32 29 18 C30.485 18.495 30.485 18.495 32 19 C35.52713089 24.1731253 37.52882441 29.8119535 39.70703125 35.65625 C40.90441619 38.75281046 42.21893725 41.74364362 43.625 44.75 C49.60959192 57.70088347 49.60959192 57.70088347 49 64 C49.66 64 50.32 64 51 64 C51.18175781 64.65226562 51.36351562 65.30453125 51.55078125 65.9765625 C52.69139882 69.94240205 53.77961313 73.57555121 55.6875 77.25 C57.18514728 80.38792763 57.24533559 82.56530168 57 86 C57.66 86 58.32 86 59 86 C59.25394531 86.845625 59.50789062 87.69125 59.76953125 88.5625 C61.94900941 95.84409429 61.94900941 95.84409429 64.5 103 C67.88305775 111.77020949 70.25922488 120.79106068 72.28515625 129.95703125 C72.91728293 132.64788745 73.66047655 135.24333321 74.5 137.875 C76.26086159 143.481954 77.27938334 149.20248775 78.3515625 154.97265625 C78.68449783 157.86560625 78.68449783 157.86560625 80 159 C80.98678883 165.03037619 81.11252453 170.89867013 81 177 C81.66 177 82.32 177 83 177 C84.14828759 179.29657519 84.2583841 180.94465115 84.46484375 183.5 C84.54283203 184.386875 84.62082031 185.27375 84.70117188 186.1875 C84.85869691 188.06217808 85.01234472 189.937186 85.16210938 191.8125 C85.28102539 193.1428125 85.28102539 193.1428125 85.40234375 194.5 C85.50276978 195.72203125 85.50276978 195.72203125 85.60522461 196.96875 C85.84607087 199.21888177 85.84607087 199.21888177 88 201 C88.37890625 203.96875 88.37890625 203.96875 88.5625 207.5 C88.66407271 211.90933762 88.66407271 211.90933762 90 216 C90.31648391 219.3406635 90.51128525 222.68217611 90.71875 226.03125 C90.81288062 228.9264801 90.81288062 228.9264801 92 231 C92.13904158 232.42338447 92.22523173 233.85218812 92.28125 235.28125 C92.33732422 236.54388672 92.33732422 236.54388672 92.39453125 237.83203125 C92.5 240.5 92.5 240.5 92.60546875 243.16796875 C92.66154297 244.43060547 92.66154297 244.43060547 92.71875 245.71875 C92.74904297 246.49154297 92.77933594 247.26433594 92.81054688 248.06054688 C92.89098578 250.08041983 92.89098578 250.08041983 94 252 C94.09855977 254.85764113 94.13627672 257.69092193 94.12939453 260.54882812 C94.13202301 261.87580971 94.13202301 261.87580971 94.13470459 263.229599 C94.13911774 266.16350243 94.13618699 269.09734592 94.1328125 272.03125 C94.13348569 274.06384289 94.13445585 276.09643571 94.13571167 278.12902832 C94.13718791 282.39283005 94.13503643 286.65661086 94.13037109 290.92041016 C94.12467386 296.39515091 94.12795325 301.86984265 94.13394356 307.3445816 C94.13755114 311.5429115 94.13640967 315.7412297 94.13381577 319.93955994 C94.13314704 321.95865383 94.13397302 323.97774877 94.13629532 325.99684143 C94.13882505 328.81498032 94.13497668 331.63303899 94.12939453 334.45117188 C94.13141876 335.29175644 94.13344299 336.132341 94.13552856 336.99839783 C94.11426396 342.77147208 94.11426396 342.77147208 93 345 C92.86154142 346.35032798 92.77496115 347.70625639 92.71875 349.0625 C92.68136719 349.85914063 92.64398437 350.65578125 92.60546875 351.4765625 C92.57066406 352.30929687 92.53585937 353.14203125 92.5 354 C92.43120389 355.64601072 92.35847244 357.29186307 92.28125 358.9375 C92.25095703 359.66839844 92.22066406 360.39929688 92.18945312 361.15234375 C92 363 92 363 91 365 C90.79459652 367.14247238 90.63410745 369.28938602 90.5 371.4375 C90.28369698 374.89448578 90.09651096 377.71046711 89 381 C88.73269846 384.09306067 88.55548241 387.18568109 88.37890625 390.28515625 C88 393 88 393 86 395 C85.57179997 396.97881411 85.57179997 396.97881411 85.4375 399.24609375 C85.36273437 400.08333984 85.28796875 400.92058594 85.2109375 401.78320312 C85.14132812 402.65912109 85.07171875 403.53503906 85 404.4375 C84.86202582 406.16600991 84.71649701 407.89393762 84.5625 409.62109375 C84.50191406 410.3886499 84.44132813 411.15620605 84.37890625 411.94702148 C84 414 84 414 82 417 C81.50930058 420.43853074 81.17034202 423.85359931 80.87695312 427.3125 C80.40901759 432.05087423 79.38344129 436.17134558 77.78686523 440.65185547 C76.37867814 444.85413394 75.47456358 449.1804827 74.5 453.5 C73.15670563 459.45382732 71.66395017 465.23709617 69.66943359 471.0078125 C68.81280815 473.55706983 68.1717091 476.13153606 67.5625 478.75 C65.37416649 487.72102168 62.90196213 496.61078143 59 505 C58.34 505 57.68 505 57 505 C56.93941406 505.69867187 56.87882813 506.39734375 56.81640625 507.1171875 C56.73261719 508.02726562 56.64882813 508.93734375 56.5625 509.875 C56.44068359 511.23238281 56.44068359 511.23238281 56.31640625 512.6171875 C56 515 56 515 55 517 C54.34 517 53.68 517 53 517 C52.855625 518.27875 52.71125 519.5575 52.5625 520.875 C52.29357254 523.25692894 52.07773654 524.84452691 51 527 C50.34 527 49.68 527 49 527 C48.938125 528.258125 48.87625 529.51625 48.8125 530.8125 C48.26454734 535.75950923 46.54882455 539.61126849 44.3828125 544.0546875 C42.94657906 547.11378357 41.78025353 550.19996546 40.625 553.375 C38.02556647 560.29298124 34.64347873 566.58453745 31 573 C30.34 573 29.68 573 29 573 C28.9071875 573.86625 28.9071875 573.86625 28.8125 574.75 C27.66615826 577.92448483 25.74043158 579.12848575 23 581 C22.34 581 21.68 581 21 581 C21 581.66 21 582.32 21 583 C16.7214529 585.18704889 12.4740136 587.23750979 8 589 C7.67 589.33 7.34 589.66 7 590 C-1.45378945 590.99326508 -10.61434557 591.81610218 -19 590 C-19.66 589.34 -20.32 588.68 -21 588 C-22.97045788 587.27749878 -24.94116049 586.55564394 -26.9140625 585.83984375 C-32.68663916 583.51567899 -36.87598381 579.51677964 -41 575 C-41 574.34 -41 573.68 -41 573 C-41.66 573 -42.32 573 -43 573 C-45 570 -45 570 -45 567 C-45.66 567 -46.32 567 -47 567 C-53.02492269 554.40243437 -53.40950947 542.16784709 -49 529 C-48.34771504 527.32765238 -47.68511449 525.65916857 -47 524 C-46.34 524 -45.68 524 -45 524 C-44.9175 523.030625 -44.835 522.06125 -44.75 521.0625 C-44.20188749 517.31459554 -42.90860131 514.32506763 -41.30859375 510.9140625 C-37.1557031 501.66613288 -33.28948306 492.04796789 -30.703125 482.23828125 C-30 480 -30 480 -28.640625 476.94140625 C-26.47309788 471.98487928 -25.03256965 466.80495156 -23.5 461.625 C-21.63946554 455.38530365 -19.76766339 449.16337933 -17.64916992 443.00561523 C-16.58323116 439.7123896 -15.79597161 436.3675722 -15 433 C-14.34 433 -13.68 433 -13 433 C-13.0928125 431.5459375 -13.0928125 431.5459375 -13.1875 430.0625 C-13.19461782 427.05016284 -12.6755018 424.78348073 -11.61328125 421.97265625 C-9.72965569 416.53311045 -8.8643125 411.05211601 -8 405.375 C-7.66217937 403.24316801 -7.3223381 401.11165522 -6.98046875 398.98046875 C-6.73369385 397.44205322 -6.73369385 397.44205322 -6.48193359 395.87255859 C-5.85246728 392.12063326 -5.09681516 388.41012754 -4.3125 384.6875 C-3.22767435 379.48033686 -2.54415249 374.38185759 -2.2109375 369.07421875 C-2 367 -2 367 -1 365 C-0.61690217 362.5397936 -0.28682772 360.09683732 0 357.625 C0.08757568 356.8827417 0.17515137 356.1404834 0.26538086 355.37573242 C1.0273198 348.52254253 1.39809693 341.66666493 1.65820312 334.77783203 C1.68978516 333.98103027 1.72136719 333.18422852 1.75390625 332.36328125 C1.77783447 331.66501221 1.8017627 330.96674316 1.82641602 330.24731445 C2 328 2 328 2.50708008 325.43652344 C3.21433757 320.50568812 3.14243056 315.62729686 3.1328125 310.65234375 C3.13376923 309.56288956 3.13472595 308.47343536 3.13571167 307.35096741 C3.13639055 305.05388328 3.13455668 302.75679721 3.13037109 300.4597168 C3.12501358 296.946408 3.13032869 293.43322674 3.13671875 289.91992188 C3.13605802 287.68489555 3.13477696 285.44986931 3.1328125 283.21484375 C3.13483673 282.16578354 3.13686096 281.11672333 3.13894653 280.03587341 C3.13579437 279.05457962 3.13264221 278.07328583 3.12939453 277.06225586 C3.12859894 276.20321152 3.12780334 275.34416718 3.12698364 274.45909119 C2.99417182 271.88713486 2.54543422 269.51362589 2 267 C1.88451945 265.58045011 1.80232066 264.1577912 1.75390625 262.734375 C1.72232422 261.93443115 1.69074219 261.1344873 1.65820312 260.31030273 C1.62662109 259.46540283 1.59503906 258.62050293 1.5625 257.75 C1.26688218 250.94640601 0.80364205 244.20080957 0 237.4375 C-0.08306396 236.73012695 -0.16612793 236.02275391 -0.25170898 235.29394531 C-0.615167 232.38771069 -1.07081299 229.78756104 -2 227 C-2.1539947 225.44009075 -2.27438911 223.87675979 -2.375 222.3125 C-2.81852542 217.07207652 -3.68515663 211.99240069 -4.70263672 206.83496094 C-5.54001615 202.55148139 -6.29325929 198.26349659 -6.98046875 193.953125 C-7.14957764 192.89762451 -7.31868652 191.84212402 -7.49291992 190.75463867 C-7.82327434 188.67501229 -8.1479437 186.59447233 -8.46606445 184.51293945 C-9.33202243 179.10058999 -10.46513366 174.05726451 -12.36523438 168.91015625 C-13 167 -13 167 -13.5 163.4375 C-13.99356045 160.04427193 -14.88830472 157.33417073 -16.18359375 154.1875 C-17.30866348 151.1729591 -18.13606961 148.09922983 -19 145 C-23.73570117 128.05831917 -29.63087683 111.54222664 -35.5715332 94.99487305 C-36.51676936 92.35971654 -37.4497273 89.72073161 -38.37182617 87.07739258 C-38.80084229 85.85431396 -39.2298584 84.63123535 -39.671875 83.37109375 C-40.23213379 81.7612561 -40.23213379 81.7612561 -40.80371094 80.11889648 C-42.46242835 75.79438324 -44.51474767 71.71732698 -46.66796875 67.62109375 C-52.56068695 56.02574504 -53.69144154 44.05689637 -49.92578125 31.58203125 C-48.16689074 26.67643368 -45.88546281 22.32819422 -43 18 C-42.34 18 -41.68 18 -41 18 C-40.34 16.68 -39.68 15.36 -39 14 C-38.34 14 -37.68 14 -37 14 C-37 13.34 -37 12.68 -37 12 C-36.34 12 -35.68 12 -35 12 C-34.34 10.68 -33.68 9.36 -33 8 C-32.01 8 -31.02 8 -30 8 C-30 7.34 -30 6.68 -30 6 C-20.63114021 1.23083882 -10.4871372 -2.27221306 0 0 Z " fill="#FEFEFE" transform="translate(548,215)"/>
<path d="M0 0 C2.84485999 2.0810471 5.18191056 4.06450951 7.4296875 6.77734375 C7.4296875 7.43734375 7.4296875 8.09734375 7.4296875 8.77734375 C8.0896875 8.77734375 8.7496875 8.77734375 9.4296875 8.77734375 C10.38890472 10.52685943 11.34702567 12.27697619 12.3046875 14.02734375 C12.83835937 15.001875 13.37203125 15.97640625 13.921875 16.98046875 C14.41945313 17.9034375 14.91703125 18.82640625 15.4296875 19.77734375 C16.0175 20.86015625 16.0175 20.86015625 16.6171875 21.96484375 C17.66724201 24.30727304 17.5705695 26.24146777 17.4296875 28.77734375 C18.9146875 29.27234375 18.9146875 29.27234375 20.4296875 29.77734375 C21.640625 32.33203125 21.640625 32.33203125 22.8046875 35.65234375 C24.38485221 40.01207529 26.04890713 44.2216208 28.0546875 48.40234375 C30.16226797 52.92705558 31.53406323 57.40270629 32.75390625 62.234375 C33.3428248 64.45047891 34.03145873 66.52056503 34.8671875 68.65234375 C38.34643941 77.64346316 40.78944854 86.51494098 41.9375 96.09765625 C42.28636419 98.99056 42.28636419 98.99056 44.4296875 101.77734375 C44.94603852 104.96150835 45.31082136 108.12170075 45.640625 111.328125 C46.04524321 114.86504623 46.41447649 116.75452724 48.4296875 119.77734375 C48.91625977 122.01391602 48.91625977 122.01391602 49.24609375 124.59375 C49.37048828 125.52251953 49.49488281 126.45128906 49.62304688 127.40820312 C49.74486328 128.37564453 49.86667969 129.34308594 49.9921875 130.33984375 C50.24041704 132.25821258 50.49157601 134.17620532 50.74609375 136.09375 C50.85381104 136.94396729 50.96152832 137.79418457 51.07250977 138.67016602 C51.33266987 140.82618032 51.33266987 140.82618032 52.4296875 142.77734375 C52.74617141 146.11800725 52.94097275 149.45951986 53.1484375 152.80859375 C53.24256812 155.70382385 53.24256812 155.70382385 54.4296875 157.77734375 C54.56871904 159.18897975 54.65491657 160.60607812 54.7109375 162.0234375 C54.76701172 163.27930664 54.76701172 163.27930664 54.82421875 164.56054688 C54.87642578 165.87442383 54.87642578 165.87442383 54.9296875 167.21484375 C54.99865531 168.94287046 55.07141535 170.67075106 55.1484375 172.3984375 C55.17873047 173.16599365 55.20902344 173.9335498 55.24023438 174.72436523 C55.36945743 176.97617646 55.36945743 176.97617646 56.4296875 179.77734375 C56.523977 181.86754098 56.55762441 183.96065616 56.55908203 186.05297852 C56.56223419 187.34764542 56.56538635 188.64231232 56.56863403 189.97621155 C56.56684433 191.39039138 56.5647934 192.8045709 56.5625 194.21875 C56.56317355 195.66698727 56.564144 197.11522442 56.56539917 198.5634613 C56.56687327 201.59725014 56.56473051 204.63100951 56.56005859 207.66479492 C56.55435638 211.55777863 56.55764523 215.45069347 56.56363106 219.34367466 C56.56724009 222.33331321 56.56609659 225.32293535 56.56350327 228.31257439 C56.56283521 229.74833115 56.5636582 231.1840894 56.56598282 232.61984444 C56.56851544 234.62359718 56.56397252 236.62735514 56.55908203 238.63110352 C56.55828644 239.7723317 56.55749084 240.91355988 56.55667114 242.08937073 C56.4296875 244.77734375 56.4296875 244.77734375 55.4296875 246.77734375 C55.29011133 248.28552183 55.20428197 249.79890691 55.1484375 251.3125 C55.11105469 252.20388672 55.07367188 253.09527344 55.03515625 254.01367188 C54.96469818 255.90168728 54.89438628 257.78970815 54.82421875 259.67773438 C54.78683594 260.56783203 54.74945313 261.45792969 54.7109375 262.375 C54.68064453 263.19492432 54.65035156 264.01484863 54.61914062 264.85961914 C54.4296875 266.77734375 54.4296875 266.77734375 53.4296875 267.77734375 C53.24195767 269.7529767 53.10547049 271.73354745 52.9921875 273.71484375 C52.64836974 278.65185189 52.03241864 283.32614576 50.96875 288.15234375 C50.0892763 292.43499831 49.51194624 296.76283622 48.89453125 301.08984375 C48.4296875 303.77734375 48.4296875 303.77734375 47.4296875 305.77734375 C46.7696875 305.77734375 46.1096875 305.77734375 45.4296875 305.77734375 C45.4709375 307.07671875 45.5121875 308.37609375 45.5546875 309.71484375 C45.57023802 314.61325677 44.6789593 319.05911186 43.4296875 323.77734375 C42.7696875 323.77734375 42.1096875 323.77734375 41.4296875 323.77734375 C41.40390625 324.55335938 41.378125 325.329375 41.3515625 326.12890625 C40.83417891 335.98271198 38.94497613 345.42466684 34.8671875 354.46484375 C33.58292332 357.42423513 32.7420905 360.16664003 31.9296875 363.27734375 C30.77614411 367.66556552 29.28939301 371.62876993 27.4296875 375.77734375 C26.58750863 377.94058753 25.75506664 380.10763451 24.9296875 382.27734375 C23.19299233 386.8263308 21.39747994 391.32391875 19.4296875 395.77734375 C18.7696875 395.77734375 18.1096875 395.77734375 17.4296875 395.77734375 C17.0996875 398.41734375 16.7696875 401.05734375 16.4296875 403.77734375 C15.4396875 404.10734375 14.4496875 404.43734375 13.4296875 404.77734375 C13.3884375 405.60234375 13.3471875 406.42734375 13.3046875 407.27734375 C11.09517253 416.11540362 2.83955676 423.44667743 -4.71484375 428.09765625 C-6.64916493 429.09625418 -8.54285558 429.98518456 -10.5703125 430.77734375 C-11.43011719 431.13183594 -12.28992188 431.48632812 -13.17578125 431.8515625 C-23.81510252 434.75319557 -37.18876347 434.2488577 -47.0390625 429.28125 C-48.29203125 428.53681641 -48.29203125 428.53681641 -49.5703125 427.77734375 C-50.91609375 426.98650391 -50.91609375 426.98650391 -52.2890625 426.1796875 C-56.60839197 423.46677532 -56.60839197 423.46677532 -58.5703125 421.77734375 C-58.5703125 421.11734375 -58.5703125 420.45734375 -58.5703125 419.77734375 C-59.2303125 419.77734375 -59.8903125 419.77734375 -60.5703125 419.77734375 C-69.4652435 408.51943297 -74.06767079 396.31419716 -72.5703125 381.77734375 C-70.99877928 372.3088561 -67.30413021 363.55734946 -63.5703125 354.77734375 C-63.17658447 353.85139404 -63.17658447 353.85139404 -62.77490234 352.90673828 C-60.66739965 347.96568449 -58.54700874 343.02999333 -56.41015625 338.1015625 C-53.77109757 331.80996633 -52.0781334 325.42546315 -50.5703125 318.77734375 C-49.9103125 318.77734375 -49.2503125 318.77734375 -48.5703125 318.77734375 C-48.6321875 317.95234375 -48.6940625 317.12734375 -48.7578125 316.27734375 C-48.5703125 312.77734375 -48.5703125 312.77734375 -47.18359375 309.28125 C-45.15385445 304.06157793 -44.40311942 298.73082628 -43.5703125 293.21484375 C-43.23251603 291.07259284 -42.89267508 288.93066331 -42.55078125 286.7890625 C-42.38626465 285.75700684 -42.22174805 284.72495117 -42.05224609 283.66162109 C-41.42787149 279.92486242 -40.670062 276.23317675 -39.8828125 272.52734375 C-38.74620215 267.07161406 -38.10038503 261.73003647 -37.78125 256.16796875 C-37.5703125 253.77734375 -37.5703125 253.77734375 -36.5703125 250.77734375 C-36.32181759 248.1197211 -36.12156338 245.47967455 -35.96484375 242.81640625 C-35.91626221 242.01001205 -35.86768066 241.20361786 -35.81762695 240.37278748 C-35.66383652 237.71637711 -35.52126636 235.05959635 -35.3828125 232.40234375 C-35.33506683 231.49805634 -35.28732117 230.59376892 -35.23812866 229.66207886 C-34.54884442 215.99998046 -34.57389031 202.49477798 -35.3828125 188.83984375 C-35.42983307 188.03581116 -35.47685364 187.23177856 -35.52529907 186.40338135 C-35.56400286 178.33755389 -35.56400286 178.33755389 -37.5703125 170.77734375 C-37.85014447 168.29839748 -38.09263428 165.8236556 -38.3203125 163.33984375 C-39.26154788 153.83832026 -41.01732036 144.5270647 -42.89355469 135.17016602 C-44.05162977 129.25299092 -44.85046561 123.80800809 -44.5703125 117.77734375 C-45.2303125 117.77734375 -45.8903125 117.77734375 -46.5703125 117.77734375 C-47.90615149 112.93492742 -48.82359369 108.84296758 -48.5703125 103.77734375 C-49.2303125 103.77734375 -49.8903125 103.77734375 -50.5703125 103.77734375 C-50.74046875 103.01550781 -50.910625 102.25367188 -51.0859375 101.46875 C-52.40389672 95.85340245 -53.86408402 90.65294503 -56.33984375 85.4453125 C-58.0154639 81.81214247 -59.50240145 78.10865285 -61.0078125 74.40234375 C-62.99144509 69.52256529 -65.0383649 64.71487968 -67.3203125 59.96484375 C-73.48652942 46.51312961 -74.46650349 32.81989152 -69.5703125 18.77734375 C-67.50201332 14.89928278 -65.14303095 11.33575432 -62.5703125 7.77734375 C-61.9103125 6.78734375 -61.2503125 5.79734375 -60.5703125 4.77734375 C-59.9103125 4.77734375 -59.2503125 4.77734375 -58.5703125 4.77734375 C-58.5703125 4.11734375 -58.5703125 3.45734375 -58.5703125 2.77734375 C-52.7362758 -1.6732541 -46.54968878 -5.01864269 -39.5703125 -7.22265625 C-39.00441406 -7.40570313 -38.43851562 -7.58875 -37.85546875 -7.77734375 C-24.02418688 -10.47267047 -11.56446999 -7.74786729 0 0 Z " fill="#FEFEFE" transform="translate(415.5703125,300.22265625)"/>
<path d="M0 0 C0 0.66 0 1.32 0 2 C1.2375 1.87625 1.2375 1.87625 2.5 1.75 C9.07213215 2.21943801 14.80734773 6.1055108 20 10 C20 10.66 20 11.32 20 12 C20.88558594 12.36544922 20.88558594 12.36544922 21.7890625 12.73828125 C34.00160737 19.70763106 38.52972559 42.50701213 42 55 C42.350625 56.175625 42.70125 57.35125 43.0625 58.5625 C44 62 44 62 44.5 65.375 C44.665 66.24125 44.83 67.1075 45 68 C45.66 68.33 46.32 68.66 47 69 C47.42527673 71.4748743 47.74975247 73.88179312 48 76.375 C48.53156226 81.97209823 48.53156226 81.97209823 51 87 C51.37890625 89.19140625 51.37890625 89.19140625 51.5625 91.5625 C51.81460438 94.90657232 51.81460438 94.90657232 53 98 C53.31500605 101.08005912 53.51083648 104.16099912 53.71875 107.25 C53.83187492 109.95865993 53.83187492 109.95865993 55 112 C55.26535425 115.62650802 55.44444116 119.24683946 55.60546875 122.87890625 C55.7104186 127.07362988 55.7104186 127.07362988 57 131 C57.09859764 133.46921977 57.13986876 135.90958336 57.1328125 138.37890625 C57.13376923 139.10617416 57.13472595 139.83344208 57.13571167 140.58274841 C57.13639235 142.12018928 57.13454585 143.65763301 57.13037109 145.19506836 C57.12501351 147.556543 57.13032377 149.91782811 57.13671875 152.27929688 C57.1360581 153.77083376 57.13477721 155.26237052 57.1328125 156.75390625 C57.13483673 157.46430557 57.13686096 158.1747049 57.13894653 158.90663147 C57.11495714 163.88504286 57.11495714 163.88504286 56 165 C55.85613896 166.32886073 55.77323712 167.66448587 55.71875 169 C55.68136719 169.804375 55.64398438 170.60875 55.60546875 171.4375 C55.57066406 172.283125 55.53585937 173.12875 55.5 174 C55.43139491 175.66684971 55.35869777 177.33353774 55.28125 179 C55.25095703 179.7425 55.22066406 180.485 55.18945312 181.25 C55 183 55 183 54 184 C53.81228263 185.80864198 53.67578209 187.62267472 53.5625 189.4375 C52.46546496 203.80180256 52.46546496 203.80180256 49 209 C48.60003596 211.15536176 48.2743151 213.32507315 48 215.5 C47.22222222 221.66666667 47.22222222 221.66666667 45 225 C44.40260055 227.04705225 43.86590017 229.11233108 43.375 231.1875 C43.11460937 232.27417969 42.85421875 233.36085938 42.5859375 234.48046875 C42.29589844 235.72763672 42.29589844 235.72763672 42 237 C41.34 237 40.68 237 40 237 C39.98654541 237.57540527 39.97309082 238.15081055 39.95922852 238.74365234 C39.51483117 246.4207115 37.02136278 252.64282925 33.9375 259.625 C33.46505859 260.72457031 32.99261719 261.82414062 32.50585938 262.95703125 C31.34946236 265.64361017 30.18075081 268.32405756 29 271 C28.34 271 27.68 271 27 271 C26.5978125 271.86625 26.5978125 271.86625 26.1875 272.75 C24.97070811 275.05550043 23.69666121 277.02056192 22 279 C21.34 279 20.68 279 20 279 C20 279.66 20 280.32 20 281 C13.50429663 285.87177753 7.15228309 289.16813438 -1 290 C-1.33 290.33 -1.66 290.66 -2 291 C-10.97371604 291.52079602 -19.727807 291.93008403 -28 288 C-28.81726563 287.6596875 -29.63453125 287.319375 -30.4765625 286.96875 C-38.9076865 283.19894229 -45.56242418 277.13555566 -50 269 C-50 267.68 -50 266.36 -50 265 C-50.66 265 -51.32 265 -52 265 C-53.59875764 260.76099016 -54.25601234 257.24219211 -54.265625 252.71875 C-54.26820313 251.54699219 -54.27078125 250.37523437 -54.2734375 249.16796875 C-54.26570312 247.95753906 -54.25796875 246.74710938 -54.25 245.5 C-54.25773438 244.28957031 -54.26546875 243.07914063 -54.2734375 241.83203125 C-54.27085937 240.66027344 -54.26828125 239.48851562 -54.265625 238.28125 C-54.26336914 237.21970703 -54.26111328 236.15816406 -54.25878906 235.06445312 C-53.9813374 231.77900666 -53.16006178 229.0758341 -52 226 C-51.34 226 -50.68 226 -50 226 C-49.855625 225.0925 -49.71125 224.185 -49.5625 223.25 C-49.13590527 220.78523044 -48.64925779 218.41152893 -48 216 C-47.34 216 -46.68 216 -46 216 C-46.04125 215.29875 -46.0825 214.5975 -46.125 213.875 C-45.98165207 210.57799751 -45.07261408 208.11964517 -44 205 C-42.72926805 200.77134579 -41.59818581 196.52096079 -40.54980469 192.23291016 C-40.18794735 190.76330659 -39.81389654 189.29664304 -39.42675781 187.83349609 C-35.88835892 174.12745691 -35.62317482 160.50554871 -35.625 146.4375 C-35.62228088 145.07037369 -35.62228088 145.07037369 -35.61950684 143.67562866 C-35.62260499 129.89951357 -36.91138353 117.05661949 -40.140625 103.62890625 C-40.80387301 100.82819081 -41.43680974 98.02724462 -42.046875 95.21484375 C-42.22557129 94.39330811 -42.40426758 93.57177246 -42.58837891 92.7253418 C-42.94219486 91.09324901 -43.29349069 89.46060757 -43.64208984 87.82739258 C-44.17881647 84.10765427 -44.17881647 84.10765427 -46 81 C-46.04080783 79.00041636 -46.04254356 76.99954746 -46 75 C-46.66 75 -47.32 75 -48 75 C-49.31626692 71.38026598 -50 68.90432869 -50 65 C-50.66 65 -51.32 65 -52 65 C-53.64148561 60.67418825 -54.25623677 57.08351914 -54.265625 52.46484375 C-54.26820313 51.24345703 -54.27078125 50.02207031 -54.2734375 48.76367188 C-54.26570312 47.50103516 -54.25796875 46.23839844 -54.25 44.9375 C-54.25773438 43.67099609 -54.26546875 42.40449219 -54.2734375 41.09960938 C-54.27085937 39.87951172 -54.26828125 38.65941406 -54.265625 37.40234375 C-54.26224121 35.73933228 -54.26224121 35.73933228 -54.25878906 34.04272461 C-53.99817658 30.97856107 -53.29735253 28.77024059 -52 26 C-51.34 26 -50.68 26 -50 26 C-49.7834375 24.8553125 -49.7834375 24.8553125 -49.5625 23.6875 C-49 21 -49 21 -48 18 C-47.34 18 -46.68 18 -46 18 C-46 17.34 -46 16.68 -46 16 C-45.34 16 -44.68 16 -44 16 C-43.73316406 15.401875 -43.46632812 14.80375 -43.19140625 14.1875 C-39.61432514 7.61974452 -32.69830315 4.55349678 -26 2 C-25.01 1.608125 -24.02 1.21625 -23 0.8125 C-15.20300385 -1.29918646 -7.97063101 -0.96839442 0 0 Z " fill="#FEFEFE" transform="translate(245,365)"/>
</svg>
