<?xml version="1.0" encoding="UTF-8"?>
<svg version="1.1" xmlns="http://www.w3.org/2000/svg" width="3840" height="2160">
<path d="M0 0 C1.81932601 -0.00702099 3.63865177 -0.01410782 5.45797729 -0.02125549 C11.24933216 -0.04068195 17.0406471 -0.04569043 22.83203125 -0.046875 C24.31233889 -0.04753778 24.31233889 -0.04753778 25.82255173 -0.04821396 C54.9650322 -0.05505845 83.96312802 0.15752256 112.99658203 2.94989014 C115.78213675 3.21628481 118.56864127 3.47043133 121.35546875 3.72314453 C197.92488137 10.74329164 273.36520631 25.89958423 346.64453125 49.203125 C347.40965027 49.44591187 348.17476929 49.68869873 348.96307373 49.93884277 C414.94772105 70.92195012 479.19923341 98.39098259 539.64453125 132.203125 C540.5675 132.71552734 541.49046875 133.22792969 542.44140625 133.75585938 C557.0670998 141.87791461 571.43810554 150.36871164 585.64453125 159.203125 C586.55025879 159.76612305 587.45598633 160.32912109 588.38916016 160.90917969 C603.40912403 170.28077191 618.07563383 180.14732239 632.64453125 190.203125 C633.4422998 190.75210449 634.24006836 191.30108398 635.06201172 191.86669922 C643.69720149 197.82312416 652.11809884 204.02604448 660.45703125 210.390625 C661.35067383 211.07261963 662.24431641 211.75461426 663.16503906 212.45727539 C666.95251621 215.35497027 670.73026224 218.26196789 674.46875 221.22265625 C675.29185669 221.86521362 675.29185669 221.86521362 676.1315918 222.52075195 C677.51777261 223.60406221 678.89417015 224.69986079 680.26953125 225.796875 C683.08177819 227.46202122 684.42300728 227.51268809 687.64453125 227.203125 C689.62693831 226.17974089 689.62693831 226.17974089 691.40234375 224.6328125 C692.09996826 224.07352051 692.79759277 223.51422852 693.51635742 222.93798828 C694.25990479 222.3242334 695.00345215 221.71047852 695.76953125 221.078125 C697.39160041 219.77921341 699.01535002 218.48239804 700.640625 217.1875 C701.47190918 216.52169922 702.30319336 215.85589844 703.15966797 215.16992188 C778.38679383 155.62681656 866.51583033 108.0216965 1246.20703125 3.953125 C1246.98210022 3.8759021 1247.75716919 3.7986792 1248.5557251 3.71911621 C1279.21320448 0.7080918 1309.87611524 -0.13331493 1340.66308594 -0.05761719 C1345.33911402 -0.04620702 1350.01491471 -0.05302622 1354.69093513 -0.06449509 C1377.74941436 -0.11244793 1400.64907852 0.47489705 1423.64453125 2.203125 C1424.67149109 2.27873657 1425.69845093 2.35434814 1426.75653076 2.43225098 C1432.68390871 2.87632454 1438.60242393 3.38927509 1444.51953125 3.953125 C1445.83038696 4.07618011 1445.83038696 4.07618011 1447.16772461 4.20172119 C1533.51946861 12.38494326 1618.98155472 31.02064206 1780.64453125 92.203125 C1781.69398926 92.67073242 1782.74344727 93.13833984 1783.82470703 93.62011719 C1811.57583073 106.02280527 1838.98322678 119.50871384 1865.24804688 134.82128906 C1868.28927051 136.57488786 1871.36560556 138.25900335 1874.44726562 139.94018555 C1900.40584135 154.12222075 1925.39551635 170.28557774 1949.64453125 187.203125 C1950.71646729 187.94876709 1950.71646729 187.94876709 1951.81005859 188.70947266 C1974.10925625 204.24265257 1995.88420313 220.50814504 2016.88427734 237.75878906 C2018.46348709 239.05457337 2020.04782411 240.34410298 2021.6328125 241.6328125 C2031.41422887 249.58817574 2041.0578217 257.68514329 2050.390625 266.1640625 C2052.41335815 267.99398747 2054.4582256 269.79194228 2056.51953125 271.578125 C2060.85492425 275.35747561 2065.09012703 279.24387402 2069.31738281 283.14306641 C2071.35080641 285.01670077 2073.39188608 286.88014823 2075.44116211 288.73657227 C2084.57349474 297.05445943 2093.32653526 305.7321703 2102.04882812 314.47705078 C2104.53271574 316.96633815 2107.02195808 319.45018202 2109.51171875 321.93359375 C2111.11620643 323.53874169 2112.72038417 325.1441995 2114.32421875 326.75 C2115.42284744 327.84559235 2115.42284744 327.84559235 2116.54367065 328.96331787 C2120.57150282 333.00933241 2124.42218364 337.15231237 2128.15072632 341.47573853 C2129.81476223 343.39997446 2131.53402024 345.25996072 2133.29296875 347.09765625 C2134.20526245 348.057323 2134.20526245 348.057323 2135.13598633 349.03637695 C2135.75755615 349.68952881 2136.37912598 350.34268066 2137.01953125 351.015625 C2142.10516744 356.3956107 2146.93531661 361.84816288 2151.546875 367.640625 C2153.77670986 370.36459459 2156.12407243 372.93647685 2158.51953125 375.515625 C2162.78182392 380.14740434 2166.68703618 384.96627073 2170.53637695 389.93847656 C2173.51693555 393.78510408 2176.57038915 397.5448508 2179.70703125 401.265625 C2184.87932304 407.43508277 2189.79091497 413.78294674 2194.64453125 420.203125 C2195.49023682 421.3178418 2195.49023682 421.3178418 2196.35302734 422.45507812 C2198.24559121 424.9516303 2200.1332264 427.451841 2202.01953125 429.953125 C2202.88324341 431.09394531 2202.88324341 431.09394531 2203.7644043 432.2578125 C2214.55848331 446.62423531 2224.63266871 461.49494301 2234.58203125 476.453125 C2235.15135376 477.30818634 2235.72067627 478.16324768 2236.30725098 479.04421997 C2244.67065076 491.61468728 2252.94409113 504.2119756 2260.64453125 517.203125 C2261.49313721 518.63301758 2261.49313721 518.63301758 2262.35888672 520.09179688 C2269.50679103 532.17373802 2276.53415222 544.32452622 2283.25292969 556.65087891 C2284.25045954 558.48038366 2285.25152116 560.30796443 2286.25488281 562.13427734 C2315.92148964 616.2180157 2339.88008648 672.80428412 2359.64453125 731.203125 C2359.87142639 731.87049683 2360.09832153 732.53786865 2360.33209229 733.22546387 C2387.10451642 812.00538762 2403.11882421 894.42927906 2410.64453125 977.203125 C2410.76988251 978.54703308 2410.76988251 978.54703308 2410.89776611 979.91809082 C2416.31837415 1038.42747299 2416.37903386 1099.28239064 2410.86914062 1157.78674316 C2410.64308625 1160.21867049 2410.43091279 1162.65144926 2410.22265625 1165.08496094 C2405.21436366 1223.19354359 2395.06560195 1280.71197716 2380.64453125 1337.203125 C2380.33639496 1338.41533722 2380.33639496 1338.41533722 2380.02203369 1339.65203857 C2361.55845204 1412.09142642 2334.29051755 1481.08873691 2301.64453125 1548.203125 C2301.21817383 1549.08452148 2300.79181641 1549.96591797 2300.35253906 1550.87402344 C2294.62338696 1562.69125153 2288.38829567 1574.15104824 2281.86328125 1585.546875 C2279.36082675 1589.92171231 2276.92826829 1594.32873528 2274.52978516 1598.76123047 C2267.98920544 1610.8355897 2260.90309089 1622.54873106 2253.64453125 1634.203125 C2253.06799805 1635.12915527 2252.49146484 1636.05518555 2251.89746094 1637.00927734 C2243.16585888 1650.98427792 2234.03968096 1664.66636515 2224.64453125 1678.203125 C2224.11617676 1678.96463867 2223.58782227 1679.72615234 2223.04345703 1680.51074219 C2212.13787654 1696.18422985 2200.86934831 1711.59378165 2188.97119141 1726.52929688 C2187.60619106 1728.25149827 2186.25458109 1729.98347324 2184.90625 1731.71875 C2179.51145473 1738.65423392 2173.97373588 1745.43357703 2168.265625 1752.11328125 C2165.82149791 1754.97890194 2163.44757391 1757.89718022 2161.08203125 1760.828125 C2157.20873853 1765.58832553 2153.13693133 1770.13117284 2148.984375 1774.6484375 C2146.98618277 1776.83010315 2145.02304236 1779.03323809 2143.08203125 1781.265625 C2128.9810517 1797.45563856 2114.1347874 1812.87966967 2098.93798828 1828.04003906 C2096.24915167 1830.72346356 2093.56577169 1833.41226292 2090.8828125 1836.1015625 C2089.1500605 1837.83365443 2087.41699872 1839.56543654 2085.68359375 1841.296875 C2084.89385162 1842.08864136 2084.1041095 1842.88040771 2083.29043579 1843.69616699 C2079.12596118 1847.8432556 2074.88686098 1851.83861916 2070.4246521 1855.66455078 C2067.420985 1858.26064686 2064.54023884 1860.98798967 2061.64453125 1863.703125 C2056.7193037 1868.29519832 2051.75979308 1872.82255068 2046.64453125 1877.203125 C2045.57535632 1878.12611155 2044.50636329 1879.04930882 2043.4375 1879.97265625 C2036.26093501 1886.16098591 2029.00454466 1892.23344438 2021.64453125 1898.203125 C2020.41878072 1899.21034134 2019.19355433 1900.21819576 2017.96875 1901.2265625 C2009.3605151 1908.29556251 2000.59207445 1915.09213866 1991.64013672 1921.71923828 C1989.64546805 1923.20242841 1987.66110468 1924.69838193 1985.6796875 1926.19921875 C1969.97640791 1938.08892878 1953.79219199 1949.23380012 1937.39453125 1960.140625 C1936.53946991 1960.70994751 1935.68440857 1961.27927002 1934.80343628 1961.86584473 C1922.23249276 1970.22956134 1909.63226715 1978.49614507 1896.64453125 1986.203125 C1895.71253906 1986.75822754 1894.78054687 1987.31333008 1893.8203125 1987.88525391 C1872.16500687 2000.74751468 1850.04576434 2012.69641873 1827.64453125 2024.203125 C1826.71511719 2024.68217285 1825.78570313 2025.1612207 1824.828125 2025.65478516 C1752.0337854 2063.05173813 1673.94630471 2090.77235325 1431.95703125 2135.453125 C1430.94116943 2135.53639038 1429.92530762 2135.61965576 1428.87866211 2135.70544434 C1422.1369217 2136.25076039 1415.39285048 2136.7466614 1408.64453125 2137.203125 C1407.85694427 2137.25827271 1407.0693573 2137.31342041 1406.25790405 2137.37023926 C1386.32667905 2138.71533535 1366.29800157 2138.44890782 1346.33203125 2138.453125 C1345.37408661 2138.45356686 1344.41614197 2138.45400871 1343.4291687 2138.45446396 C1313.39667701 2138.46172141 1283.56538657 2138.03262832 1253.64453125 2135.203125 C1251.75488475 2135.02976407 1249.86523627 2134.85642469 1247.97558594 2134.68310547 C1161.1158456 2126.58900722 1076.04036515 2107.71116249 993.64453125 2079.203125 C992.95548706 2078.96527283 992.26644287 2078.72742065 991.55651855 2078.48236084 C959.22794487 2067.30268134 927.45695217 2054.33852808 896.58349609 2039.60498047 C893.59488425 2038.1794439 890.59879196 2036.77059635 887.6015625 2035.36328125 C852.80022614 2018.93625161 819.42349588 2000.33718406 786.64453125 1980.203125 C785.63986816 1979.58840332 784.63520508 1978.97368164 783.60009766 1978.34033203 C772.4566398 1971.52170981 761.41711526 1964.59544817 750.64453125 1957.203125 C749.37270996 1956.33131592 749.37270996 1956.33131592 748.07519531 1955.44189453 C730.04473533 1943.05342665 712.42337738 1930.18627889 695.0859375 1916.84765625 C694.47766113 1916.38439941 693.86938477 1915.92114258 693.24267578 1915.44384766 C691.95925298 1914.44745983 690.71470827 1913.40108963 689.484375 1912.33984375 C687.02465664 1910.82014514 685.50481648 1910.95017461 682.64453125 1911.203125 C680.66212419 1912.22650911 680.66212419 1912.22650911 678.88671875 1913.7734375 C678.18909424 1914.33272949 677.49146973 1914.89202148 676.77270508 1915.46826172 C676.02915771 1916.0820166 675.28561035 1916.69577148 674.51953125 1917.328125 C672.89746209 1918.62703659 671.27371248 1919.92385196 669.6484375 1921.21875 C668.81715332 1921.88455078 667.98586914 1922.55035156 667.12939453 1923.23632812 C626.36042065 1955.50542358 581.24119456 1983.33032872 535.64453125 2008.203125 C534.52578613 2008.81397949 533.40704102 2009.42483398 532.25439453 2010.05419922 C503.95760191 2025.45886357 475.19898841 2039.39718583 445.64453125 2052.203125 C444.96201294 2052.49958923 444.27949463 2052.79605347 443.57629395 2053.10150146 C374.92803312 2082.90296234 302.99652193 2104.57697975 229.64453125 2119.203125 C228.9097052 2119.34987671 228.17487915 2119.49662842 227.41778564 2119.64782715 C194.79041722 2126.13402999 161.86358548 2130.65540626 128.76953125 2133.953125 C127.27755219 2134.10456467 127.27755219 2134.10456467 125.75543213 2134.25906372 C93.1017478 2137.5380962 60.5105912 2138.5870472 27.70991135 2138.52118301 C24.8442962 2138.51552583 21.97868702 2138.51271589 19.11306763 2138.51010132 C-9.80482351 2138.47178302 -38.5486948 2137.94949061 -67.35546875 2135.203125 C-68.29348328 2135.11591187 -69.2314978 2135.02869873 -70.19793701 2134.93884277 C-127.29290921 2129.6210743 -183.71186075 2120.05635609 -239.35546875 2106.203125 C-240.14530151 2106.00652283 -240.93513428 2105.80992065 -241.74890137 2105.60736084 C-312.09296791 2088.00935772 -380.30439021 2062.11601624 -445.35546875 2030.203125 C-446.48009521 2029.65325928 -446.48009521 2029.65325928 -447.62744141 2029.09228516 C-452.22590495 2026.83930066 -456.79434461 2024.53063848 -461.35546875 2022.203125 C-462.42587402 2021.65897949 -463.4962793 2021.11483398 -464.59912109 2020.55419922 C-490.86466966 2007.19043917 -490.86466966 2007.19043917 -502.3828125 2000.03125 C-505.0626382 1998.38321002 -507.76567784 1996.8661933 -510.54296875 1995.390625 C-515.91107474 1992.5093927 -521.13169653 1989.39834441 -526.35546875 1986.265625 C-527.17426514 1985.77537842 -527.99306152 1985.28513184 -528.83666992 1984.7800293 C-550.8986281 1971.49373523 -572.405598 1957.17543922 -593.35546875 1942.203125 C-594.53858643 1941.36007812 -594.53858643 1941.36007812 -595.74560547 1940.5 C-605.43450968 1933.58756435 -614.96227683 1926.51160341 -624.35546875 1919.203125 C-625.92573164 1918.00579955 -627.49600343 1916.8084852 -629.06713867 1915.61230469 C-640.23015234 1907.09320748 -651.09282847 1898.19421277 -661.77563477 1889.08178711 C-665.07134356 1886.27334571 -668.4148417 1883.5365359 -671.79296875 1880.828125 C-677.47321333 1876.21085016 -682.78144603 1871.23145692 -688.1171875 1866.2265625 C-692.87977872 1861.76275194 -697.76685757 1857.47800482 -702.85546875 1853.390625 C-703.68046875 1852.66875 -704.50546875 1851.946875 -705.35546875 1851.203125 C-705.35546875 1850.543125 -705.35546875 1849.883125 -705.35546875 1849.203125 C-705.92130173 1848.9622818 -706.4871347 1848.7214386 -707.07011414 1848.47329712 C-709.82320679 1846.94316192 -711.69491102 1845.11063272 -713.92114258 1842.88037109 C-714.8192012 1841.9853891 -715.71725983 1841.0904071 -716.64253235 1840.16830444 C-717.61603299 1839.1879006 -718.58935092 1838.2073153 -719.5625 1837.2265625 C-720.57097946 1836.21688939 -721.57983057 1835.20758736 -722.58903503 1834.19863892 C-724.70447945 1832.08163118 -726.81652713 1829.96131146 -728.92602539 1827.83837891 C-731.61053615 1825.13697679 -734.30148288 1822.44210454 -736.99483204 1819.74951744 C-739.08082557 1817.66324976 -741.16418533 1815.57436824 -743.24670982 1813.48463821 C-744.23674789 1812.49144849 -745.22736585 1811.49883644 -746.21860695 1810.50684738 C-751.27364402 1805.44382354 -756.23635709 1800.35449129 -760.88349915 1794.91197205 C-763.40505756 1791.98463059 -766.07969054 1789.20045802 -768.73046875 1786.390625 C-773.43700149 1781.36623799 -777.88404939 1776.21329109 -782.1875 1770.8359375 C-784.44579338 1768.09343346 -786.81328209 1765.4937491 -789.23046875 1762.890625 C-793.49524873 1758.25614273 -797.40267688 1753.43438545 -801.25390625 1748.45898438 C-804.16766076 1744.69811304 -807.15566939 1741.02266955 -810.23046875 1737.390625 C-815.96599628 1730.55699806 -821.35369502 1723.47081424 -826.72949219 1716.35253906 C-828.27801912 1714.30550737 -829.83520289 1712.26537163 -831.39453125 1710.2265625 C-837.44063037 1702.28596601 -843.18467966 1694.17984374 -848.78125 1685.91625977 C-851.56596523 1681.80586911 -854.38582417 1677.74594693 -857.35546875 1673.765625 C-863.42107602 1665.52098655 -868.84015825 1656.82029148 -874.35546875 1648.203125 C-874.87189941 1647.39746094 -875.38833008 1646.59179688 -875.92041016 1645.76171875 C-886.51821408 1629.19817325 -896.71753606 1612.40611303 -906.24462891 1595.20263672 C-907.3921628 1593.13707572 -908.55053235 1591.07788591 -909.7109375 1589.01953125 C-916.53174108 1576.88788342 -922.99607727 1564.58197174 -929.35546875 1552.203125 C-930.11899658 1550.72706787 -930.11899658 1550.72706787 -930.89794922 1549.22119141 C-940.53821039 1530.53995321 -949.13763964 1511.4461122 -957.50256348 1492.16809082 C-958.26496653 1490.41162855 -959.03023971 1488.65641272 -959.79589844 1486.90136719 C-995.80963648 1403.99502942 -1019.41912464 1315.45989957 -1042.21472168 1134.45129395 C-1042.30668195 1132.9824021 -1042.4019962 1131.51371535 -1042.50109863 1130.04528809 C-1043.82764368 1110.01030885 -1043.59981924 1089.89680961 -1043.60546875 1069.828125 C-1043.60605789 1068.87035534 -1043.60664703 1067.91258568 -1043.60725403 1066.92579269 C-1043.61977574 1038.06810517 -1043.27810964 1009.3804288 -1040.58007812 980.62664795 C-1040.35433147 978.1908538 -1040.14207789 975.75422268 -1039.93359375 973.31689453 C-1034.92572454 915.20994497 -1024.77611098 857.6925944 -1010.35546875 801.203125 C-1010.15004456 800.39498352 -1009.94462036 799.58684204 -1009.73297119 798.75421143 C-995.82971194 744.20663728 -977.37656893 690.58155645 -954.35546875 639.203125 C-953.67025146 637.67147705 -953.67025146 637.67147705 -952.97119141 636.10888672 C-946.03859094 620.67825988 -938.75468559 605.41460938 -931.35546875 590.203125 C-930.92911133 589.32172852 -930.50275391 588.44033203 -930.06347656 587.53222656 C-924.33432446 575.71499847 -918.09923317 564.25520176 -911.57421875 552.859375 C-909.07190894 548.48479063 -906.63942787 544.07806094 -904.24121094 539.64575195 C-890.33692183 513.97925517 -874.54934577 489.12061256 -857.77880859 465.234375 C-856.19872461 462.97943525 -854.63037103 460.71657214 -853.0625 458.453125 C-838.6011627 437.62126164 -823.3747649 417.52655215 -807.34765625 397.8828125 C-804.97108823 394.96725958 -802.62501729 392.02947273 -800.29296875 389.078125 C-795.65038952 383.25786844 -790.77154658 377.64299292 -785.90673828 372.00878906 C-784.40986834 370.26644564 -782.92548127 368.514353 -781.4453125 366.7578125 C-774.36319604 358.37402096 -766.9508462 350.35178508 -759.39916992 342.39038086 C-757.96257883 340.85288001 -756.54221457 339.30013489 -755.1340332 337.73657227 C-746.83047289 328.52625962 -738.08035941 319.77632512 -729.30249023 311.01977539 C-726.65948215 308.3821557 -724.02189894 305.7391951 -721.38476562 303.09570312 C-719.6839145 301.3955124 -717.98275341 299.69563169 -716.28125 297.99609375 C-715.50397049 297.21679001 -714.72669098 296.43748627 -713.92585754 295.63456726 C-709.7919371 291.51814483 -705.58156258 287.55607255 -701.15063477 283.76017761 C-698.02357011 281.04789132 -695.04674583 278.17523888 -692.04296875 275.328125 C-686.84443444 270.43462652 -681.53556522 265.7920238 -675.953125 261.3359375 C-673.21991989 259.09183225 -670.63410282 256.73444747 -668.04296875 254.328125 C-663.43275518 250.08515461 -658.63619917 246.20435837 -653.68383789 242.37719727 C-649.68506359 239.27802496 -645.81109325 236.0695016 -641.98046875 232.765625 C-635.36153567 227.08733577 -628.41279338 221.8968897 -621.39941406 216.71923828 C-619.38365602 215.22403314 -617.37946314 213.71468748 -615.37890625 212.19921875 C-605.85119777 204.98588582 -596.15924945 198.03569557 -586.35546875 191.203125 C-585.75573242 190.78401855 -585.15599609 190.36491211 -584.53808594 189.93310547 C-548.5336136 164.78307275 -510.76927739 142.40261024 -472.07666016 121.66357422 C-469.6699801 120.3719216 -467.26786616 119.07228861 -464.8671875 117.76953125 C-430.37281416 99.1428149 -393.988536 83.79478727 -357.42041016 69.76611328 C-353.98906351 68.44969845 -350.56750939 67.10973787 -347.1484375 65.76171875 C-263.81169024 33.26309615 -173.93469924 13.77821437 -46.8515625 1.81640625 C-46.15887268 1.76867569 -45.46618286 1.72094513 -44.75250244 1.67176819 C-42.28729963 1.5072121 -39.82149118 1.35494003 -37.35546875 1.203125 C-36.06216141 1.11946686 -34.76885406 1.03580872 -33.43635559 0.94961548 C-22.28527547 0.25590199 -11.17081623 0.02677025 0 0 Z " fill="#FF9E00" transform="translate(1241.35546875,5.796875)"/>
<path d="M0 0 C1.81932601 -0.00702099 3.63865177 -0.01410782 5.45797729 -0.02125549 C11.24933216 -0.04068195 17.0406471 -0.04569043 22.83203125 -0.046875 C24.31233889 -0.04753778 24.31233889 -0.04753778 25.82255173 -0.04821396 C54.9650322 -0.05505845 83.96312802 0.15752256 112.99658203 2.94989014 C115.78213675 3.21628481 118.56864127 3.47043133 121.35546875 3.72314453 C197.92488137 10.74329164 273.36520631 25.89958423 346.64453125 49.203125 C347.40965027 49.44591187 348.17476929 49.68869873 348.96307373 49.93884277 C414.94772105 70.92195012 479.19923341 98.39098259 539.64453125 132.203125 C540.5675 132.71552734 541.49046875 133.22792969 542.44140625 133.75585938 C557.0670998 141.87791461 571.43810554 150.36871164 585.64453125 159.203125 C586.55025879 159.76612305 587.45598633 160.32912109 588.38916016 160.90917969 C603.40912403 170.28077191 618.07563383 180.14732239 632.64453125 190.203125 C633.4422998 190.75210449 634.24006836 191.30108398 635.06201172 191.86669922 C647.22138172 200.25405105 658.94356748 209.19140935 670.64453125 218.203125 C672.05190655 219.28408437 673.45944389 220.36483282 674.8671875 221.4453125 C677.79579702 223.6942578 680.72140371 225.94705625 683.64453125 228.203125 C679.77772179 232.17285334 675.71780609 235.83789919 671.51953125 239.453125 C670.5282019 240.31019043 670.5282019 240.31019043 669.5168457 241.18457031 C664.82085556 245.22968178 660.04631731 249.16644808 655.22265625 253.05859375 C651.57483245 256.09291991 648.1041561 259.30891614 644.640625 262.55078125 C642.64453125 264.203125 642.64453125 264.203125 640.64453125 264.203125 C640.64453125 264.863125 640.64453125 265.523125 640.64453125 266.203125 C639.18359375 267.7109375 639.18359375 267.7109375 637.26953125 269.328125 C636.32980469 270.13636719 636.32980469 270.13636719 635.37109375 270.9609375 C633.64453125 272.203125 633.64453125 272.203125 631.64453125 272.203125 C631.64453125 272.863125 631.64453125 273.523125 631.64453125 274.203125 C630.31640625 275.54296875 630.31640625 275.54296875 628.39453125 277.140625 C617.37742021 286.5313084 606.76842292 296.47948294 596.8984375 307.078125 C595.64453125 308.203125 595.64453125 308.203125 593.64453125 308.203125 C593.64453125 308.863125 593.64453125 309.523125 593.64453125 310.203125 C592.98453125 310.203125 592.32453125 310.203125 591.64453125 310.203125 C591.64453125 310.863125 591.64453125 311.523125 591.64453125 312.203125 C590.98453125 312.203125 590.32453125 312.203125 589.64453125 312.203125 C589.31453125 313.193125 588.98453125 314.183125 588.64453125 315.203125 C587.98453125 315.203125 587.32453125 315.203125 586.64453125 315.203125 C586.64453125 315.863125 586.64453125 316.523125 586.64453125 317.203125 C585.98453125 317.203125 585.32453125 317.203125 584.64453125 317.203125 C584.2424646 318.09523682 584.2424646 318.09523682 583.83227539 319.00537109 C582.63473426 321.22125296 581.44134142 322.62392028 579.640625 324.3671875 C579.06505859 324.93179687 578.48949219 325.49640625 577.89648438 326.078125 C577.29771484 326.655625 576.69894531 327.233125 576.08203125 327.828125 C574.89103741 328.98472651 573.7021312 330.14348278 572.515625 331.3046875 C571.9889624 331.81338379 571.4622998 332.32208008 570.91967773 332.84619141 C569.52810955 334.19712605 569.52810955 334.19712605 568.64453125 336.203125 C567.98453125 336.203125 567.32453125 336.203125 566.64453125 336.203125 C566.64453125 336.863125 566.64453125 337.523125 566.64453125 338.203125 C565.98453125 338.203125 565.32453125 338.203125 564.64453125 338.203125 C564.38671875 338.77546875 564.12890625 339.3478125 563.86328125 339.9375 C562.53087183 342.41441495 560.99397007 344.3372416 559.14453125 346.453125 C558.231875 347.51273437 558.231875 347.51273437 557.30078125 348.59375 C555.64453125 350.203125 555.64453125 350.203125 553.64453125 350.203125 C553.30615234 351.02103516 553.30615234 351.02103516 552.9609375 351.85546875 C551.25306696 354.90125568 548.97383359 357.25614631 546.58203125 359.765625 C542.21051609 364.44022236 538.09573434 369.24591544 534.08203125 374.234375 C531.21526322 377.72595145 528.24659807 381.11822047 525.26953125 384.515625 C519.6593244 390.94397012 514.32985043 397.54193711 509.12060547 404.29736328 C507.52581646 406.35639785 505.91640834 408.4034139 504.3046875 410.44921875 C496.71056381 420.10956193 489.40362929 429.93811162 482.26660156 439.93994141 C480.61975254 442.23769734 478.9587582 444.52453827 477.29296875 446.80859375 C470.98307535 455.46663275 464.83387673 464.19611742 458.97509766 473.16601562 C457.51923297 475.39495782 456.05629569 477.61918658 454.59375 479.84375 C443.92819981 496.11331544 433.74244507 512.66389345 423.70703125 529.328125 C423.09230957 530.34672607 422.47758789 531.36532715 421.84423828 532.41479492 C415.61555377 542.79961804 409.95572693 553.44951096 404.39453125 564.203125 C397.88171446 576.78634706 397.88171446 576.78634706 394.96484375 582.20703125 C388.7515508 593.76994619 383.23867984 605.58745265 377.84619141 617.55322266 C376.31363887 620.93280926 374.73243608 624.28669714 373.14453125 627.640625 C361.0316766 653.59263187 349.80873603 680.06225605 340.66259766 707.21533203 C339.67192276 710.12273715 338.65969277 713.02207516 337.64126587 715.91986084 C330.29358931 736.8313758 323.62366842 757.86020778 317.64453125 779.203125 C317.29438965 780.44803711 316.94424805 781.69294922 316.58349609 782.97558594 C294.28329964 862.85529489 281.5879969 945.33375505 278.64453125 1028.203125 C278.61637329 1028.97634094 278.58821533 1029.74955688 278.5592041 1030.54620361 C277.49850319 1059.80626631 277.48233371 1088.94512588 278.64453125 1118.203125 C278.69303223 1119.45802734 278.7415332 1120.71292969 278.79150391 1122.00585938 C281.21812187 1180.09061942 289.50526027 1238.38007987 301.64453125 1295.203125 C301.82566467 1296.05269775 302.0067981 1296.90227051 302.19342041 1297.77758789 C311.16144351 1339.64479634 322.8599941 1380.83261394 336.96606445 1421.2555542 C337.62772054 1423.15486906 338.2836624 1425.05617152 338.93945312 1426.95751953 C353.27194936 1468.45132591 370.31011352 1509.69113603 390.38330078 1548.74707031 C391.33822604 1550.60664215 392.28899394 1552.46834964 393.23779297 1554.33105469 C401.65541298 1570.8518766 410.35072467 1587.15390834 419.64453125 1603.203125 C420.29679687 1604.3375 420.9490625 1605.471875 421.62109375 1606.640625 C430.52848326 1622.13115366 439.72274389 1637.34806455 449.65087891 1652.21337891 C451.4334073 1654.88651664 453.205646 1657.56618237 454.973526 1660.24902344 C463.40097751 1673.0355478 471.94361952 1685.71187874 481.04394531 1698.03320312 C482.76019955 1700.35993706 484.46461266 1702.69505948 486.16796875 1705.03125 C496.74775523 1719.51119377 507.83242386 1733.51785555 519.17675781 1747.40332031 C520.45949257 1748.97622794 521.73612538 1750.55410784 523.01171875 1752.1328125 C531.80090173 1762.98246329 541.00271484 1773.47557757 550.4296875 1783.7734375 C554.48415803 1788.22119882 558.45384366 1792.73619494 562.26953125 1797.390625 C564.11347833 1799.57424654 565.99626223 1801.58628437 568.02212524 1803.59387207 C570.03537424 1805.59079937 572.03537352 1807.60066728 574.03588867 1809.61035156 C578.14859809 1813.73897698 582.26344665 1817.8654615 586.37992382 1821.99032974 C588.86259335 1824.47824531 591.3443057 1826.96710127 593.82397461 1829.45800781 C596.69239897 1832.33934097 599.56482981 1835.21664986 602.4375 1838.09375 C603.33019089 1838.99160217 604.22288177 1839.88945435 605.1426239 1840.81451416 C605.96720596 1841.63917175 606.79178802 1842.46382935 607.64135742 1843.31347656 C608.73126228 1844.40671234 608.73126228 1844.40671234 609.84318542 1845.52203369 C611.54969199 1847.27374673 611.54969199 1847.27374673 613.64453125 1848.203125 C613.64453125 1848.863125 613.64453125 1849.523125 613.64453125 1850.203125 C614.30453125 1850.203125 614.96453125 1850.203125 615.64453125 1850.203125 C615.64453125 1850.863125 615.64453125 1851.523125 615.64453125 1852.203125 C616.2271875 1852.47125 616.80984375 1852.739375 617.41015625 1853.015625 C619.67239726 1854.21793491 621.45029443 1855.54138413 623.39453125 1857.203125 C624.008125 1857.71875 624.62171875 1858.234375 625.25390625 1858.765625 C626.64453125 1860.203125 626.64453125 1860.203125 626.64453125 1862.203125 C627.17949219 1862.41839844 627.71445313 1862.63367187 628.265625 1862.85546875 C631.51396527 1864.69566151 634.02850611 1867.20172947 636.70703125 1869.765625 C641.57751997 1874.34575634 646.56155624 1878.67943926 651.77734375 1882.8671875 C655.65995872 1886.03040787 659.43006618 1889.31803661 663.21118164 1892.60131836 C666.29512202 1895.25810137 669.41804238 1897.83120084 672.6484375 1900.30859375 C673.29643311 1900.80568848 673.94442871 1901.3027832 674.61206055 1901.81494141 C675.86087821 1902.76470136 677.1160693 1903.70615264 678.37817383 1904.63818359 C679.85424176 1905.75877986 681.25742414 1906.9741228 682.64453125 1908.203125 C682.64453125 1911.203125 682.64453125 1911.203125 681.29370117 1912.60668945 C680.66052979 1913.088396 680.0273584 1913.57010254 679.375 1914.06640625 C678.30439331 1914.89084229 678.30439331 1914.89084229 677.2121582 1915.73193359 C676.42671631 1916.32055176 675.64127441 1916.90916992 674.83203125 1917.515625 C674.01887451 1918.13518066 673.20571777 1918.75473633 672.36791992 1919.39306641 C669.8018648 1921.34118964 667.22465251 1923.27368145 664.64453125 1925.203125 C663.87012695 1925.78594238 663.09572266 1926.36875977 662.29785156 1926.96923828 C622.1926993 1957.11278821 579.68031041 1984.18178474 535.64453125 2008.203125 C534.52578613 2008.81397949 533.40704102 2009.42483398 532.25439453 2010.05419922 C503.95760191 2025.45886357 475.19898841 2039.39718583 445.64453125 2052.203125 C444.96201294 2052.49958923 444.27949463 2052.79605347 443.57629395 2053.10150146 C374.92803312 2082.90296234 302.99652193 2104.57697975 229.64453125 2119.203125 C228.9097052 2119.34987671 228.17487915 2119.49662842 227.41778564 2119.64782715 C194.79041722 2126.13402999 161.86358548 2130.65540626 128.76953125 2133.953125 C127.27755219 2134.10456467 127.27755219 2134.10456467 125.75543213 2134.25906372 C93.1017478 2137.5380962 60.5105912 2138.5870472 27.70991135 2138.52118301 C24.8442962 2138.51552583 21.97868702 2138.51271589 19.11306763 2138.51010132 C-9.80482351 2138.47178302 -38.5486948 2137.94949061 -67.35546875 2135.203125 C-68.29348328 2135.11591187 -69.2314978 2135.02869873 -70.19793701 2134.93884277 C-127.29290921 2129.6210743 -183.71186075 2120.05635609 -239.35546875 2106.203125 C-240.14530151 2106.00652283 -240.93513428 2105.80992065 -241.74890137 2105.60736084 C-312.09296791 2088.00935772 -380.30439021 2062.11601624 -445.35546875 2030.203125 C-446.48009521 2029.65325928 -446.48009521 2029.65325928 -447.62744141 2029.09228516 C-452.22590495 2026.83930066 -456.79434461 2024.53063848 -461.35546875 2022.203125 C-462.42587402 2021.65897949 -463.4962793 2021.11483398 -464.59912109 2020.55419922 C-490.86466966 2007.19043917 -490.86466966 2007.19043917 -502.3828125 2000.03125 C-505.0626382 1998.38321002 -507.76567784 1996.8661933 -510.54296875 1995.390625 C-515.91107474 1992.5093927 -521.13169653 1989.39834441 -526.35546875 1986.265625 C-527.17426514 1985.77537842 -527.99306152 1985.28513184 -528.83666992 1984.7800293 C-550.8986281 1971.49373523 -572.405598 1957.17543922 -593.35546875 1942.203125 C-594.53858643 1941.36007812 -594.53858643 1941.36007812 -595.74560547 1940.5 C-605.43450968 1933.58756435 -614.96227683 1926.51160341 -624.35546875 1919.203125 C-625.92573164 1918.00579955 -627.49600343 1916.8084852 -629.06713867 1915.61230469 C-640.23015234 1907.09320748 -651.09282847 1898.19421277 -661.77563477 1889.08178711 C-665.07134356 1886.27334571 -668.4148417 1883.5365359 -671.79296875 1880.828125 C-677.47321333 1876.21085016 -682.78144603 1871.23145692 -688.1171875 1866.2265625 C-692.87977872 1861.76275194 -697.76685757 1857.47800482 -702.85546875 1853.390625 C-703.68046875 1852.66875 -704.50546875 1851.946875 -705.35546875 1851.203125 C-705.35546875 1850.543125 -705.35546875 1849.883125 -705.35546875 1849.203125 C-705.92130173 1848.9622818 -706.4871347 1848.7214386 -707.07011414 1848.47329712 C-709.82320679 1846.94316192 -711.69491102 1845.11063272 -713.92114258 1842.88037109 C-714.8192012 1841.9853891 -715.71725983 1841.0904071 -716.64253235 1840.16830444 C-717.61603299 1839.1879006 -718.58935092 1838.2073153 -719.5625 1837.2265625 C-720.57097946 1836.21688939 -721.57983057 1835.20758736 -722.58903503 1834.19863892 C-724.70447945 1832.08163118 -726.81652713 1829.96131146 -728.92602539 1827.83837891 C-731.61053615 1825.13697679 -734.30148288 1822.44210454 -736.99483204 1819.74951744 C-739.08082557 1817.66324976 -741.16418533 1815.57436824 -743.24670982 1813.48463821 C-744.23674789 1812.49144849 -745.22736585 1811.49883644 -746.21860695 1810.50684738 C-751.27364402 1805.44382354 -756.23635709 1800.35449129 -760.88349915 1794.91197205 C-763.40505756 1791.98463059 -766.07969054 1789.20045802 -768.73046875 1786.390625 C-773.43700149 1781.36623799 -777.88404939 1776.21329109 -782.1875 1770.8359375 C-784.44579338 1768.09343346 -786.81328209 1765.4937491 -789.23046875 1762.890625 C-793.49524873 1758.25614273 -797.40267688 1753.43438545 -801.25390625 1748.45898438 C-804.16766076 1744.69811304 -807.15566939 1741.02266955 -810.23046875 1737.390625 C-815.96599628 1730.55699806 -821.35369502 1723.47081424 -826.72949219 1716.35253906 C-828.27801912 1714.30550737 -829.83520289 1712.26537163 -831.39453125 1710.2265625 C-837.44063037 1702.28596601 -843.18467966 1694.17984374 -848.78125 1685.91625977 C-851.56596523 1681.80586911 -854.38582417 1677.74594693 -857.35546875 1673.765625 C-863.42107602 1665.52098655 -868.84015825 1656.82029148 -874.35546875 1648.203125 C-874.87189941 1647.39746094 -875.38833008 1646.59179688 -875.92041016 1645.76171875 C-886.51821408 1629.19817325 -896.71753606 1612.40611303 -906.24462891 1595.20263672 C-907.3921628 1593.13707572 -908.55053235 1591.07788591 -909.7109375 1589.01953125 C-916.53174108 1576.88788342 -922.99607727 1564.58197174 -929.35546875 1552.203125 C-930.11899658 1550.72706787 -930.11899658 1550.72706787 -930.89794922 1549.22119141 C-940.53821039 1530.53995321 -949.13763964 1511.4461122 -957.50256348 1492.16809082 C-958.26496653 1490.41162855 -959.03023971 1488.65641272 -959.79589844 1486.90136719 C-995.80963648 1403.99502942 -1019.41912464 1315.45989957 -1042.21472168 1134.45129395 C-1042.30668195 1132.9824021 -1042.4019962 1131.51371535 -1042.50109863 1130.04528809 C-1043.82764368 1110.01030885 -1043.59981924 1089.89680961 -1043.60546875 1069.828125 C-1043.60605789 1068.87035534 -1043.60664703 1067.91258568 -1043.60725403 1066.92579269 C-1043.61977574 1038.06810517 -1043.27810964 1009.3804288 -1040.58007812 980.62664795 C-1040.35433147 978.1908538 -1040.14207789 975.75422268 -1039.93359375 973.31689453 C-1034.92572454 915.20994497 -1024.77611098 857.6925944 -1010.35546875 801.203125 C-1010.15004456 800.39498352 -1009.94462036 799.58684204 -1009.73297119 798.75421143 C-995.82971194 744.20663728 -977.37656893 690.58155645 -954.35546875 639.203125 C-953.67025146 637.67147705 -953.67025146 637.67147705 -952.97119141 636.10888672 C-946.03859094 620.67825988 -938.75468559 605.41460938 -931.35546875 590.203125 C-930.92911133 589.32172852 -930.50275391 588.44033203 -930.06347656 587.53222656 C-924.33432446 575.71499847 -918.09923317 564.25520176 -911.57421875 552.859375 C-909.07190894 548.48479063 -906.63942787 544.07806094 -904.24121094 539.64575195 C-890.33692183 513.97925517 -874.54934577 489.12061256 -857.77880859 465.234375 C-856.19872461 462.97943525 -854.63037103 460.71657214 -853.0625 458.453125 C-838.6011627 437.62126164 -823.3747649 417.52655215 -807.34765625 397.8828125 C-804.97108823 394.96725958 -802.62501729 392.02947273 -800.29296875 389.078125 C-795.65038952 383.25786844 -790.77154658 377.64299292 -785.90673828 372.00878906 C-784.40986834 370.26644564 -782.92548127 368.514353 -781.4453125 366.7578125 C-774.36319604 358.37402096 -766.9508462 350.35178508 -759.39916992 342.39038086 C-757.96257883 340.85288001 -756.54221457 339.30013489 -755.1340332 337.73657227 C-746.83047289 328.52625962 -738.08035941 319.77632512 -729.30249023 311.01977539 C-726.65948215 308.3821557 -724.02189894 305.7391951 -721.38476562 303.09570312 C-719.6839145 301.3955124 -717.98275341 299.69563169 -716.28125 297.99609375 C-715.50397049 297.21679001 -714.72669098 296.43748627 -713.92585754 295.63456726 C-709.7919371 291.51814483 -705.58156258 287.55607255 -701.15063477 283.76017761 C-698.02357011 281.04789132 -695.04674583 278.17523888 -692.04296875 275.328125 C-686.84443444 270.43462652 -681.53556522 265.7920238 -675.953125 261.3359375 C-673.21991989 259.09183225 -670.63410282 256.73444747 -668.04296875 254.328125 C-663.43275518 250.08515461 -658.63619917 246.20435837 -653.68383789 242.37719727 C-649.68506359 239.27802496 -645.81109325 236.0695016 -641.98046875 232.765625 C-635.36153567 227.08733577 -628.41279338 221.8968897 -621.39941406 216.71923828 C-619.38365602 215.22403314 -617.37946314 213.71468748 -615.37890625 212.19921875 C-605.85119777 204.98588582 -596.15924945 198.03569557 -586.35546875 191.203125 C-585.75573242 190.78401855 -585.15599609 190.36491211 -584.53808594 189.93310547 C-548.5336136 164.78307275 -510.76927739 142.40261024 -472.07666016 121.66357422 C-469.6699801 120.3719216 -467.26786616 119.07228861 -464.8671875 117.76953125 C-430.37281416 99.1428149 -393.988536 83.79478727 -357.42041016 69.76611328 C-353.98906351 68.44969845 -350.56750939 67.10973787 -347.1484375 65.76171875 C-263.81169024 33.26309615 -173.93469924 13.77821437 -46.8515625 1.81640625 C-46.15887268 1.76867569 -45.46618286 1.72094513 -44.75250244 1.67176819 C-42.28729963 1.5072121 -39.82149118 1.35494003 -37.35546875 1.203125 C-36.06216141 1.11946686 -34.76885406 1.03580872 -33.43635559 0.94961548 C-22.28527547 0.25590199 -11.17081623 0.02677025 0 0 Z " fill="#FF0014" transform="translate(1241.35546875,5.796875)"/>
<path d="M0 0 C2.32915182 0.86223277 3.79162723 1.91259056 5.69262695 3.5065918 C6.37502441 4.0735376 7.05742188 4.6404834 7.76049805 5.22460938 C8.48317871 5.83715576 9.20585938 6.44970215 9.95043945 7.08081055 C10.70276855 7.70947021 11.45509766 8.33812988 12.23022461 8.98583984 C17.58101913 13.4689227 22.88854903 18.00364454 28.17089844 22.56713867 C31.73241968 25.6401075 35.34896252 28.62968899 39.01293945 31.58081055 C42.70153172 34.57374725 46.10272565 37.67775628 49.40356445 41.08862305 C53.16173268 44.86435281 57.28938942 48.2631436 61.3605957 51.6940918 C62.09149414 52.31670898 62.82239258 52.93932617 63.57543945 53.58081055 C64.24575195 54.14413086 64.91606445 54.70745117 65.60668945 55.2878418 C67.07543945 56.76831055 67.07543945 56.76831055 67.07543945 58.76831055 C67.65680664 59.0209668 68.23817383 59.27362305 68.8371582 59.53393555 C71.33615563 60.9120912 72.92378649 62.4541498 74.88793945 64.51831055 C77.5117829 67.2258413 80.16508526 69.74654827 83.07543945 72.14331055 C84.06543945 73.00956055 85.05543945 73.87581055 86.07543945 74.76831055 C86.07543945 75.42831055 86.07543945 76.08831055 86.07543945 76.76831055 C87.39543945 77.42831055 88.71543945 78.08831055 90.07543945 78.76831055 C90.07543945 79.42831055 90.07543945 80.08831055 90.07543945 80.76831055 C91.39543945 81.42831055 92.71543945 82.08831055 94.07543945 82.76831055 C94.07543945 83.42831055 94.07543945 84.08831055 94.07543945 84.76831055 C95.39543945 85.42831055 96.71543945 86.08831055 98.07543945 86.76831055 C98.07543945 87.42831055 98.07543945 88.08831055 98.07543945 88.76831055 C98.73543945 88.76831055 99.39543945 88.76831055 100.07543945 88.76831055 C101.6262207 90.3425293 101.6262207 90.3425293 103.38793945 92.45581055 C107.00382723 96.70803468 110.85238577 100.5996148 114.88793945 104.45581055 C117.07543945 106.76831055 117.07543945 106.76831055 117.07543945 108.76831055 C117.66067383 109.01838867 118.2459082 109.2684668 118.84887695 109.52612305 C121.37076651 110.93307196 122.82630008 112.45543859 124.70043945 114.64331055 C125.29083008 115.32135742 125.8812207 115.9994043 126.48950195 116.69799805 C127.98862033 118.65497524 129.06113013 120.52879591 130.07543945 122.76831055 C130.73543945 122.76831055 131.39543945 122.76831055 132.07543945 122.76831055 C133.38012695 124.02612305 133.38012695 124.02612305 134.95043945 125.89331055 C135.57305664 126.62549805 136.19567383 127.35768555 136.8371582 128.11206055 C137.94510742 129.4269043 137.94510742 129.4269043 139.07543945 130.76831055 C140.463294 132.38997996 141.85468951 134.00857288 143.24609375 135.62719727 C144.79869775 137.4349451 146.34744346 139.24594548 147.89575195 141.05737305 C149.96514644 143.47652434 152.04321253 145.88769788 154.13012695 148.29174805 C160.05096514 155.12569784 165.76137143 162.07903531 171.3059082 169.22143555 C173.15916506 171.60654228 175.03626098 173.96914046 176.9387207 176.31518555 C184.97986748 186.23157226 192.57057315 196.44178222 200.07543945 206.76831055 C200.6394043 207.54142578 201.20336914 208.31454102 201.78442383 209.11108398 C209.39343898 219.54365354 216.83662952 230.07549116 224.07543945 240.76831055 C224.47794922 241.36111816 224.88045898 241.95392578 225.29516602 242.56469727 C235.93761504 258.26731319 246.19950377 274.2643761 255.81176758 290.61938477 C256.74012038 292.19808673 257.6715586 293.77497535 258.60473633 295.35083008 C267.45545585 310.30255608 275.94566333 325.41284952 284.07543945 340.76831055 C284.95087402 342.41645752 284.95087402 342.41645752 285.84399414 344.09790039 C308.43113955 386.7537427 328.11695651 430.88830244 344.23425293 476.39447021 C345.11263514 478.87327731 345.99593506 481.35030386 346.87915039 483.82739258 C377.46488189 569.87064252 395.76195256 658.86486673 406.97827148 795.62133789 C407.07748678 798.83461708 407.2105647 802.04494372 407.3527832 805.2565918 C408.50532408 831.96166488 408.73018313 858.79549145 407.25073242 885.49145508 C407.08626022 888.56603145 406.94161469 891.64109837 406.80229187 894.71690369 C405.84628337 915.61668817 404.09984114 936.36463057 401.79446411 957.15769958 C401.30813789 961.55732073 400.86165882 965.95702612 400.46606445 970.3659668 C394.16282971 1038.03160108 377.60774019 1106.08200195 356.76171875 1170.63909912 C356.10484298 1172.67708482 355.45344323 1174.71672968 354.80395508 1176.75708008 C344.3615658 1209.44209481 331.89065137 1241.37096228 318.07543945 1272.76831055 C317.78151306 1273.43759583 317.48758667 1274.1068811 317.18475342 1274.79644775 C304.09843168 1304.5584159 290.00507078 1333.8925506 273.65844727 1362.01245117 C271.97082 1364.95044262 270.32738608 1367.90996898 268.69262695 1370.87768555 C261.22684808 1384.4250203 253.36338556 1397.63927767 245.04467773 1410.67993164 C242.97261366 1413.92957341 240.91239136 1417.18654347 238.8527832 1420.4440918 C237.44849659 1422.65675122 236.04356563 1424.86900186 234.63793945 1427.08081055 C234.00001465 1428.08821289 233.36208984 1429.09561523 232.70483398 1430.13354492 C228.98591843 1435.95445623 225.08522234 1441.58421084 220.98828125 1447.14501953 C218.12236922 1451.07536092 215.41750201 1455.10942601 212.70043945 1459.14331055 C207.82956383 1466.31322822 202.77978083 1473.24447901 197.41479492 1480.05493164 C195.35585931 1482.68883797 193.33447344 1485.35106449 191.30932617 1488.01098633 C182.34884031 1499.77767752 173.30962917 1511.42884873 163.70043945 1522.67456055 C161.23627981 1525.56382375 158.83882946 1528.50349513 156.45043945 1531.45581055 C152.8270945 1535.90734863 149.05580073 1540.1921351 145.19262695 1544.4362793 C143.29492776 1546.52654944 141.42810531 1548.6381717 139.57543945 1550.76831055 C136.19324006 1554.65157652 132.74690818 1558.47468868 129.2902832 1562.29174805 C126.62873546 1565.26779967 124.04625875 1568.30676312 121.4855957 1571.36987305 C120.07543945 1572.76831055 120.07543945 1572.76831055 118.07543945 1572.76831055 C117.81375977 1573.35741211 117.55208008 1573.94651367 117.2824707 1574.5534668 C116.01121195 1576.88616489 114.67313414 1578.37185423 112.76293945 1580.20581055 C111.83481445 1581.10879883 111.83481445 1581.10879883 110.88793945 1582.0300293 C110.28981445 1582.60366211 109.69168945 1583.17729492 109.07543945 1583.76831055 C106.38907387 1586.39497911 104.15958252 1588.64209595 102.07543945 1591.76831055 C101.41543945 1591.76831055 100.75543945 1591.76831055 100.07543945 1591.76831055 C100.07543945 1592.42831055 100.07543945 1593.08831055 100.07543945 1593.76831055 C98.7199707 1595.06518555 98.7199707 1595.06518555 96.88793945 1596.51831055 C94.48016028 1598.50460725 92.39200786 1600.44929153 90.45043945 1602.89331055 C88.16977317 1605.6541171 85.8928926 1607.58478436 83.07543945 1609.76831055 C80.62488952 1612.15909097 78.24050554 1614.59381212 75.88793945 1617.08081055 C74.07543945 1618.76831055 74.07543945 1618.76831055 72.07543945 1618.76831055 C71.82665039 1619.35483398 71.57786133 1619.94135742 71.3215332 1620.5456543 C69.9013275 1623.07887388 68.36360199 1624.47816407 66.13793945 1626.33081055 C63.19237902 1628.80021188 63.19237902 1628.80021188 60.4465332 1631.4831543 C59.07543945 1632.76831055 59.07543945 1632.76831055 57.07543945 1632.76831055 C57.07543945 1633.42831055 57.07543945 1634.08831055 57.07543945 1634.76831055 C55.67700195 1636.21362305 55.67700195 1636.21362305 53.70043945 1637.89331055 C52.97469727 1638.51206055 52.24895508 1639.13081055 51.5012207 1639.76831055 C48.19900611 1642.49090937 44.84675344 1645.1467058 41.4699707 1647.77612305 C38.84008725 1649.96411744 36.49186521 1652.34812674 34.07543945 1654.76831055 C32.42863545 1656.16703831 30.7611174 1657.54168463 29.07543945 1658.89331055 C25.384721 1661.877719 21.72990629 1664.89245505 18.11816406 1667.97192383 C15.94689875 1669.82247377 13.76604214 1671.66145065 11.58276367 1673.49780273 C10.18133133 1674.6790554 8.78631724 1675.86791115 7.3918457 1677.05737305 C6.60680664 1677.70448242 5.82176758 1678.3515918 5.01293945 1679.01831055 C4.34133789 1679.5803418 3.66973633 1680.14237305 2.9777832 1680.72143555 C1.07543945 1681.76831055 1.07543945 1681.76831055 -0.81079102 1681.51147461 C-3.23004021 1680.66090929 -4.689477 1679.57585605 -6.6472168 1677.92456055 C-7.34476074 1677.34246826 -8.04230469 1676.76037598 -8.76098633 1676.16064453 C-9.86289307 1675.22393921 -9.86289307 1675.22393921 -10.98706055 1674.26831055 C-12.52726709 1672.97775733 -14.06763147 1671.68739245 -15.6081543 1670.3972168 C-16.35307129 1669.76960449 -17.09798828 1669.14199219 -17.86547852 1668.49536133 C-20.40207252 1666.36779837 -22.97311145 1664.28484564 -25.54956055 1662.20581055 C-35.59457384 1653.99271457 -45.33450187 1645.41530065 -54.8503418 1636.59643555 C-56.79198658 1634.72797563 -56.79198658 1634.72797563 -58.92456055 1633.76831055 C-58.92456055 1633.10831055 -58.92456055 1632.44831055 -58.92456055 1631.76831055 C-59.79854492 1631.36612305 -59.79854492 1631.36612305 -60.69018555 1630.95581055 C-62.95242655 1629.75350064 -64.73032372 1628.43005142 -66.67456055 1626.76831055 C-67.2881543 1626.25268555 -67.90174805 1625.73706055 -68.53393555 1625.20581055 C-69.92456055 1623.76831055 -69.92456055 1623.76831055 -69.92456055 1621.76831055 C-70.58456055 1621.76831055 -71.24456055 1621.76831055 -71.92456055 1621.76831055 C-71.92456055 1621.10831055 -71.92456055 1620.44831055 -71.92456055 1619.76831055 C-72.49378235 1619.52375122 -73.06300415 1619.27919189 -73.6494751 1619.02722168 C-76.33262651 1617.54250857 -78.1546271 1615.79245702 -80.32592773 1613.62573242 C-81.18651794 1612.77144653 -82.04710815 1611.91716064 -82.93377686 1611.0369873 C-83.85370422 1610.11301147 -84.77363159 1609.18903564 -85.72143555 1608.23706055 C-86.67949691 1607.28034684 -87.63785497 1606.32393015 -88.59649658 1605.36779785 C-90.60023319 1603.36700492 -92.60031943 1601.36265105 -94.59790039 1599.35571289 C-97.16249884 1596.77968947 -99.73601265 1594.21278955 -102.31229782 1591.64846039 C-104.290685 1589.67728594 -106.26430155 1587.70139058 -108.23648834 1585.72401428 C-109.64533245 1584.31318284 -111.05821372 1582.90638665 -112.47113037 1581.49963379 C-113.31911194 1580.6453479 -114.16709351 1579.79106201 -115.04077148 1578.91088867 C-116.16850983 1577.78076355 -116.16850983 1577.78076355 -117.31903076 1576.62780762 C-118.92456055 1574.76831055 -118.92456055 1574.76831055 -118.92456055 1572.76831055 C-119.91456055 1572.43831055 -120.90456055 1572.10831055 -121.92456055 1571.76831055 C-123.3269043 1570.37768555 -123.3269043 1570.37768555 -124.86206055 1568.51831055 C-128.07169331 1564.72510819 -131.40576242 1561.08261571 -134.79956055 1557.45581055 C-139.31264734 1552.6091204 -143.56295965 1547.61847875 -147.7097168 1542.4519043 C-150.05032842 1539.61592513 -152.49546264 1536.90978209 -154.98706055 1534.20581055 C-158.73111318 1530.12869802 -162.26098208 1525.96080586 -165.6784668 1521.6081543 C-167.39629604 1519.43622063 -169.13169936 1517.28652508 -170.8894043 1515.1472168 C-177.9759745 1506.51808652 -184.79725552 1497.73789716 -191.44067383 1488.76391602 C-192.92386396 1486.76924735 -194.41981747 1484.78488397 -195.9206543 1482.8034668 C-207.44609077 1467.58094425 -218.29064986 1451.91516234 -228.86206055 1436.01831055 C-229.38403015 1435.23427856 -229.90599976 1434.45024658 -230.44378662 1433.64245605 C-246.97183595 1408.79582467 -262.30635377 1383.28374079 -276.63989258 1357.10668945 C-278.04735314 1354.54480096 -279.46821911 1351.99057776 -280.8894043 1349.4362793 C-286.57766886 1339.16825095 -291.926309 1328.82818416 -296.86206055 1318.1784668 C-298.71513998 1314.18384065 -300.6759026 1310.2540637 -302.67456055 1306.33081055 C-306.12824401 1299.50082463 -309.40222604 1292.58775355 -312.6373291 1285.65206909 C-313.45380595 1283.90208627 -314.27358633 1282.15364591 -315.09350586 1280.40527344 C-319.31916509 1271.30240155 -323.16868666 1262.07287175 -326.92456055 1252.76831055 C-327.2158786 1252.04872162 -327.50719666 1251.32913269 -327.80734253 1250.58773804 C-360.02557558 1170.93726105 -383.6405843 1088.55001437 -407.92456055 883.76831055 C-407.95271851 882.97555725 -407.98087646 882.18280396 -408.0098877 881.36602783 C-408.68201122 862.17790781 -409.25935667 842.96870593 -408.92456055 823.76831055 C-408.89773193 822.21104248 -408.89773193 822.21104248 -408.87036133 820.62231445 C-407.04684978 729.72625343 -394.25370563 638.14148527 -368.92456055 550.76831055 C-368.65530762 549.82358887 -368.38605469 548.87886719 -368.10864258 547.90551758 C-364.08036224 533.79406846 -359.71525909 519.79468116 -355.20877075 505.82977295 C-354.65485888 504.11319515 -354.10244977 502.39613153 -353.55172729 500.67852783 C-349.99148984 489.59497847 -346.05770918 478.73113722 -341.76483154 467.91168213 C-340.42467088 464.49318703 -339.15038393 461.05077106 -337.8737793 457.6081543 C-334.96276286 449.79365179 -331.88326349 442.05326544 -328.73706055 434.33081055 C-328.45965027 433.64875549 -328.18223999 432.96670044 -327.89642334 432.26397705 C-321.04350812 415.43741792 -314.09103979 398.61206709 -305.7800293 382.4440918 C-303.81256275 378.59565277 -301.97754588 374.68675513 -300.13134766 370.77905273 C-291.90060834 353.37502401 -283.23278185 336.23940309 -273.27612305 319.75268555 C-271.47807827 316.75312741 -269.78814303 313.70729572 -268.1237793 310.6315918 C-256.76987934 289.68795798 -244.21349274 269.53012703 -230.92456055 249.76831055 C-230.25086426 248.76590332 -229.57716797 247.76349609 -228.88305664 246.73071289 C-221.39875828 235.62339574 -213.81359903 224.59240448 -205.92456055 213.76831055 C-205.41103027 213.06174316 -204.8975 212.35517578 -204.3684082 211.62719727 C-189.57136552 191.29798522 -174.12117204 171.48318942 -157.80444336 152.34912109 C-154.97710103 149.03076296 -152.21808348 145.66615416 -149.48706055 142.26831055 C-145.4688744 137.31668007 -141.19545804 132.64253151 -136.82128906 128.0065918 C-134.05023723 125.12370668 -134.05023723 125.12370668 -131.92456055 121.76831055 C-131.26456055 121.76831055 -130.60456055 121.76831055 -129.92456055 121.76831055 C-129.66674805 121.1959668 -129.40893555 120.62362305 -129.14331055 120.03393555 C-127.81090113 117.5570206 -126.27399937 115.63419394 -124.42456055 113.51831055 C-123.81612305 112.8119043 -123.20768555 112.10549805 -122.58081055 111.37768555 C-120.92456055 109.76831055 -120.92456055 109.76831055 -118.92456055 109.76831055 C-118.92456055 109.10831055 -118.92456055 108.44831055 -118.92456055 107.76831055 C-118.26456055 107.76831055 -117.60456055 107.76831055 -116.92456055 107.76831055 C-116.65651611 107.17356934 -116.38847168 106.57882812 -116.11230469 105.96606445 C-114.91476355 103.75018258 -113.72137072 102.34751527 -111.9206543 100.60424805 C-111.05730469 99.75733398 -111.05730469 99.75733398 -110.17651367 98.89331055 C-109.27835938 98.02706055 -109.27835938 98.02706055 -108.36206055 97.14331055 C-107.17106671 95.98670904 -105.9821605 94.82795277 -104.7956543 93.66674805 C-104.2689917 93.15805176 -103.7423291 92.64935547 -103.19970703 92.12524414 C-101.80813885 90.7743095 -101.80813885 90.7743095 -100.92456055 88.76831055 C-100.26456055 88.76831055 -99.60456055 88.76831055 -98.92456055 88.76831055 C-98.92456055 88.10831055 -98.92456055 87.44831055 -98.92456055 86.76831055 C-97.54956055 85.14331055 -97.54956055 85.14331055 -95.92456055 83.76831055 C-95.26456055 83.76831055 -94.60456055 83.76831055 -93.92456055 83.76831055 C-93.92456055 83.10831055 -93.92456055 82.44831055 -93.92456055 81.76831055 C-93.26456055 81.76831055 -92.60456055 81.76831055 -91.92456055 81.76831055 C-91.92456055 81.10831055 -91.92456055 80.44831055 -91.92456055 79.76831055 C-91.26456055 79.76831055 -90.60456055 79.76831055 -89.92456055 79.76831055 C-89.59456055 78.77831055 -89.26456055 77.78831055 -88.92456055 76.76831055 C-87.4987793 75.3659668 -87.4987793 75.3659668 -85.61206055 73.83081055 C-81.11444517 70.04334496 -77.03453746 65.91440676 -72.96240234 61.68066406 C-71.65244157 60.34040284 -70.29218891 59.04967312 -68.92456055 57.76831055 C-68.26456055 57.76831055 -67.60456055 57.76831055 -66.92456055 57.76831055 C-66.59456055 56.77831055 -66.26456055 55.78831055 -65.92456055 54.76831055 C-64.2175293 53.0144043 -64.2175293 53.0144043 -62.11206055 51.20581055 C-61.42499023 50.60639648 -60.73791992 50.00698242 -60.0300293 49.3894043 C-58.0590021 47.87182306 -56.18491794 46.78928096 -53.92456055 45.76831055 C-53.92456055 45.10831055 -53.92456055 44.44831055 -53.92456055 43.76831055 C-52.46362305 42.26049805 -52.46362305 42.26049805 -50.54956055 40.64331055 C-49.92307617 40.10448242 -49.2965918 39.5656543 -48.65112305 39.01049805 C-46.92456055 37.76831055 -46.92456055 37.76831055 -44.92456055 37.76831055 C-44.92456055 37.10831055 -44.92456055 36.44831055 -44.92456055 35.76831055 C-43.35169371 34.35392649 -41.71316059 33.01226654 -40.04956055 31.70581055 C-36.23620492 28.6580519 -32.52647246 25.56330714 -28.92456055 22.26831055 C-24.64677837 18.3757315 -20.24433418 14.68111861 -15.73706055 11.05737305 C-13.77320477 9.45901265 -11.83754097 7.82566075 -9.92456055 6.16674805 C-8.47049805 4.91764648 -8.47049805 4.91764648 -6.98706055 3.64331055 C-6.11178711 2.87760742 -5.23651367 2.1119043 -4.3347168 1.32299805 C-1.92456055 -0.23168945 -1.92456055 -0.23168945 0 0 Z " fill="#FF5E00" transform="translate(1926.924560546875,234.231689453125)"/>
</svg>
