<?xml version="1.0" encoding="UTF-8"?>
<svg version="1.1" xmlns="http://www.w3.org/2000/svg" width="525" height="210">
<path d="M0 0 C0.64987928 -0.00367669 1.29975856 -0.00735338 1.96933115 -0.01114148 C4.13926072 -0.0221231 6.30914232 -0.02601273 8.47909546 -0.02983093 C10.03832143 -0.03609982 11.59754592 -0.042747 13.1567688 -0.04974365 C18.27119923 -0.07073818 23.38562979 -0.08114266 28.50009155 -0.09111023 C30.26463206 -0.0951597 32.02917242 -0.09927667 33.79371262 -0.10346031 C42.08627491 -0.12250293 50.37882836 -0.13673515 58.6714083 -0.14507228 C68.22519843 -0.15483746 77.77875643 -0.18114206 87.33246481 -0.22157317 C94.72885663 -0.25179403 102.12518213 -0.26654686 109.52163446 -0.26985329 C113.93352027 -0.27219721 118.34515783 -0.28107131 122.75697708 -0.30631447 C126.91196517 -0.32970465 131.06654348 -0.33378483 135.22158051 -0.32355309 C136.73923231 -0.32306024 138.25690506 -0.32930582 139.77449417 -0.34310913 C151.88334819 -0.44700644 161.6933479 0.85558979 170.74227905 9.46357727 C171.5621228 10.29695618 171.5621228 10.29695618 172.39852905 11.14717102 C172.96571655 11.71306946 173.53290405 12.2789679 174.11727905 12.86201477 C174.54009155 13.28611633 174.96290405 13.7102179 175.39852905 14.14717102 C176.05208374 13.3505304 176.05208374 13.3505304 176.71884155 12.53779602 C183.21325534 4.83446538 188.4621216 1.59236039 198.39852905 0.14717102 C202.03516977 -0.10885396 205.65263285 -0.12365129 209.29722595 -0.10679626 C210.34889306 -0.10991625 211.40056018 -0.11303623 212.48409599 -0.11625075 C215.98370804 -0.12418397 219.48314444 -0.11792537 222.98275757 -0.11161804 C225.50161846 -0.11432996 228.02047856 -0.11789202 230.53933716 -0.12223816 C236.65580234 -0.13039607 242.77220321 -0.12922292 248.8886692 -0.12341288 C253.8616604 -0.11888562 258.83463786 -0.11828808 263.80763054 -0.12046051 C264.51694497 -0.12076698 265.22625941 -0.12107344 265.95706822 -0.1213892 C267.3982703 -0.12202868 268.83947238 -0.12267711 270.28067445 -0.12333438 C283.77564324 -0.12902927 297.27058479 -0.12249279 310.76554912 -0.11173365 C322.33259446 -0.10279696 333.89959966 -0.10435277 345.46664429 -0.11357117 C358.9167584 -0.12428534 372.36684869 -0.12848205 385.81696647 -0.12234664 C387.25239209 -0.12170958 388.68781771 -0.12108083 390.12324333 -0.12046051 C390.82940338 -0.12015196 391.53556344 -0.11984341 392.26312228 -0.11952551 C397.22784036 -0.11780215 402.19254326 -0.12070586 407.15725899 -0.12541962 C413.8443105 -0.13162944 420.53127469 -0.12717917 427.21832275 -0.1156311 C429.67047436 -0.11298959 432.12263236 -0.11374092 434.57478142 -0.11815643 C437.92554521 -0.1236332 441.27606733 -0.1167517 444.6268158 -0.10679626 C446.07722121 -0.11348843 446.07722121 -0.11348843 447.55692774 -0.12031579 C457.82373206 -0.06127793 466.48526116 1.54160712 474.12509155 8.78388977 C480.51527623 15.78790992 482.51466178 23.30158707 482.53897095 32.67944336 C482.54342763 33.64306997 482.54342763 33.64306997 482.54797435 34.62616378 C482.55661997 36.77079348 482.55816608 38.91536709 482.55966187 41.06001282 C482.56429302 42.6011568 482.56931809 44.14229964 482.57470703 45.68344116 C482.5878056 49.8655009 482.59427119 54.04754461 482.59871769 58.22962165 C482.60165293 60.84539297 482.60575863 63.46115996 482.61022186 66.07692909 C482.623891 74.26964601 482.63356013 82.46235296 482.63742375 90.6550805 C482.64190116 100.09620805 482.65943677 109.53719058 482.68842435 118.97827405 C482.71007982 126.28632929 482.72013012 133.59434386 482.72146487 140.90243083 C482.72251027 145.26225766 482.72836118 149.62194805 482.74628448 153.98174095 C482.76283184 158.08661045 482.76488856 162.19124195 482.75614548 166.29613304 C482.75537862 167.79645935 482.75967117 169.29679881 482.76960373 170.79709244 C482.83603407 181.4632132 482.45430391 191.56582322 475.39852905 200.14717102 C466.3160862 209.17237158 458.36115047 210.3004844 445.90492249 210.28088379 C444.32029771 210.28428212 444.32029771 210.28428212 442.70366031 210.28774911 C439.16403187 210.29407886 435.62444182 210.2932604 432.08480835 210.29243469 C429.54683381 210.29542682 427.00885972 210.29882947 424.47088623 210.3026123 C418.29239525 210.31053289 412.11391832 210.31366672 405.93542274 210.31422468 C400.91180462 210.31470029 395.88818965 210.31675727 390.86457253 210.31992531 C376.61319093 210.32872936 362.36181686 210.33334508 348.11043253 210.33259483 C347.3425576 210.33255488 346.57468268 210.33251492 345.78353882 210.33247375 C345.0147234 210.33243287 344.24590797 210.33239199 343.45379511 210.33234987 C330.99601391 210.33194348 318.53826295 210.34151193 306.08049049 210.35561212 C293.28060447 210.3699849 280.48073318 210.37688181 267.68083888 210.37601835 C260.49803027 210.37568669 253.31525335 210.37842017 246.13245201 210.3891964 C239.37651498 210.39926747 232.62065594 210.39895682 225.86471176 210.39167976 C223.38676035 210.39063387 220.90880478 210.39299706 218.43086052 210.39904022 C215.0448572 210.40676234 211.65908492 210.40211367 208.27308655 210.39440918 C207.29563923 210.39955274 206.31819191 210.40469631 205.31112498 210.40999573 C196.83560648 210.36746367 189.13273878 209.71021384 182.39852905 204.14717102 C180.50445238 202.09725259 178.68866918 200.00839969 176.91415405 197.85420227 C175.49139007 196.03863554 175.49139007 196.03863554 173.39852905 195.14717102 C173.17165405 195.70404602 172.94477905 196.26092102 172.71102905 196.83467102 C169.06389453 203.26057471 163.23559943 206.81154119 156.39852905 209.14717102 C150.98401342 209.85535551 145.61525763 209.82240259 140.16781616 209.77827454 C138.54548869 209.7834211 136.92316682 209.79070792 135.30085754 209.79995728 C130.92060684 209.81838432 126.54096918 209.80558874 122.16074443 209.78586698 C117.56320604 209.7694097 112.96570432 209.77830305 108.3681488 209.78338623 C100.65055618 209.78789885 92.93320659 209.77208793 85.21566772 209.74409485 C76.30867876 209.71203535 67.40212768 209.71206582 58.49510759 209.72930962 C49.90510024 209.74520318 41.31525256 209.7384237 32.72525215 209.7213726 C29.07911459 209.71452206 25.43310579 209.71551393 21.78697014 209.72291756 C17.48985495 209.7306096 13.19323491 209.71835971 8.89620399 209.69106865 C7.32452234 209.68421464 5.75279417 209.68405464 4.1811142 209.69128418 C-6.83533334 209.73609899 -15.64143591 208.65483095 -24.03115845 200.98701477 C-29.89208801 194.12010476 -31.71599912 186.39558874 -31.74864197 177.58366394 C-31.75231866 176.93786821 -31.75599534 176.29207249 -31.75978345 175.6267072 C-31.77076432 173.4705971 -31.77465457 171.31453529 -31.7784729 169.15840149 C-31.78474185 167.6090276 -31.79138903 166.0596552 -31.79838562 164.51028442 C-31.81937951 159.42831968 -31.82978458 154.34635479 -31.8397522 149.26435852 C-31.84380169 147.51096201 -31.84791867 145.75756566 -31.85210228 144.00416946 C-31.87114478 135.76393292 -31.88537701 127.52370527 -31.89371425 119.28345096 C-31.9034793 109.7902207 -31.92978359 100.29722406 -31.97021514 90.80407608 C-32.00043696 83.45439299 -32.01518892 76.10477664 -32.01849526 68.75503266 C-32.02083907 64.37109185 -32.02971181 59.98740089 -32.05495644 55.60352707 C-32.0783483 51.47480305 -32.08242614 47.34649141 -32.07219505 43.21771812 C-32.07170225 41.70974157 -32.07794663 40.20174394 -32.0917511 38.69383049 C-32.19289135 26.98233344 -31.00193164 16.67182018 -22.5975647 7.86982727 C-15.68153149 1.90119588 -9.00808708 0.03315756 0 0 Z " fill="#FCBC30" transform="translate(31.601470947265625,-0.1471710205078125)"/>
<path d="M0 0 C0.65849394 -0.00467997 1.31698789 -0.00935994 1.99543619 -0.01418173 C4.18251119 -0.02606351 6.36895161 -0.01670193 8.55603027 -0.00723267 C10.13189558 -0.01130142 11.70775803 -0.01664501 13.28361511 -0.02316284 C17.550135 -0.03680615 21.81643656 -0.03155018 26.08296013 -0.02202559 C30.55466156 -0.01441349 35.02634469 -0.0214789 39.49804688 -0.02618408 C47.00650375 -0.03163712 54.51487201 -0.02446188 62.02331543 -0.01016235 C70.69561887 0.0061633 79.3677107 0.00087447 88.04000902 -0.01564157 C95.49499331 -0.02926931 102.94991402 -0.0311698 110.40490675 -0.02332556 C114.85345394 -0.01865613 119.30190176 -0.0180041 123.7504425 -0.02793503 C127.93333115 -0.03662118 132.11594779 -0.0305528 136.29880714 -0.01325226 C137.83102276 -0.0092962 139.36326139 -0.01040635 140.89546776 -0.01704025 C142.99271067 -0.02528121 145.08909083 -0.0149049 147.1862793 0 C148.94386692 0.00169662 148.94386692 0.00169662 150.73696136 0.00342751 C158.36872951 0.86189538 163.91471747 4.89860329 169.09313965 10.38095093 C172.62845713 16.08307589 173.2163706 21.27681165 173.23358154 27.88871765 C173.23929169 29.20505188 173.24500183 30.52138611 173.25088501 31.87760925 C173.25213022 33.32965078 173.25325535 34.78169242 173.25427246 36.23373413 C173.25890357 37.76827106 173.26392863 39.30280685 173.26931763 40.83734131 C173.2824145 45.00067232 173.28888116 49.16398722 173.29332829 53.3273356 C173.2962631 55.9303606 173.30036866 58.53338124 173.30483246 61.13640404 C173.3184996 69.28640195 173.32817036 77.43638985 173.33203435 85.58639842 C173.33651477 94.98396583 173.35406518 104.38138776 173.38303494 113.77891093 C173.40467038 121.0504172 173.41473961 128.32188258 173.41607547 135.59342068 C173.41712206 139.93306305 173.42299902 144.27256851 173.44089508 148.6121769 C173.45740825 152.69570044 173.45951561 156.77898465 173.45075607 160.86252975 C173.44998746 162.35724594 173.45430517 163.85197517 173.46421432 165.34665871 C173.52872352 175.68740939 173.05841673 183.90385799 165.77282715 191.84188843 C160.04544665 197.0897673 154.26173029 198.49991437 146.68112183 198.52812195 C146.03955851 198.53179864 145.3979952 198.53547532 144.73699057 198.53926343 C142.58925996 198.55026786 140.44157779 198.5541386 138.29382324 198.55795288 C136.75282641 198.56422008 135.21183109 198.57086711 133.6708374 198.5778656 C128.61109464 198.59888138 123.55135166 198.60926703 118.49157715 198.61923218 C116.74713755 198.62328094 115.0026981 198.6273979 113.25825882 198.63158226 C105.06020187 198.65063004 96.86215389 198.66486082 88.66407907 198.67319423 C79.21440867 198.68295947 69.76497296 198.70926204 60.31538522 198.74969512 C53.0031049 198.77990445 45.69089166 198.79466774 38.37855017 198.79797524 C34.01530577 198.80032061 29.65231219 198.8092137 25.28913498 198.83443642 C21.18012531 198.8578061 17.07153004 198.86191492 12.96247101 198.85167503 C11.46052543 198.85118168 9.95855884 198.85744248 8.45667648 198.87123108 C-0.98993844 198.95305426 -9.61066312 198.55762679 -17.3092041 192.48641968 C-17.81580566 191.85348999 -18.32240723 191.2205603 -18.84436035 190.56845093 C-19.36900879 189.94325562 -19.89365723 189.3180603 -20.4342041 188.67391968 C-23.89142368 183.29092791 -25.28128111 178.86752325 -25.29454041 172.4808197 C-25.29992594 171.82303132 -25.30531148 171.16524295 -25.31086022 170.48752159 C-25.32506693 168.30279562 -25.31805464 166.11868183 -25.31091309 163.93392944 C-25.31662049 162.35968543 -25.32358619 160.78544555 -25.33171082 159.21121216 C-25.34961633 154.94876882 -25.34847879 150.68653163 -25.34276843 146.42406201 C-25.33967284 142.86048913 -25.34577314 139.29695563 -25.35180718 135.73338836 C-25.36584219 127.32412769 -25.36429961 118.91496863 -25.35290527 110.50570679 C-25.34142443 101.84133123 -25.35550143 93.17726522 -25.38230175 84.51293045 C-25.40447959 77.06302229 -25.41109145 69.61321114 -25.40522534 62.16327232 C-25.40185961 57.71856549 -25.40424523 53.27405708 -25.42147636 48.82937813 C-25.43697677 44.64889064 -25.43295592 40.46886072 -25.41417122 36.28839111 C-25.4104939 34.75820438 -25.41356879 33.2279835 -25.42405701 31.69782829 C-25.48286333 22.40578809 -25.01508661 15.79155194 -19.2310791 8.17391968 C-18.69096191 7.64411499 -18.15084473 7.1143103 -17.59436035 6.56845093 C-17.06197754 6.02575562 -16.52959473 5.4830603 -15.9810791 4.92391968 C-10.92534583 1.16306348 -6.219929 0.00600415 0 0 Z " fill="#A01C46" transform="translate(30.9068603515625,5.619049072265625)"/>
<path d="M0 0 C10.89 0 21.78 0 33 0 C37.88922241 9.77844481 39.08543285 15.51259923 39.24609375 25.9375 C39.2790159 27.42448541 39.31222781 28.91146444 39.34570312 30.3984375 C39.39306233 32.70210681 39.43759781 35.00574723 39.47680664 37.30957031 C39.5168529 39.56079342 39.56828418 41.81154489 39.62109375 44.0625 C39.6295079 44.73982178 39.63792206 45.41714355 39.64659119 46.11499023 C39.9051531 56.28034604 43.06633169 66.59839151 50.5 73.8125 C58.76453308 80.34364787 68.22262825 82.84626417 78.640625 82.41796875 C89.72724931 81.03858642 98.65068378 75.58513261 105.68359375 67 C109.55213532 61.12257185 112.08653681 53.89432824 112.20532227 46.88598633 C112.22526749 45.84513382 112.24521271 44.80428131 112.26576233 43.73188782 C112.28247482 42.60993515 112.29918732 41.48798248 112.31640625 40.33203125 C112.3475779 38.60710701 112.3475779 38.60710701 112.37937927 36.84733582 C112.44483342 33.16911875 112.50374074 29.49082952 112.5625 25.8125 C112.60568913 23.32095604 112.64930355 20.82941941 112.69335938 18.33789062 C112.8013119 12.22533335 112.90041666 6.11272233 113 0 C125.21 0 137.42 0 150 0 C150 49.5 150 99 150 150 C137.79 150 125.58 150 113 150 C113 136.14 113 122.28 113 108 C109.04 109.32 105.08 110.64 101 112 C80.19717901 117.58632868 58.43006051 117.0164026 39.23046875 106.89453125 C34.79507178 104.29336132 30.89510849 101.34089465 27 98 C26.38769531 97.53078125 25.77539062 97.0615625 25.14453125 96.578125 C14.13434726 87.92553008 8.72214867 74.89535342 6.39086914 61.3840332 C5.45247232 53.25966195 5.63848709 45.0079877 5.61914062 36.83813477 C5.57315096 25.24759034 4.29754416 15.1400086 1 4 C0.67 2.68 0.34 1.36 0 0 Z " fill="#FCBC30" transform="translate(30,30)"/>
<path d="M0 0 C0.64987928 -0.00367669 1.29975856 -0.00735338 1.96933115 -0.01114148 C4.13926072 -0.0221231 6.30914232 -0.02601273 8.47909546 -0.02983093 C10.03832143 -0.03609982 11.59754592 -0.042747 13.1567688 -0.04974365 C18.27119923 -0.07073818 23.38562979 -0.08114266 28.50009155 -0.09111023 C30.26463206 -0.0951597 32.02917242 -0.09927667 33.79371262 -0.10346031 C42.08627491 -0.12250293 50.37882836 -0.13673515 58.6714083 -0.14507228 C68.22519843 -0.15483746 77.77875643 -0.18114206 87.33246481 -0.22157317 C94.72885663 -0.25179403 102.12518213 -0.26654686 109.52163446 -0.26985329 C113.93352027 -0.27219721 118.34515783 -0.28107131 122.75697708 -0.30631447 C126.91196517 -0.32970465 131.06654348 -0.33378483 135.22158051 -0.32355309 C136.73923231 -0.32306024 138.25690506 -0.32930582 139.77449417 -0.34310913 C151.88334819 -0.44700644 161.6933479 0.85558979 170.74227905 9.46357727 C171.5621228 10.29695618 171.5621228 10.29695618 172.39852905 11.14717102 C172.96571655 11.71306946 173.53290405 12.2789679 174.11727905 12.86201477 C174.54009155 13.28611633 174.96290405 13.7102179 175.39852905 14.14717102 C176.05208374 13.3505304 176.05208374 13.3505304 176.71884155 12.53779602 C183.21325534 4.83446538 188.4621216 1.59236039 198.39852905 0.14717102 C202.03516977 -0.10885396 205.65263285 -0.12365129 209.29722595 -0.10679626 C210.34889306 -0.10991625 211.40056018 -0.11303623 212.48409599 -0.11625075 C215.98370804 -0.12418397 219.48314444 -0.11792537 222.98275757 -0.11161804 C225.50161846 -0.11432996 228.02047856 -0.11789202 230.53933716 -0.12223816 C236.65580234 -0.13039607 242.77220321 -0.12922292 248.8886692 -0.12341288 C253.8616604 -0.11888562 258.83463786 -0.11828808 263.80763054 -0.12046051 C264.51694497 -0.12076698 265.22625941 -0.12107344 265.95706822 -0.1213892 C267.3982703 -0.12202868 268.83947238 -0.12267711 270.28067445 -0.12333438 C283.77564324 -0.12902927 297.27058479 -0.12249279 310.76554912 -0.11173365 C322.33259446 -0.10279696 333.89959966 -0.10435277 345.46664429 -0.11357117 C358.9167584 -0.12428534 372.36684869 -0.12848205 385.81696647 -0.12234664 C387.25239209 -0.12170958 388.68781771 -0.12108083 390.12324333 -0.12046051 C390.82940338 -0.12015196 391.53556344 -0.11984341 392.26312228 -0.11952551 C397.22784036 -0.11780215 402.19254326 -0.12070586 407.15725899 -0.12541962 C413.8443105 -0.13162944 420.53127469 -0.12717917 427.21832275 -0.1156311 C429.67047436 -0.11298959 432.12263236 -0.11374092 434.57478142 -0.11815643 C437.92554521 -0.1236332 441.27606733 -0.1167517 444.6268158 -0.10679626 C446.07722121 -0.11348843 446.07722121 -0.11348843 447.55692774 -0.12031579 C457.82373206 -0.06127793 466.48526116 1.54160712 474.12509155 8.78388977 C480.51527623 15.78790992 482.51466178 23.30158707 482.53897095 32.67944336 C482.54342763 33.64306997 482.54342763 33.64306997 482.54797435 34.62616378 C482.55661997 36.77079348 482.55816608 38.91536709 482.55966187 41.06001282 C482.56429302 42.6011568 482.56931809 44.14229964 482.57470703 45.68344116 C482.5878056 49.8655009 482.59427119 54.04754461 482.59871769 58.22962165 C482.60165293 60.84539297 482.60575863 63.46115996 482.61022186 66.07692909 C482.623891 74.26964601 482.63356013 82.46235296 482.63742375 90.6550805 C482.64190116 100.09620805 482.65943677 109.53719058 482.68842435 118.97827405 C482.71007982 126.28632929 482.72013012 133.59434386 482.72146487 140.90243083 C482.72251027 145.26225766 482.72836118 149.62194805 482.74628448 153.98174095 C482.76283184 158.08661045 482.76488856 162.19124195 482.75614548 166.29613304 C482.75537862 167.79645935 482.75967117 169.29679881 482.76960373 170.79709244 C482.83603407 181.4632132 482.45430391 191.56582322 475.39852905 200.14717102 C466.3160862 209.17237158 458.36115047 210.3004844 445.90492249 210.28088379 C444.32029771 210.28428212 444.32029771 210.28428212 442.70366031 210.28774911 C439.16403187 210.29407886 435.62444182 210.2932604 432.08480835 210.29243469 C429.54683381 210.29542682 427.00885972 210.29882947 424.47088623 210.3026123 C418.29239525 210.31053289 412.11391832 210.31366672 405.93542274 210.31422468 C400.91180462 210.31470029 395.88818965 210.31675727 390.86457253 210.31992531 C376.61319093 210.32872936 362.36181686 210.33334508 348.11043253 210.33259483 C347.3425576 210.33255488 346.57468268 210.33251492 345.78353882 210.33247375 C345.0147234 210.33243287 344.24590797 210.33239199 343.45379511 210.33234987 C330.99601391 210.33194348 318.53826295 210.34151193 306.08049049 210.35561212 C293.28060447 210.3699849 280.48073318 210.37688181 267.68083888 210.37601835 C260.49803027 210.37568669 253.31525335 210.37842017 246.13245201 210.3891964 C239.37651498 210.39926747 232.62065594 210.39895682 225.86471176 210.39167976 C223.38676035 210.39063387 220.90880478 210.39299706 218.43086052 210.39904022 C215.0448572 210.40676234 211.65908492 210.40211367 208.27308655 210.39440918 C207.29563923 210.39955274 206.31819191 210.40469631 205.31112498 210.40999573 C196.83560648 210.36746367 189.13273878 209.71021384 182.39852905 204.14717102 C180.50445238 202.09725259 178.68866918 200.00839969 176.91415405 197.85420227 C175.49139007 196.03863554 175.49139007 196.03863554 173.39852905 195.14717102 C173.17165405 195.70404602 172.94477905 196.26092102 172.71102905 196.83467102 C169.06389453 203.26057471 163.23559943 206.81154119 156.39852905 209.14717102 C150.98401342 209.85535551 145.61525763 209.82240259 140.16781616 209.77827454 C138.54548869 209.7834211 136.92316682 209.79070792 135.30085754 209.79995728 C130.92060684 209.81838432 126.54096918 209.80558874 122.16074443 209.78586698 C117.56320604 209.7694097 112.96570432 209.77830305 108.3681488 209.78338623 C100.65055618 209.78789885 92.93320659 209.77208793 85.21566772 209.74409485 C76.30867876 209.71203535 67.40212768 209.71206582 58.49510759 209.72930962 C49.90510024 209.74520318 41.31525256 209.7384237 32.72525215 209.7213726 C29.07911459 209.71452206 25.43310579 209.71551393 21.78697014 209.72291756 C17.48985495 209.7306096 13.19323491 209.71835971 8.89620399 209.69106865 C7.32452234 209.68421464 5.75279417 209.68405464 4.1811142 209.69128418 C-6.83533334 209.73609899 -15.64143591 208.65483095 -24.03115845 200.98701477 C-29.89208801 194.12010476 -31.71599912 186.39558874 -31.74864197 177.58366394 C-31.75231866 176.93786821 -31.75599534 176.29207249 -31.75978345 175.6267072 C-31.77076432 173.4705971 -31.77465457 171.31453529 -31.7784729 169.15840149 C-31.78474185 167.6090276 -31.79138903 166.0596552 -31.79838562 164.51028442 C-31.81937951 159.42831968 -31.82978458 154.34635479 -31.8397522 149.26435852 C-31.84380169 147.51096201 -31.84791867 145.75756566 -31.85210228 144.00416946 C-31.87114478 135.76393292 -31.88537701 127.52370527 -31.89371425 119.28345096 C-31.9034793 109.7902207 -31.92978359 100.29722406 -31.97021514 90.80407608 C-32.00043696 83.45439299 -32.01518892 76.10477664 -32.01849526 68.75503266 C-32.02083907 64.37109185 -32.02971181 59.98740089 -32.05495644 55.60352707 C-32.0783483 51.47480305 -32.08242614 47.34649141 -32.07219505 43.21771812 C-32.07170225 41.70974157 -32.07794663 40.20174394 -32.0917511 38.69383049 C-32.19289135 26.98233344 -31.00193164 16.67182018 -22.5975647 7.86982727 C-15.68153149 1.90119588 -9.00808708 0.03315756 0 0 Z M-19.97647095 14.58467102 C-20.62358032 15.32588196 -21.2706897 16.0670929 -21.93740845 16.83076477 C-25.21070062 21.38724895 -25.85351828 25.23300994 -25.87562561 30.79333496 C-25.88086229 31.44800336 -25.88609897 32.10267175 -25.89149433 32.77717859 C-25.9064545 34.96331596 -25.9071986 37.14921846 -25.90786743 39.33540344 C-25.91549177 40.9061065 -25.92391974 42.47680582 -25.93309021 44.04750061 C-25.95501883 48.31014395 -25.96383224 52.57271555 -25.96891665 56.83540893 C-25.97256306 59.5014396 -25.97880469 62.16745158 -25.98591805 64.83347511 C-26.01040971 74.14288277 -26.02346321 83.45223475 -26.02700806 92.76167297 C-26.03064008 101.42486862 -26.06051219 110.08770927 -26.10241264 118.7507965 C-26.1371677 126.19898726 -26.15255742 133.64706071 -26.15325409 141.09533197 C-26.15404532 145.53908758 -26.1627123 149.98248171 -26.19125175 154.42615318 C-26.21752112 158.60994958 -26.21958867 162.79308714 -26.20359612 166.97692871 C-26.20178846 168.50628922 -26.20841026 170.03568837 -26.22441483 171.5649662 C-26.31963939 181.26073251 -25.67001957 189.56518271 -18.87529659 197.04820538 C-10.74665425 204.92135534 -0.92128745 204.58233547 9.6836853 204.53535461 C11.22851939 204.5394247 12.77335056 204.54476902 14.31817627 204.55128479 C18.49586559 204.56491232 22.67333161 204.5596787 26.85102463 204.55014753 C31.23283214 204.54252721 35.61462114 204.54960312 39.99642944 204.55430603 C47.35347916 204.55975669 54.7104384 204.55259011 62.06747437 204.5382843 C70.56084858 204.5219591 79.0540067 204.5272481 87.54737568 204.54376352 C94.85292816 204.55739808 102.15841576 204.55928843 109.46397686 204.55144751 C113.82143887 204.54678181 118.17879947 204.54611569 122.53625488 204.55605698 C126.63380116 204.5647531 130.73107011 204.55865671 134.82858658 204.54137421 C136.32813177 204.53742344 137.82770049 204.53851914 139.32723618 204.5451622 C149.67390848 204.58675633 157.9172305 204.11630804 165.85946655 196.82685852 C171.09771693 191.10998628 172.51926379 185.33476553 172.53897095 177.76638794 C172.54468109 176.45287354 172.55039124 175.13935913 172.55627441 173.78604126 C172.55751971 172.33195505 172.55864482 170.87786874 172.55966187 169.42378235 C172.56429172 167.89101543 172.56931661 166.35824966 172.57470703 164.82548523 C172.58781865 160.66202787 172.59427381 156.49858663 172.59871769 152.33511186 C172.60165099 149.73191693 172.60575634 147.12872639 172.61022186 144.52553368 C172.62389481 136.37499634 172.63356192 128.22446904 172.63742375 120.07392102 C172.64190126 110.67635353 172.65943571 101.27893172 172.68842435 91.88140851 C172.71007077 84.61075603 172.72012965 77.34014444 172.72146487 70.06946009 C172.72251097 65.73032985 172.72837687 61.39133659 172.74628448 57.05224037 C172.76281599 52.96708548 172.76489617 48.88216977 172.75614548 44.79699326 C172.75537776 43.30269796 172.75968267 41.80838953 172.76960373 40.31412697 C172.84034735 28.98925096 172.18004763 20.29160016 164.1680603 11.80732727 C158.7940505 6.76548585 154.00917577 6.02604472 146.85916138 6 C146.20393627 5.99632331 145.54871117 5.99264662 144.87363076 5.98885852 C142.67977376 5.97785234 140.48596418 5.97398308 138.29208374 5.97016907 C136.71828563 5.96390213 135.144489 5.95725512 133.57069397 5.95025635 C128.40394109 5.92924199 123.23718801 5.91885682 118.07040405 5.90888977 C116.29001093 5.90484132 114.50961796 5.90072437 112.72922516 5.89653969 C104.36458425 5.87749425 95.99995214 5.86326153 87.63529372 5.85492772 C77.98694385 5.84515558 68.33882341 5.818834 58.69055438 5.77842683 C51.22798811 5.74824819 43.76548755 5.73345721 36.30286145 5.73014671 C31.84802136 5.72779834 27.39342655 5.71886562 22.93865204 5.69368553 C18.74593178 5.67036892 14.55361772 5.66618587 10.36084938 5.67644691 C8.82581288 5.67694151 7.29075614 5.67064369 5.75578117 5.65689087 C-4.7605039 5.56797349 -12.72773236 6.0489115 -19.97647095 14.58467102 Z M180.39852905 17.33467102 C177.83684757 21.8442978 177.27008236 25.42754143 177.25135803 30.60424805 C177.24768134 31.26270228 177.24400466 31.92115651 177.24021655 32.5995639 C177.22918608 34.81034641 177.22533695 37.02108191 177.2215271 39.23188782 C177.2152619 40.81539051 177.20861505 42.39889174 177.20161438 43.98239136 C177.18057613 49.18704709 177.1702114 54.3917031 177.1602478 59.59638977 C177.15619999 61.38885323 177.15208306 63.18131653 177.14789772 64.97377968 C177.12884563 73.39608912 177.11461531 81.81838979 177.10628575 90.24071664 C177.09651644 99.95812649 177.07020504 109.67530837 177.02978486 119.39263791 C176.99960598 126.906139 176.98481515 134.41957481 176.98150474 141.93313533 C176.97915603 146.41928872 176.97021919 150.90519856 176.94504356 155.39128685 C176.92172712 159.6143617 176.91754386 163.83703328 176.92780495 168.06015587 C176.92829957 169.60647932 176.92200073 171.15282286 176.9082489 172.69908524 C176.81936844 183.28910421 177.66392939 191.1915828 185.39852905 199.14717102 C191.39697253 203.43474983 196.14384997 203.7222828 203.39875793 203.66856384 C204.49756997 203.67621494 205.596382 203.68386603 206.72849137 203.69174898 C210.40572729 203.71236568 214.08233612 203.70443333 217.75961304 203.69648743 C220.39789903 203.70518281 223.03613924 203.71542068 225.67440796 203.72746277 C232.09376805 203.75293334 238.51296073 203.75654719 244.93236285 203.75186224 C250.15096797 203.74829319 255.36952235 203.75180093 260.58812141 203.76031113 C261.33143538 203.7615015 262.07474934 203.76269188 262.84058796 203.76391833 C264.35072438 203.76634188 265.86086079 203.76877015 267.3709972 203.77120309 C281.52596178 203.79294484 295.68083101 203.78863333 309.83580095 203.77643339 C322.77929081 203.76609413 335.72247968 203.78860968 348.66591 203.82662983 C361.96418467 203.86539216 375.26231697 203.88189781 388.5606485 203.87438333 C396.02351385 203.87056025 403.48612297 203.87552473 410.94894218 203.90381241 C417.30169228 203.92764925 423.65402842 203.93044023 430.00678425 203.90623207 C433.24653687 203.89446033 436.48537694 203.89549599 439.72510719 203.91623688 C443.24121245 203.93712392 446.75528462 203.92101356 450.27131653 203.89561462 C451.79919781 203.91773748 451.79919781 203.91773748 453.35794538 203.94030726 C461.75025181 203.81280008 465.99929401 200.63827728 471.71102905 194.77217102 C477.04030267 186.48218984 476.83979078 178.31864101 476.81845093 168.80195618 C476.82579932 167.25051261 476.83438779 165.69907451 476.84411621 164.14764404 C476.86625979 159.9512504 476.86926651 155.75505353 476.8673687 151.55860949 C476.86724867 148.04736427 476.87582608 144.53616024 476.88414621 141.02492654 C476.90335448 132.73687048 476.90627349 124.44891512 476.89950562 116.1608429 C476.89286637 107.62878233 476.91573031 99.09715425 476.95281935 90.56518137 C476.98357038 83.22307341 476.99487054 75.88110419 476.99098253 68.53893316 C476.98892064 64.16118983 476.99430737 59.78378319 477.01887512 55.40610123 C477.04122948 51.28707871 477.03919309 47.16875677 477.0189476 43.0497303 C477.01555284 41.54456469 477.0205601 40.0393511 477.03493118 38.53425026 C477.12036189 28.91786505 476.46669084 20.54286674 469.58452606 13.21593666 C463.16052418 7.23861086 457.19539776 6.85186441 448.72146606 6.86628723 C447.63323555 6.86034499 446.54500504 6.85440274 445.42379785 6.84828043 C441.77048712 6.83091129 438.1173075 6.82789038 434.46395874 6.8249054 C431.84731262 6.81564874 429.2306692 6.80559938 426.61402893 6.79481506 C419.50031807 6.7676776 412.38662979 6.7556037 405.27287579 6.74679375 C400.82924358 6.74126422 396.38562005 6.73278869 391.94199371 6.7237854 C379.63358482 6.69940438 367.32518286 6.67880457 355.01675034 6.67203522 C353.83563152 6.67137652 353.83563152 6.67137652 352.63065173 6.67070451 C351.84138025 6.67026796 351.05210877 6.6698314 350.23891997 6.66938162 C348.63961649 6.66849469 347.040313 6.66760157 345.44100952 6.66670227 C344.64770368 6.66625941 343.85439784 6.66581655 343.03705242 6.66536027 C330.1846577 6.65746538 317.33248984 6.6225589 304.48018274 6.57598323 C291.27803707 6.52852677 278.07600519 6.50363021 264.87377286 6.50129938 C257.46391771 6.49946754 250.05435823 6.48800553 242.64458466 6.45166016 C235.67429184 6.41759033 228.70456842 6.41437449 221.73421669 6.43193817 C219.17723654 6.43348033 216.62022638 6.4247747 214.06332207 6.40502167 C210.56938831 6.37961454 207.07744682 6.39131518 203.58352661 6.41218567 C202.57426959 6.39607286 201.56501256 6.37996005 200.525172 6.36335897 C191.65321754 6.48710676 185.30290234 9.8482092 180.39852905 17.33467102 Z " fill="#FEFCF8" transform="translate(31.601470947265625,-0.1471710205078125)"/>
<path d="M0 0 C5.94 0 11.88 0 18 0 C18.0093457 2.28019043 18.01869141 4.56038086 18.02832031 6.90966797 C18.06220354 14.47345336 18.11781505 22.03696918 18.18390274 29.60053825 C18.22328321 34.18292473 18.25551768 38.76512176 18.27099609 43.34765625 C18.28622516 47.77642659 18.32078033 52.20467575 18.36830902 56.63321304 C18.38305872 58.3163002 18.39103731 59.9994618 18.39188385 61.68261337 C18.40240325 72.1177415 18.58854413 81.39625876 25.3125 89.9375 C31.08640141 94.36863364 35.93622586 95.63261437 43.1484375 95.4140625 C49.46654362 94.49663887 54.42526492 91.88968209 58.5 87 C58.995 86.01 59.49 85.02 60 84 C60.4125 83.236875 60.825 82.47375 61.25 81.6875 C62.8884499 75.81638787 62.73814823 70.78582392 60.0625 65.25 C57.01037502 60.39550595 53.50052968 57.65901774 48 56 C40.99633233 55.21156316 35.71863715 55.76045428 29 58 C29 51.73 29 45.46 29 39 C42.45332819 35.15619195 54.11153711 36.9493524 66.375 43.75 C74.7406898 49.18702044 79.96225617 56.50705052 83 66 C83.74119501 70.02510066 83.98870605 73.91159164 84 78 C84.02320313 78.74765625 84.04640625 79.4953125 84.0703125 80.265625 C83.7697068 89.28379594 78.28173309 99.02055064 72.25 105.5 C62.34857757 114.45934535 51.15055251 117.64191527 38.01171875 117.3125 C26.52049968 116.66281977 16.31069678 110.1278692 8.56640625 101.8984375 C-1.2807797 89.96394281 -0.28787261 75.18606705 -0.1953125 60.546875 C-0.19157407 58.79282799 -0.18873103 57.03877887 -0.18673706 55.284729 C-0.17916592 50.70796766 -0.15957484 46.13133686 -0.1373291 41.55462646 C-0.1167288 36.86846685 -0.10770526 32.18228577 -0.09765625 27.49609375 C-0.07632162 18.3306631 -0.04119407 9.16536292 0 0 Z " fill="#A01C45" transform="translate(401,29)"/>
<path d="M0 0 C6.17806266 5.234504 12.25795189 11.16615482 15.25 18.8125 C15.8378125 20.2975 15.8378125 20.2975 16.4375 21.8125 C19.0763395 31.89823403 17.82597197 42.97001516 13.03125 52.14453125 C7.0112949 61.96040248 -1.79016561 69.09799941 -12.9375 72.0625 C-21.17063398 73.66338716 -28.8148771 73.45754097 -36.75 70.8125 C-36.75 64.5425 -36.75 58.2725 -36.75 51.8125 C-34.44 52.4725 -32.13 53.1325 -29.75 53.8125 C-22.698381 54.73977712 -16.79400483 53.60699792 -10.75 49.8125 C-6.28063964 45.45773862 -4.70722088 40.63417581 -4.3125 34.5 C-4.50635179 28.10289102 -7.19339655 23.44493491 -11.59375 18.9140625 C-17.15379957 14.49506788 -22.46108141 13.96609653 -29.4375 14.296875 C-35.93119414 15.30768588 -39.76326743 18.23137313 -43.6875 23.375 C-46.91844818 28.11737479 -46.91022326 32.82430073 -46.95532227 38.42675781 C-46.97017166 39.56880173 -46.97017166 39.56880173 -46.98532104 40.73391724 C-47.01684776 43.24445512 -47.04165847 45.75501191 -47.06640625 48.265625 C-47.08698341 50.00869227 -47.10798008 51.75175464 -47.12937927 53.49481201 C-47.18452129 58.07816592 -47.23396523 62.66156428 -47.28222656 67.24499512 C-47.3324991 71.92378689 -47.38815512 76.60251428 -47.44335938 81.28125 C-47.55084469 90.45828032 -47.65181337 99.63536547 -47.75 108.8125 C-53.69 108.8125 -59.63 108.8125 -65.75 108.8125 C-65.81795136 98.03297475 -65.87291717 87.25359327 -65.90543652 76.47390175 C-65.92104924 71.46770859 -65.94220679 66.4616704 -65.97631836 61.45556641 C-66.00906909 56.61854925 -66.02688601 51.78168054 -66.03463173 46.944561 C-66.04014714 45.10510295 -66.05091701 43.26565243 -66.06719017 41.42625809 C-66.19743196 26.08561218 -65.16007314 15.55469337 -54.08984375 4.09375 C-39.64208244 -9.29519192 -16.10320131 -11.87714677 0 0 Z " fill="#A01C45" transform="translate(297.75,71.1875)"/>
<path d="M0 0 C7.80650542 5.21474562 12.82438016 11.74143245 14.9375 20.875 C15.10990707 21.47689148 15.28231415 22.07878296 15.45994568 22.69891357 C15.98896833 25.1095273 16.05751911 27.26773855 16.05102539 29.73535156 C16.05091209 31.17639252 16.05091209 31.17639252 16.05079651 32.64654541 C16.04563522 33.67584167 16.04047394 34.70513794 16.03515625 35.765625 C16.0337413 36.82537537 16.03232635 37.88512573 16.03086853 38.97698975 C16.02527382 42.35968862 16.01272225 45.74232115 16 49.125 C15.99498432 51.41926988 15.99042153 53.71354079 15.98632812 56.0078125 C15.97530611 61.63023387 15.95804507 67.25260569 15.9375 72.875 C9.6675 72.875 3.3975 72.875 -3.0625 72.875 C-3.0718457 71.48265137 -3.08119141 70.09030273 -3.09082031 68.65576172 C-3.13076397 63.47819303 -3.19653582 58.30121579 -3.27001953 53.12402344 C-3.29820362 50.88549409 -3.31943086 48.6468657 -3.33349609 46.40820312 C-3.35496048 43.18568306 -3.4016306 39.96435062 -3.453125 36.7421875 C-3.45435364 35.74508759 -3.45558228 34.74798767 -3.45684814 33.72067261 C-3.57782529 27.95040867 -4.11220498 24.39664824 -8.0625 19.875 C-12.88596981 16.20916294 -16.5795739 15.24757587 -22.625 15.46875 C-26.41490415 16.10040069 -28.88343007 17.75562004 -32.0625 19.875 C-32.7225 19.875 -33.3825 19.875 -34.0625 19.875 C-35.78867397 24.13289579 -37.17727954 27.72875655 -37.26782227 32.34643555 C-37.28776749 33.24714279 -37.30771271 34.14785004 -37.32826233 35.07585144 C-37.35333107 36.52910576 -37.35333107 36.52910576 -37.37890625 38.01171875 C-37.39968735 39.00629593 -37.42046844 40.00087311 -37.44187927 41.02558899 C-37.50729412 44.20448867 -37.5662224 47.38347134 -37.625 50.5625 C-37.66819288 52.71680548 -37.71180742 54.87110254 -37.75585938 57.02539062 C-37.86296731 62.30850858 -37.96425766 67.59171005 -38.0625 72.875 C-44.0025 72.875 -49.9425 72.875 -56.0625 72.875 C-56.21175828 65.54680106 -56.32014867 58.21950328 -56.39208984 50.89013672 C-56.42210606 48.40137298 -56.46293258 45.91271362 -56.51513672 43.42431641 C-56.58861815 39.82948939 -56.62211016 36.23607078 -56.6484375 32.640625 C-56.67940521 31.54325012 -56.71037292 30.44587524 -56.74227905 29.31524658 C-56.74614477 20.2717128 -54.20386955 12.42117438 -48.02157593 5.63458252 C-34.55061932 -6.86334041 -15.98912142 -8.92057161 0 0 Z " fill="#A01B45" transform="translate(378.0625,70.125)"/>
<path d="M0 0 C5.82265254 4.26791286 9.78627742 12.18388407 12.0546875 18.90625 C13.41360266 28.76196101 10.90586547 37.01218828 5.515625 45.26171875 C0.63498064 51.42613449 -6.21091666 55.39895632 -13.9453125 56.90625 C-23.75338191 57.81537586 -33.44664559 56.09213408 -41.1640625 49.703125 C-47.92573517 42.88213942 -51.94813365 34.72053964 -52.5078125 25.15625 C-52.30020636 16.9661878 -48.69259652 10.32179229 -43.6328125 4.03125 C-29.16108614 -7.41151038 -16.60479984 -9.33603204 0 0 Z " fill="#FCBB30" transform="translate(125.9453125,51.09375)"/>
</svg>
