<?xml version="1.0" encoding="UTF-8"?>
<svg version="1.1" xmlns="http://www.w3.org/2000/svg" width="1800" height="457">
<path d="M0 0 C21.09882014 -0.04696387 42.19763151 -0.08210726 63.29649353 -0.10362434 C73.09562947 -0.11388583 82.89473272 -0.12784658 92.69384766 -0.15087891 C101.2463782 -0.17097141 109.79888503 -0.18375356 118.35143852 -0.18817699 C122.86937271 -0.19075786 127.38723915 -0.19671349 131.90515137 -0.21146011 C180.41833092 -0.3635812 180.41833092 -0.3635812 202.0625 4.25 C203.09705322 4.46543457 204.13160645 4.68086914 205.19750977 4.90283203 C220.6126901 8.27486507 235.93274688 14.18479769 246 27 C256.93470262 45.001545 254.69663852 64.76139746 250.00390625 84.34375 C242.78642147 111.99838492 226.46756312 136.64404767 201.94140625 151.76953125 C195.21941683 155.69112231 188.12040232 158.87992163 181 162 C183.57239477 163.71492984 186.09403571 165.00814981 188.88696289 166.30737305 C198.60672063 170.89913385 205.24440348 175.71102435 209.109375 186.08203125 C213.48449723 202.55023732 209.27242403 220.20106288 205.01074219 236.19482422 C203.85373448 240.5506508 202.74116941 244.91675392 201.6328125 249.28515625 C199.8863249 256.1536061 198.1200242 263.01660293 196.33218384 269.87440491 C195.88695867 271.58263368 195.44339179 273.29129444 195 275 C194.80164551 275.75684082 194.60329102 276.51368164 194.39892578 277.29345703 C193.50176368 281.13137815 193.50179743 285.10496174 194 289 C195.79191458 291.63516042 195.79191458 291.63516042 198 293 C197.5247412 294.64696604 197.04468109 296.29254728 196.5625 297.9375 C196.29566406 298.85402344 196.02882813 299.77054687 195.75390625 300.71484375 C195 303 195 303 194 304 C190.8949275 304.09533653 187.81213542 304.12551126 184.70678711 304.11352539 C183.73128403 304.11367142 182.75578094 304.11381744 181.75071716 304.1139679 C178.50957047 304.11326833 175.26848046 304.10547391 172.02734375 304.09765625 C169.78674857 304.09579222 167.54615298 304.09436825 165.30555725 304.09336853 C159.3954049 304.08954213 153.48527695 304.0797108 147.57513428 304.06866455 C141.54944183 304.05845306 135.52374547 304.05387147 129.49804688 304.04882812 C117.66535384 304.03808864 105.83267894 304.02101076 94 304 C94.27781039 300.35842674 94.57120744 296.71826291 94.8671875 293.078125 C94.94477295 292.0586377 95.0223584 291.03915039 95.10229492 289.98876953 C95.90854715 280.24363396 98.17613327 271.32571228 101 262 C101.69138996 259.66444274 102.38139877 257.32847636 103.0703125 254.9921875 C104.14545068 251.34992198 105.224606 247.70922982 106.32080078 244.07324219 C106.65321777 242.96883789 106.98563477 241.86443359 107.328125 240.7265625 C107.77526855 239.25050537 107.77526855 239.25050537 108.23144531 237.74462891 C109.7067969 232.47591779 110.20943086 227.52411999 110.25 222.0625 C110.2809375 221.02706055 110.2809375 221.02706055 110.3125 219.97070312 C110.35703981 214.09701619 108.96656973 210.08575577 104.9375 205.8125 C96.95860049 200.88934924 88.36481554 200.54006424 79.2109375 200.48828125 C78.02650055 200.47033005 76.8420636 200.45237885 75.62173462 200.43388367 C71.8728583 200.38010011 68.12410696 200.34598708 64.375 200.3125 C61.81899315 200.2792988 59.26300271 200.24480658 56.70703125 200.20898438 C50.47146633 200.12439208 44.23588458 200.05590806 38 200 C37.76957504 200.96067383 37.53915009 201.92134766 37.30174255 202.91113281 C34.85722257 212.96907166 32.02398195 222.8613244 28.97265625 232.75 C28.49675971 234.30295385 28.02121738 235.85601627 27.54600525 237.40917969 C26.30713207 241.45474219 25.06331339 245.49876699 23.81842041 249.54248047 C22.56386435 253.6210792 21.31449505 257.701266 20.06445312 261.78125 C18.2199909 267.79763186 16.37424157 273.81361563 14.52368164 279.828125 C14.15602188 281.0234082 13.78836212 282.21869141 13.40956116 283.45019531 C11.28614194 290.30420277 9.1402416 297.15122687 7 304 C-25.34 304 -57.68 304 -91 304 C-88.75007975 293.87535887 -88.75007975 293.87535887 -87.26123047 288.95922852 C-86.92293716 287.83630905 -86.58464386 286.71338959 -86.23609924 285.55644226 C-85.86685837 284.34285538 -85.49761749 283.12926849 -85.1171875 281.87890625 C-84.71475124 280.5474766 -84.31261594 279.21595595 -83.91075134 277.88435364 C-83.03475646 274.98398348 -82.15668062 272.08425438 -81.27700806 269.18499756 C-79.84116696 264.45260184 -78.4099217 259.71882333 -76.97924805 254.98486328 C-75.12426329 248.84810486 -73.26804246 242.71172245 -71.41050243 236.575737 C-67.29665302 222.98618577 -63.19225263 209.39378996 -59.08984375 195.80078125 C-58.75203133 194.68149734 -58.4142189 193.56221344 -58.06616974 192.40901184 C-56.68941464 187.84735326 -55.31267627 183.28568963 -53.93598938 178.72401047 C-50.47857979 167.26799462 -47.01968794 155.81242645 -43.56079865 144.3568573 C-36.54731735 121.12847848 -29.53782113 97.89890163 -22.53442383 74.66748047 C-15.03021796 49.776127 -7.5143168 24.88830258 0 0 Z M76 75 C73.55424298 81.27150409 71.54654909 87.60721462 69.64453125 94.0625 C69.18478157 95.6103418 69.18478157 95.6103418 68.71574402 97.18945312 C67.74531312 100.45884693 66.77884732 103.72939715 65.8125 107 C65.15195508 109.22794239 64.49115046 111.4558078 63.83007812 113.68359375 C62.21704658 119.12150888 60.60726167 124.56037687 59 130 C66.41619845 130.09362064 73.83226483 130.16422298 81.24893951 130.20724869 C84.6946585 130.22792272 88.13996661 130.25585802 91.58544922 130.30175781 C119.56080079 131.46361744 119.56080079 131.46361744 143.5625 118.9375 C150.29936131 112.00687941 153.93057468 101.53363999 154.375 92 C154.22877654 87.18924801 153.56734222 83.42173641 150 80 C143.09400693 76.12129156 135.84736607 74.8693289 127.99462891 74.88647461 C126.25350327 74.88658791 126.25350327 74.88658791 124.47720337 74.88670349 C123.23949188 74.89186478 122.0017804 74.89702606 120.7265625 74.90234375 C119.44768158 74.9037587 118.16880066 74.90517365 116.85116577 74.90663147 C113.46788664 74.91126978 110.08467614 74.92023919 106.70141602 74.93133545 C103.24235626 74.94160485 99.78328939 74.94614089 96.32421875 74.95117188 C89.54946034 74.96218391 82.77473413 74.97890936 76 75 Z " fill="#FEFEFE" transform="translate(178,30)"/>
<path d="M0 0 C18.94359582 -0.0470615 37.88717951 -0.08215396 56.83082199 -0.10362434 C65.62991052 -0.11386562 74.42896238 -0.12778613 83.22802734 -0.15087891 C90.91188913 -0.17103498 98.59572433 -0.1837681 106.27961183 -0.18817699 C110.33489676 -0.19074748 114.39010574 -0.19663267 118.44536591 -0.21146011 C133.78654055 -0.26520408 149.06441342 -0.1960693 164.37597656 0.87158203 C166.00849428 0.985006 166.00849428 0.985006 167.67399216 1.10072136 C191.24331133 2.96738018 217.23163274 7.8391478 234.15625 25.76953125 C237.57445957 29.90469579 240.35927641 34.33831447 243 39 C243.4021875 39.70640625 243.804375 40.4128125 244.21875 41.140625 C255.09092617 62.7202474 249.71581936 89.3115122 242.66015625 111.1484375 C230.49853955 147.29606282 207.50306134 177.94827296 172.80419922 195.2409668 C156.89328525 202.82571967 140.43392388 207.47702632 123 210 C121.78521973 210.17869629 120.57043945 210.35739258 119.31884766 210.54150391 C111.60545349 211.37182231 103.80660483 211.1222405 96.05859375 211.09765625 C94.32267803 211.09578838 92.58676178 211.09436622 90.85084534 211.09336853 C86.30860915 211.08957241 81.76640555 211.0797673 77.22418213 211.06866455 C72.57849569 211.05838761 67.93280393 211.05385751 63.28710938 211.04882812 C54.19139203 211.0381421 45.09569874 211.02110104 36 211 C35.84733673 211.65003494 35.69467346 212.30006989 35.53738403 212.96980286 C33.20037918 222.63077083 30.35277723 232.12144345 27.4921875 241.63671875 C26.96063802 243.41074803 26.42923802 245.1848221 25.89797974 246.9589386 C24.79203368 250.64984848 23.68408133 254.34014845 22.57470703 258.0300293 C21.15044848 262.76795475 19.73164254 267.50749343 18.31432915 272.24750042 C17.22199756 275.89830051 16.12667004 279.54819634 15.03042984 283.19782448 C14.50554716 284.94671412 13.98164689 286.69589892 13.45873642 288.44537926 C12.73191338 290.87557427 12.00103678 293.3045126 11.26904297 295.7331543 C11.05293365 296.45876556 10.83682434 297.18437683 10.61416626 297.93197632 C9.11424176 302.88575824 9.11424176 302.88575824 8 304 C4.92545239 304.09532328 1.87340842 304.1255138 -1.20141602 304.11352539 C-2.65004028 304.11374443 -2.65004028 304.11374443 -4.12792969 304.1139679 C-7.33661099 304.11326834 -10.54523503 304.10547397 -13.75390625 304.09765625 C-15.97208118 304.09579222 -18.19025652 304.09436825 -20.40843201 304.09336853 C-26.25940071 304.08954216 -32.11034477 304.07971086 -37.96130371 304.06866455 C-43.92667304 304.05845299 -49.89204633 304.05387146 -55.85742188 304.04882812 C-67.57162544 304.03808869 -79.28581067 304.02101085 -91 304 C-88.39812462 292.69746439 -84.95356584 281.65045287 -81.5859375 270.55859375 C-80.94096624 268.42654205 -80.29626353 266.29440909 -79.65180969 264.16220093 C-78.27832457 259.61981466 -76.90309972 255.07796036 -75.52645874 250.53652954 C-73.35308052 243.36660614 -71.18360471 236.19550587 -69.01489258 229.02416992 C-66.80566351 221.71932904 -64.59629395 214.4145311 -62.38563538 207.11012268 C-56.05695555 186.19819848 -49.75061331 165.27959644 -43.45370865 144.35808563 C-41.43333891 137.64578318 -39.41216237 130.93372359 -37.39107323 124.22163773 C-36.90378671 122.60333281 -36.41651366 120.98502383 -35.92925453 119.36671066 C-32.50800878 108.00395788 -29.08365046 96.6421478 -25.65625 85.28125 C-25.44254068 84.57283148 -25.22883137 83.86441296 -25.00864601 83.13452721 C-22.85165346 75.9844438 -20.69417255 68.83450819 -18.53588867 61.68481445 C-12.33282974 41.13053643 -6.16525148 20.56564363 0 0 Z M77 75 C76.77449463 75.72662842 76.54898926 76.45325684 76.31665039 77.2019043 C75.62970778 79.41538603 74.94268829 81.62884391 74.25561523 83.84228516 C73.45361908 86.42637036 72.65243842 89.01070661 71.85180664 91.59521484 C69.92521841 97.81207113 67.99454447 104.02749379 66.04072571 110.2358551 C65.20480583 112.89279466 64.37193207 115.55068471 63.53927612 118.20864868 C62.94394673 120.10447045 62.34418942 121.99889991 61.74438477 123.89331055 C61.38401123 125.04484619 61.0236377 126.19638184 60.65234375 127.3828125 C60.33257568 128.39746582 60.01280762 129.41211914 59.68334961 130.45751953 C58.87021946 133.04407798 58.87021946 133.04407798 59 136 C65.66699676 136.07709161 72.33387554 136.12902846 79.0012207 136.16479492 C81.26168105 136.17973082 83.52211321 136.20008693 85.7824707 136.22631836 C114.06188852 136.94993261 114.06188852 136.94993261 139.078125 125.2890625 C147.02268737 117.1027091 151.76784551 104.93794776 152.0625 93.59375 C151.82478973 89.13668247 150.9944006 85.57784627 147.73046875 82.27734375 C130.30623786 69.41566542 97.51426138 74.79466785 77 75 Z " fill="#FEFEFE" transform="translate(755,30)"/>
<path d="M0 0 C0.82322754 0.18191895 1.64645508 0.36383789 2.49462891 0.55126953 C18.14229276 4.16078012 33.89533405 10.89801668 42.83984375 24.875 C46.95994056 32.16514776 48.23303189 37.67108431 48.375 45.9375 C48.41238281 46.69740234 48.44976563 47.45730469 48.48828125 48.24023438 C48.79729871 69.99163034 38.61417156 93.12749472 32.36502075 113.72568893 C31.01236237 118.1911346 29.66857325 122.65924609 28.32421875 127.12719727 C24.03283687 141.38247433 19.72819228 155.63361655 15.37889099 169.87133789 C14.04380285 174.24667657 12.71713075 178.62453568 11.39230347 183.00299072 C10.52427229 185.85767596 9.64248185 188.70785799 8.76000977 191.55810547 C8.24550857 193.25595843 7.73170414 194.95402276 7.21875 196.65234375 C6.98872787 197.37990372 6.75870575 198.10746368 6.52171326 198.85707092 C4.77768233 204.72198533 3.50913067 211.14790215 6.4375 216.75 C7.2109375 217.86375 7.2109375 217.86375 8 219 C9.34114905 223.22977778 9.1155619 223.76887619 7 228 C-23.03 228 -53.06 228 -84 228 C-84 221.73 -84 215.46 -84 209 C-85.94326172 210.16015625 -85.94326172 210.16015625 -87.92578125 211.34375 C-121.54630135 231.15709463 -160.4363282 243.01917467 -199.69140625 233.9765625 C-212.89785088 230.07855641 -223.80820024 223.91459526 -231.25390625 211.9921875 C-239.38221175 196.69537642 -236.65173133 178.93957856 -232 163 C-225.01496782 141.0091918 -212.22491627 122.84923293 -191.7109375 111.875 C-162.60663422 96.90446449 -128.73761367 93.3586423 -96.65112305 89.87475586 C-68.78943347 87.24688972 -68.78943347 87.24688972 -46 73 C-43.43138843 68.91609239 -42.26824795 64.80865636 -43 60 C-45.42013787 55.66391965 -48.24221926 54.05150869 -52.796875 52.55859375 C-56.51679113 51.61542352 -60.17465769 51.21764879 -64 51 C-64.68578125 50.94714844 -65.3715625 50.89429688 -66.078125 50.83984375 C-76.88929919 50.37936781 -88.65827001 52.84570488 -97 60 C-100.40232582 64.00053696 -103.3318197 67.9954591 -105 73 C-134.37 73 -163.74 73 -194 73 C-192.0731335 66.57711166 -190.34594558 60.93817174 -187.375 55.0625 C-187.02945068 54.37792725 -186.68390137 53.69335449 -186.32788086 52.98803711 C-182.99792517 46.62582958 -178.8809207 41.26736193 -174 36 C-173.30261719 35.22269531 -172.60523438 34.44539063 -171.88671875 33.64453125 C-152.82393317 13.39685589 -125.56526548 4.24993907 -99 -1 C-98.17435547 -1.16661133 -97.34871094 -1.33322266 -96.49804688 -1.50488281 C-66.03066858 -7.2939244 -30.19756509 -6.86026446 0 0 Z M-69.76953125 130.3203125 C-70.73020508 130.60535645 -71.69087891 130.89040039 -72.68066406 131.18408203 C-73.71416992 131.49458496 -74.74767578 131.80508789 -75.8125 132.125 C-83.16562474 134.3118153 -90.52424278 136.43144676 -97.94311523 138.38427734 C-106.57750481 140.66284897 -114.97672171 142.98836086 -123 147 C-124.34964844 147.67482422 -124.34964844 147.67482422 -125.7265625 148.36328125 C-132.45727675 152.0463122 -137.52500092 156.57500277 -140 164 C-140.38438818 168.68953585 -140.45895659 171.06443464 -138.375 175.3125 C-133.83490546 180.4499754 -128.72465326 181.69270548 -122.078125 182.125 C-107.93720132 182.53787368 -93.75748967 179.49863449 -83 170 C-82.39414063 169.47535156 -81.78828125 168.95070313 -81.1640625 168.41015625 C-70.1246735 158.16618175 -65.13036349 143.35386188 -62 129 C-64.97196768 129 -66.94315428 129.47189025 -69.76953125 130.3203125 Z " fill="#FEFEFE" transform="translate(1187,106)"/>
<path d="M0 0 C30.03 0 60.06 0 91 0 C91 43.23 91 86.46 91 131 C96.28 121.76 101.56 112.52 107 103 C115.0625 89.375 115.0625 89.375 119.05859375 82.66015625 C123.6056564 75.00023395 128.05319883 67.28426296 132.49414062 59.5625 C136.66000855 52.31942089 140.8490718 45.09051791 145.0625 37.875 C145.90905151 36.42516724 145.90905151 36.42516724 146.77270508 34.94604492 C148.51467098 31.96375756 150.25726774 28.9818396 152 26 C154.60497387 21.54213762 157.20897097 17.08370633 159.8125 12.625 C160.41779541 11.58972168 161.02309082 10.55444336 161.64672852 9.48779297 C162.20287842 8.53533691 162.75902832 7.58288086 163.33203125 6.6015625 C163.82421143 5.75932129 164.3163916 4.91708008 164.82348633 4.04931641 C165.58644366 2.72035524 166.31469107 1.37061787 167 0 C195.38 0 223.76 0 253 0 C251.48179758 3.79550605 250.08629982 6.67696545 247.9453125 10.0703125 C247.3366333 11.0394458 246.7279541 12.0085791 246.10083008 13.00708008 C245.44880615 14.03599365 244.79678223 15.06490723 244.125 16.125 C243.11505981 17.72927856 243.11505981 17.72927856 242.0847168 19.3659668 C240.06033031 22.57976111 238.03057792 25.79011516 236 29 C234.92024622 30.71203358 233.84079115 32.42425562 232.76171875 34.13671875 C229.36799355 39.51931445 225.96487595 44.89594954 222.56152344 50.27246094 C216.51250591 59.83064482 210.49030179 69.40488796 204.5 79 C197.56014493 90.11608218 190.57050728 101.19988429 183.56152344 112.27246094 C177.51250591 121.83064482 171.49030179 131.40488796 165.5 141 C159.51421661 150.58787459 153.49635422 160.15474523 147.45166016 169.70556641 C144.96526467 173.63545958 142.48287225 177.56788032 140 181.5 C139.00001836 183.08334493 138.00001838 184.66667828 137 186.25 C136.2575 187.425625 136.2575 187.425625 135.5 188.625 C134 191 132.5 193.375 131 195.75 C130.5059668 196.53238037 130.01193359 197.31476074 129.50292969 198.12084961 C128.49375077 199.71838836 127.48397667 201.31555127 126.47363281 202.91235352 C124.10925765 206.65063262 121.75225799 210.39276659 119.421875 214.15234375 C112.95781468 224.5443604 106.2426343 234.76834514 99.47473145 244.96414185 C98.42365333 246.54815788 97.37404662 248.13315143 96.3260498 249.71920776 C78.55360077 276.59414057 59.0858479 303.30845602 26 311 C11.09929518 313.99466053 -3.99124464 314.17456323 -19.125 314.125 C-20.34124557 314.12317215 -20.34124557 314.12317215 -21.58206177 314.12130737 C-52.90571219 314.06607238 -52.90571219 314.06607238 -64 312 C-62.60102274 304.00061755 -60.4352849 296.32142751 -58.0859375 288.5546875 C-57.5241832 286.67814987 -57.5241832 286.67814987 -56.95108032 284.76370239 C-55.96543961 281.47135905 -54.97438725 278.18067011 -53.9821167 274.89031982 C-52.96651189 271.51902644 -51.95614712 268.14616358 -50.9453125 264.7734375 C-48.96860622 258.18076481 -46.98616629 251.58982867 -45 245 C-43.54146606 244.97812622 -43.54146606 244.97812622 -42.0534668 244.95581055 C-38.39459145 244.89718653 -34.73629106 244.81996749 -31.07788086 244.73754883 C-29.5040836 244.7045973 -27.93017661 244.67647602 -26.35620117 244.65356445 C-9.13031033 244.72855326 -9.13031033 244.72855326 5.56640625 236.8125 C20.66024713 217.72927884 11.16847191 176.77419661 9.57685089 154.14044952 C9.23284885 149.21443449 8.90096798 144.28760215 8.56787109 139.36083984 C7.93782772 130.06591471 7.29868022 120.77164309 6.65540886 111.47762489 C5.50187401 94.80906392 4.36117898 78.13962612 3.22839546 61.46964264 C2.83171797 55.6381165 2.4300516 49.80696269 2.0241394 43.97607231 C1.77236279 40.34827989 1.52417496 36.72024777 1.27681732 33.09215164 C1.16228395 31.42364454 1.04624418 29.75523997 0.92850494 28.08695602 C0.76673566 25.79212002 0.61055895 23.4969625 0.45556641 21.20166016 C0.32282822 19.28506088 0.32282822 19.28506088 0.18740845 17.32974243 C-0.06240563 11.55822779 0 5.77691858 0 0 Z " fill="#FEFEFE" transform="translate(1258,110)"/>
<path d="M0 0 C30.03 0 60.06 0 91 0 C89.77664819 6.11675904 88.57933285 11.88270607 86.74438477 17.78417969 C86.52767624 18.4951329 86.31096771 19.20608612 86.08769226 19.93858337 C85.37664139 22.26771208 84.65895243 24.59474005 83.94140625 26.921875 C83.43203048 28.58759532 82.92316638 30.25347218 82.41477966 31.91949463 C81.07334341 36.31193345 79.72667594 40.70274826 78.37835693 45.09307861 C72.01924998 65.80215954 65.66030943 86.51270701 59.56410027 107.30103302 C59.08981308 108.91499763 58.61280956 110.52816708 58.13278389 112.14043427 C51.86626105 132.29815051 51.86626105 132.29815051 53.9375 152.875 C59.0533505 158.14587627 65.76189624 159.27156145 72.875 159.5 C84.11810365 159.12156763 92.80263637 155.67311363 101 148 C101.60328125 147.44957031 102.2065625 146.89914062 102.828125 146.33203125 C113.00783195 135.94597889 117.4853431 120.61408321 121.5 107 C122.01732046 105.28673621 122.53593742 103.57386352 123.05566406 101.86132812 C124.65096125 96.58778362 126.22514289 91.30807744 127.7980957 86.02783203 C129.16672684 81.43753426 130.54312931 76.84957411 131.91992188 72.26171875 C132.17943634 71.39693909 132.43895081 70.53215942 132.70632935 69.64117432 C133.7904835 66.02886967 134.87484532 62.41662738 135.959198 58.80438232 C138.72044984 49.60541096 141.48079941 40.40618896 144.2287178 31.20322418 C145.27309968 27.7058127 146.31875388 24.2087822 147.36449432 20.71177673 C147.8587972 19.05740398 148.35244055 17.40283402 148.84540558 15.74806213 C149.52518907 13.46631617 150.20717411 11.18523919 150.88964844 8.90429688 C151.090075 8.22932663 151.29050156 7.55435638 151.49700165 6.8589325 C152.20928489 4.48426623 152.88889912 2.22220176 154 0 C184.03 0 214.06 0 245 0 C234.66286167 35.60569869 234.66286167 35.60569869 230.7578125 48.4375 C230.30699444 49.92413769 229.856353 51.41082894 229.40586853 52.89756775 C228.46422426 56.00419286 227.52154198 59.11049989 226.57791138 62.21652222 C225.0792274 67.14970453 223.58318999 72.0836871 222.08764648 77.01782227 C221.83372855 77.85553319 221.57981062 78.69324411 221.3181982 79.55634022 C220.80398667 81.25280309 220.2897817 82.94926795 219.77558327 84.64573479 C219.00523702 87.1870162 218.23466309 89.72822847 217.46403503 92.26942444 C213.03924631 106.86175167 208.63173833 121.45925412 204.23156738 136.059021 C203.07262135 139.90427448 201.91281782 143.74926886 200.75292969 147.59423828 C197.31810068 158.98211718 193.88705779 170.3711059 190.46806335 181.76374817 C188.96253159 186.78009166 187.45417669 191.79558594 185.94577026 196.81106567 C185.23733554 199.16900828 184.53006215 201.52730014 183.82400513 203.88595581 C182.86206146 207.09930746 181.8963206 210.31149399 180.9296875 213.5234375 C180.64527298 214.47729843 180.36085846 215.43115936 180.06782532 216.41392517 C179.67822884 217.70442528 179.67822884 217.70442528 179.28076172 219.02099609 C179.05605194 219.77029388 178.83134216 220.51959167 178.599823 221.29159546 C178 223 178 223 177 224 C174.41360962 224.09507821 171.8540144 224.12556376 169.26733398 224.11352539 C168.05279541 224.11374443 168.05279541 224.11374443 166.8137207 224.1139679 C164.12448492 224.11326854 161.43531751 224.1054751 158.74609375 224.09765625 C156.88664284 224.09579215 155.02719144 224.09436821 153.16773987 224.09336853 C148.26370904 224.08954271 143.35970764 224.07971188 138.45568848 224.06866455 C133.45548908 224.05845181 128.45528494 224.05387121 123.45507812 224.04882812 C113.63670579 224.03808967 103.81835534 224.02101248 94 224 C94.17128418 223.40574219 94.34256836 222.81148437 94.51904297 222.19921875 C95.30579876 219.46655718 96.09041224 216.7332848 96.875 214 C97.27912109 212.59814453 97.27912109 212.59814453 97.69140625 211.16796875 C99.23046082 205.80004672 100.68177884 200.4264638 102 195 C101.19820312 195.66644531 100.39640625 196.33289063 99.5703125 197.01953125 C81.85216673 211.48873195 62.41121491 222.7531391 40 228 C38.57300781 228.33837891 38.57300781 228.33837891 37.1171875 228.68359375 C15.64313363 232.83524416 -10.07232285 231.89066685 -28.625 219.4375 C-38.61122391 211.83836498 -44.98622256 201.25476873 -47.3125 189 C-49.92034603 168.46913942 -43.83622529 148.3332249 -38.41796875 128.7265625 C-38.07275177 127.4771286 -37.72753479 126.2276947 -37.37185669 124.94039917 C-33.48684468 110.96170763 -29.25837351 97.08877085 -25.01408386 83.21587372 C-23.25718493 77.46787408 -21.51017672 71.71685233 -19.76141357 65.96637344 C-19.10456653 63.80675182 -18.44730432 61.64725682 -17.79003906 59.48776245 C-11.76617637 39.68642621 -5.88859013 19.84198849 0 0 Z " fill="#FEFEFE" transform="translate(453,110)"/>
<path d="M0 0 C2.70715008 2.41548749 4.21429696 4.97261957 5.8984375 8.171875 C6.73133301 9.73989868 6.73133301 9.73989868 7.58105469 11.33959961 C8.17305664 12.46503174 8.76505859 13.59046387 9.375 14.75 C10.63600717 17.12219986 11.89840683 19.4935673 13.1640625 21.86328125 C13.48431396 22.46350601 13.80456543 23.06373077 14.13452148 23.68214417 C17.24292275 29.48967059 20.48305896 35.21814778 23.75 40.9375 C28.34130397 48.9837846 32.76282377 57.09898776 37.01855469 65.32788086 C38.67881134 68.89117093 38.67881134 68.89117093 41 72 C41.26086899 71.14222458 41.52173798 70.28444916 41.79051208 69.40068054 C44.24739955 61.32232865 46.7046686 53.24409294 49.16236782 45.16598797 C50.42592066 41.01282247 51.68932519 36.85961199 52.95239258 32.70629883 C54.17101373 28.69915663 55.39002211 24.69213242 56.60930061 20.6851902 C57.07472631 19.15540589 57.54001176 17.6255789 58.00515556 16.09570885 C58.65598076 13.9552134 59.30730155 11.81486935 59.95874023 9.67456055 C60.32958237 8.45544479 60.7004245 7.23632904 61.08250427 5.98027039 C61.69843993 3.97954738 62.33801289 1.98596132 63 0 C63.66 0 64.32 0 65 0 C65.41660889 0.78834229 65.83321777 1.57668457 66.26245117 2.38891602 C76.66625212 22.06187889 76.66625212 22.06187889 87.5 41.5 C92.93119449 50.99607217 98.10430815 60.61472045 103.22988892 70.27764893 C107.52527436 78.37506781 111.86183019 86.44297068 116.34448242 94.4387207 C119.79040314 100.59323168 123.14888175 106.79343663 126.5 113 C130.29303608 120.02308203 134.10994763 127.03018965 138 134 C138.78657865 135.41920415 139.57303401 136.83847665 140.359375 138.2578125 C141.80190003 140.85866021 143.25637241 143.45162773 144.72460938 146.03808594 C146.58070012 149.30922584 148.41616679 152.59134138 150.25 155.875 C150.848125 156.9165625 151.44625 157.958125 152.0625 159.03125 C152.87460938 160.49691406 152.87460938 160.49691406 153.703125 161.9921875 C154.19458008 162.86214355 154.68603516 163.73209961 155.19238281 164.62841797 C156 167 156 167 155.27978516 169.18969727 C153.54488936 171.64377058 151.49943721 173.22145086 149.125 175.0625 C144.92609428 178.40079449 140.91948279 181.83930276 137 185.5 C132.41327079 189.77007217 127.66549239 193.7576498 122.78125 197.6875 C119.75980812 200.1997101 116.87558227 202.82400827 114 205.5 C109.41239887 209.76918152 104.66557272 213.75758517 99.78125 217.6875 C96.75980812 220.1997101 93.87558227 222.82400827 91 225.5 C86.41239887 229.76918152 81.66557272 233.75758517 76.78125 237.6875 C73.75980812 240.1997101 70.87558227 242.82400827 68 245.5 C63.41239887 249.76918152 58.66557272 253.75758517 53.78125 257.6875 C50.75980812 260.1997101 47.87558227 262.82400827 45 265.5 C40.41239887 269.76918152 35.66557272 273.75758517 30.78125 277.6875 C27.75980812 280.1997101 24.87558227 282.82400827 22 285.5 C17.41239887 289.76918152 12.66557272 293.75758517 7.78125 297.6875 C4.75980812 300.1997101 1.87558227 302.82400827 -1 305.5 C-4.73329478 308.9741715 -8.52370843 312.30068494 -12.5 315.5 C-17.59923578 319.60300303 -22.39337368 323.95916453 -27.17578125 328.421875 C-35.47727273 336 -35.47727273 336 -38 336 C-35.90398623 327.2030565 -33.4299022 318.56332594 -30.76953125 309.921875 C-30.36998742 308.61631299 -29.97071586 307.31066763 -29.57170105 306.00494385 C-28.53379417 302.61108715 -27.49225709 299.21835578 -26.44989014 295.8258667 C-25.38166266 292.34683914 -24.31696862 288.86673063 -23.25195312 285.38671875 C-21.17137371 278.59009986 -19.08694705 271.79466664 -17 265 C-24.78011982 270.18674654 -31.68675176 276.55607167 -38.51733398 282.91186523 C-42.60514697 286.69380091 -46.87970676 290.19631579 -51.21875 293.6875 C-54.24019188 296.1997101 -57.12441773 298.82400827 -60 301.5 C-64.58760113 305.76918152 -69.33442728 309.75758517 -74.21875 313.6875 C-77.76189101 316.63348241 -81.1213957 319.75132533 -84.49316406 322.88989258 C-89.47318366 327.49730756 -94.69482875 331.77048355 -100 336 C-101.07653468 332.77039595 -100.98460232 332.16591906 -100.03808594 329.06933594 C-99.79817429 328.26904968 -99.55826263 327.46876343 -99.31108093 326.64422607 C-99.03826797 325.76647522 -98.76545502 324.88872437 -98.484375 323.984375 C-98.20274002 323.05361145 -97.92110504 322.1228479 -97.63093567 321.16387939 C-96.67865241 318.0234182 -95.71413238 314.88684195 -94.75 311.75 C-94.05892241 309.47813574 -93.36875951 307.20599307 -92.67944336 304.93359375 C-91.20613255 300.08015693 -89.72839782 295.22809808 -88.24755859 290.37695312 C-86.11517521 283.38591523 -84.00111474 276.38947519 -81.89453125 269.390625 C-81.54786407 268.23898865 -81.2011969 267.08735229 -80.84402466 265.90081787 C-80.12250526 263.50375342 -79.4010195 261.10667884 -78.67956543 258.70959473 C-76.70720435 252.15970063 -74.73051677 245.61111264 -72.75390625 239.0625 C-72.31582633 237.61102298 -71.8777465 236.15954592 -71.43966675 234.70806885 C-69.95989758 229.80534308 -68.47996469 224.90266675 -67 220 C-66.56993778 218.57533417 -66.56993778 218.57533417 -66.13118744 217.12188721 C-60.73561002 199.24808094 -55.3395944 181.37440696 -49.94358063 163.50073242 C-44.96222078 147.00053849 -39.98093323 130.50032273 -35 114 C-34.73158043 113.11080872 -34.46316086 112.22161743 -34.18660736 111.30548096 C-31.31641121 101.79730441 -28.44669386 92.28898368 -25.57806396 82.78033447 C-24.82499188 80.28431982 -24.07178015 77.78834729 -23.31842041 75.29241943 C-19.38026836 62.24461615 -15.45634385 49.19274642 -11.55859375 36.1328125 C-10.84515838 33.74478422 -10.13169863 31.35676323 -9.41821289 28.96875 C-8.09205563 24.52974559 -6.77015924 20.08950445 -5.45092773 15.6484375 C-4.87107554 13.70568602 -4.29108747 11.76297508 -3.7109375 9.8203125 C-3.44844711 8.93223907 -3.18595673 8.04416565 -2.91551208 7.12918091 C-1.11363291 1.11363291 -1.11363291 1.11363291 0 0 Z " fill="#F37B23" transform="translate(1557,59)"/>
<path d="M0 0 C0.66 0 1.32 0 2 0 C2.62491333 1.18251343 2.62491333 1.18251343 3.26245117 2.38891602 C13.66625212 22.06187889 13.66625212 22.06187889 24.5 41.5 C29.93119449 50.99607217 35.10430815 60.61472045 40.22988892 70.27764893 C44.52527436 78.37506781 48.86183019 86.44297068 53.34448242 94.4387207 C56.79040314 100.59323168 60.14888175 106.79343663 63.5 113 C67.29303608 120.02308203 71.10994763 127.03018965 75 134 C75.78657865 135.41920415 76.57303401 136.83847665 77.359375 138.2578125 C78.80190003 140.85866021 80.25637241 143.45162773 81.72460938 146.03808594 C83.58070012 149.30922584 85.41616679 152.59134138 87.25 155.875 C87.848125 156.9165625 88.44625 157.958125 89.0625 159.03125 C89.87460938 160.49691406 89.87460938 160.49691406 90.703125 161.9921875 C91.19458008 162.86214355 91.68603516 163.73209961 92.19238281 164.62841797 C93 167 93 167 92.27978516 169.18969727 C90.54488936 171.64377058 88.49943721 173.22145086 86.125 175.0625 C81.92609428 178.40079449 77.91948279 181.83930276 74 185.5 C69.41327079 189.77007217 64.66549239 193.7576498 59.78125 197.6875 C56.75980812 200.1997101 53.87558227 202.82400827 51 205.5 C46.41239887 209.76918152 41.66557272 213.75758517 36.78125 217.6875 C33.75980812 220.1997101 30.87558227 222.82400827 28 225.5 C23.41239887 229.76918152 18.66557272 233.75758517 13.78125 237.6875 C10.75980812 240.1997101 7.87558227 242.82400827 5 245.5 C0.41239887 249.76918152 -4.33442728 253.75758517 -9.21875 257.6875 C-12.24019188 260.1997101 -15.12441773 262.82400827 -18 265.5 C-22.58760113 269.76918152 -27.33442728 273.75758517 -32.21875 277.6875 C-35.24019188 280.1997101 -38.12441773 282.82400827 -41 285.5 C-45.58760113 289.76918152 -50.33442728 293.75758517 -55.21875 297.6875 C-58.24019188 300.1997101 -61.12441773 302.82400827 -64 305.5 C-67.73329478 308.9741715 -71.52370843 312.30068494 -75.5 315.5 C-80.59923578 319.60300303 -85.39337368 323.95916453 -90.17578125 328.421875 C-98.47727273 336 -98.47727273 336 -101 336 C-98.91146053 327.28876623 -96.50188026 318.70675299 -93.91015625 310.1328125 C-93.62389279 309.18417139 -93.62389279 309.18417139 -93.33184624 308.21636581 C-92.32551723 304.88217056 -91.31574849 301.54904108 -90.30297852 298.21679688 C-89.26430131 294.796842 -88.23775725 291.37336693 -87.21381474 287.94897652 C-86.41660188 285.29083794 -85.61048872 282.63545856 -84.80196953 279.98073959 C-84.23516478 278.11156245 -83.67778387 276.23953589 -83.12062073 274.36746216 C-80.46561566 265.71386643 -77.78636367 260.2697751 -70.9375 254.1875 C-69.47957031 252.89199219 -69.47957031 252.89199219 -67.9921875 251.5703125 C-64.32567761 248.42075179 -60.5784248 245.38188742 -56.81640625 242.34765625 C-53.25527685 239.37922523 -49.87356843 236.24350551 -46.48071289 233.08618164 C-42.39338994 229.30509442 -38.11956756 225.80310034 -33.78125 222.3125 C-30.75980812 219.8002899 -27.87558227 217.17599173 -25 214.5 C-20.41239887 210.23081848 -15.66557272 206.24241483 -10.78125 202.3125 C-7.75980812 199.8002899 -4.87558227 197.17599173 -2 194.5 C2.57559944 190.24198716 7.30575034 186.25987127 12.18359375 182.34765625 C15.96549643 179.19519646 19.55670632 175.85257939 23.1171875 172.453125 C26.787988 169 26.787988 169 29 169 C22.62603988 156.56669301 16.08734895 144.2624207 9.14648438 132.13598633 C6.0078369 126.62524566 2.94818542 121.08048621 -0.02734375 115.48046875 C-0.36999771 114.83563034 -0.71265167 114.19079193 -1.06568909 113.52641296 C-2.79537564 110.26518533 -4.51573045 106.99929966 -6.22680664 103.72827148 C-9.0820666 98.29365212 -11.94608818 92.92791727 -15.34375 87.8046875 C-15.83077393 87.05880371 -16.31779785 86.31291992 -16.81958008 85.54443359 C-17.68333346 84.25350537 -18.58076474 82.98394343 -19.5222168 81.74853516 C-21.54357701 78.71886378 -22.09326514 76.73938562 -21.63024902 73.06869507 C-19.63457881 64.2766098 -17.23440279 55.67864269 -14.55078125 47.0703125 C-14.12856253 45.70042722 -13.70687602 44.3303778 -13.28569031 42.96017456 C-12.19116588 39.40442398 -11.08956878 35.85090586 -9.98632812 32.29785156 C-8.85562631 28.65174787 -7.73184238 25.00351338 -6.60742188 21.35546875 C-4.41159721 14.23491226 -2.20827356 7.11670689 0 0 Z " fill="#128E48" transform="translate(1620,59)"/>
</svg>
